<?xml version="1.0" encoding="UTF-8"?>
<!DOCTYPE svg PUBLIC "-//W3C//DTD SVG 1.1//EN" "http://www.w3.org/Graphics/SVG/1.1/DTD/svg11.dtd">
<!-- Creator: CorelDRAW 2021.5 -->
<svg xmlns="http://www.w3.org/2000/svg" xml:space="preserve" width="210mm" height="297mm" version="1.1" style="shape-rendering:geometricPrecision; text-rendering:geometricPrecision; image-rendering:optimizeQuality; fill-rule:evenodd; clip-rule:evenodd"
viewBox="0 0 21000 29700"
 xmlns:xlink="http://www.w3.org/1999/xlink"
 xmlns:xodm="http://www.corel.com/coreldraw/odm/2003">
 <defs>
  <style type="text/css">
   <![CDATA[
    .str0 {stroke:#FFED00;stroke-width:7.62;stroke-miterlimit:22.9256}
    .fil2 {fill:#FEFEFE}
    .fil1 {fill:#FFED00}
    .fil4 {fill:#E31E24}
    .fil3 {fill:#FEFEFE;fill-rule:nonzero}
    .fil0 {fill:#FFED00;fill-rule:nonzero}
   ]]>
  </style>
 </defs>
 <g id="Слой_x0020_1">
  <metadata id="CorelCorpID_0Corel-Layer"/>
  <g>
   <path class="fil0" d="M1722.15 4634.57l1286.36 -2.29 2.16 1216.84 -1286.36 2.29 -579.59 -796.85 577.43 -419.99zm785.43 164.88l-205.84 631.97 -1157.02 -376.86 205.84 -631.97 0.01 -0.02 1157.01 376.88zm123.16 -378.08l-123.17 378.1 -1157 -376.9 123.17 -378.1 1174.43 65.79 -17.43 311.11zm-80.86 -788.63l98.29 477.52 -1191.86 245.32 -98.29 -477.52 425.49 -706.72 766.37 461.4zm-145.08 624.89l-280.41 81.83 -340.88 -1168.12 280.41 -81.83 748.96 772.45 -408.08 395.67zm1325.88 -3214.04l-917.8 2818.37 -1157.04 -376.78 917.8 -2818.37 577.44 -420.03 579.6 796.81zm758.96 417.65l-1336.4 2.38 -2.16 -1216.84 1336.4 -2.38 578.92 417.97 -576.76 798.87zm865.57 3964.73l-1444.49 -4382.7 1155.68 -380.9 1444.49 4382.7 -576.76 798.87 -578.92 -417.97zm-731.83 -796.55l1308.59 -2.32 2.16 1216.84 -1308.59 2.32 -588.26 -449.07 586.1 -767.77zm431.31 -129.27l156.95 578.34 -1174.36 318.7 -156.95 -578.34 586.1 -767.77 588.26 449.07zm-1896.85 -446.75l1308.59 -2.32 2.16 1216.84 -1308.59 2.32 -590.21 -760.4 588.05 -456.44zm-737.38 1035.32l149.33 -578.88 1178.26 303.96 -149.33 578.88 -588.05 456.44 -590.21 -760.4zm1978.32 -3072.3l425.99 1570.63 -1174.42 318.52 -425.99 -1570.63 -2.09 -310.58 1176.51 -7.94zm-1580.19 1580.04l403.68 -1572.1 1178.6 302.64 -403.68 1572.1 -588.22 457.1 -590.38 -759.74zm1420.05 758.27l-829.67 1.47 -2.16 -1216.84 829.67 -1.47 588.29 449.16 -586.13 767.68zm2213.54 271.45l982.79 -1.75 2.16 1216.84 -982.79 1.75 -609.5 -607.34 607.34 -609.5zm604.02 -2482.37l5.48 3089.71 -1216.84 2.16 -5.48 -3089.71 607.34 -609.5 609.5 607.34zm375.45 607.76l-982.79 1.74 -2.16 -1216.84 982.79 -1.74 609.5 607.34 -607.34 609.5zm-607.57 479.33l-1.93 -1086.67 1216.84 -2.16 1.93 1086.67 -607.34 609.5 -609.5 -607.34zm1479.5 605.8l-870 1.54 -2.16 -1216.84 870 -1.54 609.5 607.34 -607.34 609.5zm605.41 -1696.17l1.93 1086.67 -1216.84 2.16 -1.93 -1086.67 607.34 -609.5 609.5 607.34zm375.46 607.75l-982.8 1.75 -2.16 -1216.84 982.8 -1.75 609.5 607.34 -607.34 609.5zm-604.02 2482.37l-5.48 -3089.71 1216.84 -2.16 5.48 3089.71 -607.34 609.5 -609.5 -607.34zm-375.46 -607.76l982.8 -1.74 2.16 1216.84 -982.8 1.74 -609.5 -607.34 607.34 -609.5zm607.38 -590.94l2.12 1198.28 -1216.84 2.16 -2.12 -1198.28 607.34 -609.5 609.5 607.34zm-1479.5 -605.8l870 -1.54 2.16 1216.84 -870 1.54 -609.5 -607.34 607.34 -609.5zm-605.22 1807.78l-2.12 -1198.28 1216.84 -2.16 2.12 1198.28 -607.34 609.5 -609.5 -607.34zm5624.26 -2782.61l-969.21 1593.57 -1039.66 -632.32 969.21 -1593.57 518.75 -292.26 520.91 924.58zm464.08 290.52l-982.83 1.74 -2.16 -1216.84 982.83 -1.74 609.5 607.34 -607.34 609.5zm-604.02 2482.36l-5.48 -3089.7 1216.84 -2.16 5.48 3089.7 -607.34 609.5 -609.5 -607.34zm-386.21 -607.73l993.55 -1.77 2.16 1216.84 -993.55 1.77 -609.49 -611.39 607.33 -605.45zm617.36 -998.1l-7.87 1609.49 -1216.82 -5.94 7.87 -1609.49 87.05 -310.65 1129.77 316.59zm-2098.96 1294.6l969.19 -1611.19 1042.72 627.24 -969.19 1611.19 -520.28 294.8 -522.44 -922.04zm-467.87 -293.05l988.15 -1.75 2.16 1216.84 -988.15 1.75 -609.5 -607.34 607.34 -609.5zm604.02 -2482.36l5.48 3089.7 -1216.84 2.16 -5.48 -3089.7 607.34 -609.5 609.5 607.34zm386.17 607.74l-993.51 1.76 -2.16 -1216.84 993.51 -1.76 609.5 609.39 -607.34 607.45zm-612.03 982.46l2.53 -1591.85 1216.84 1.94 -2.53 1591.85 -88.59 315.19 -1128.25 -317.13zm3909.78 218.95l209.03 -229.45 899.54 819.48 -209.03 229.45 -1058.19 -408.66 158.65 -410.82zm-157.12 1274.31l-1.53 -863.49 1216.84 -2.16 1.53 863.49 -607.34 609.5 -609.5 -607.34zm-509.76 -607.52l1117.1 -1.98 2.16 1216.84 -1117.1 1.98 -609.5 -607.34 607.34 -609.5zm604.04 -2470.6l5.46 3077.94 -1216.84 2.16 -5.46 -3077.94 607.34 -609.5 609.5 607.34zm509.76 607.52l-1117.1 1.98 -2.16 -1216.84 1117.1 -1.98 609.5 607.34 -607.34 609.5zm-607.83 332.47l-1.67 -939.81 1216.84 -2.16 1.67 939.81 -123.37 368.37 -1093.47 -366.21zm1806.06 -574.87l-712.59 941.08 -970.1 -734.58 712.59 -941.08 483.97 -241.13 486.13 975.71zm821.02 238.82l-1304.99 2.31 -2.16 -1216.84 1304.99 -2.31 459.95 1007.93 -457.79 208.91zm-1499.69 186.3l1039.74 -1194.23 917.74 799.02 -1039.74 1194.23 -974.53 -76.59 56.79 -722.43zm1122.68 2605.9l-1179.47 -1883.47 1031.32 -645.84 1179.47 1883.47 -514.58 931.34 -516.74 -285.5zm-828 -928.96l1342.58 -2.38 2.16 1216.84 -1342.58 2.38 -533.54 -314.04 531.38 -902.8zm-69.9 -777.46l603.44 1091.5 -1064.92 588.76 -603.44 -1091.5 82.69 -704.12 982.23 115.36zm3703.37 -1132.14l1133.21 -2.01 2.16 1216.84 -1133.21 2.01 -609.5 -607.32 607.34 -609.52zm-595.98 652.3l1134.44 -440.14 0.11 0.26 4.71 12.4 4.66 12.81 4.35 12.48 4.12 12.31 3.99 12.47 3.93 12.84 3.73 12.83 3.31 11.92 3.36 12.68 3.24 12.94 2.94 12.39 2.73 12.12 2.6 12.22 2.58 12.84 2.38 12.71 2.24 12.77 1.97 12.13 1.83 12.01 1.71 12.14 1.64 12.63 1.48 12.53 1.28 11.97 1.15 11.94 1.08 12.42 0.93 12.38 0.78 11.84 0.68 12.33 0.52 11.77 0.44 12.23 0.3 12.2 0.19 11.66 0.08 11.99 -1216.84 2.2 0 -0.45 -0.01 -0.68 0 -0.06 0 0.07 -0.02 -0.31 0.02 0.35 0 -0.04 0.05 0.58 0.06 0.72 0.03 0.32 0.04 0.45 0.14 1.09 0.16 1.29 0.13 0.9 0.13 0.87 0.17 1.05 0.32 1.81 0.34 1.83 0.42 2.06 0.32 1.54 0.35 1.52 0.44 1.87 0.64 2.54 0.62 2.36 0.47 1.68 0.79 2.71 0.85 2.78 0.81 2.53 0.82 2.45 0.95 2.72 1.14 3.15 1.07 2.82 0.11 0.26zm23.62 43.36l909.44 -808.46 -0.11 -0.13 7.29 8.28 6.77 7.82 6.99 8.21 7.67 9.18 7.08 8.67 6.3 7.83 7.23 9.16 7.35 9.55 6.78 8.99 6.71 9.07 6.7 9.25 6.82 9.62 6.64 9.59 6.63 9.79 6.8 10.3 6.43 9.98 6.07 9.65 6.66 10.83 6.37 10.68 6.01 10.33 6.04 10.66 6.04 10.95 6.03 11.28 5.67 10.9 5.88 11.69 5.62 11.53 5.16 10.89 5.57 12.16 5.41 12.26 4.94 11.61 4.97 12.1 4.86 12.28 -1134.44 440.14 1.1 2.78 1.09 2.66 0.94 2.23 1.29 2.9 1.31 2.88 0.78 1.63 1.14 2.33 1.26 2.53 0.93 1.78 1.19 2.22 1.06 1.93 0.96 1.68 0.81 1.41 1.07 1.78 1.22 1.99 0.53 0.85 0.79 1.22 1.04 1.58 0.75 1.11 0.66 0.95 0.74 1.04 0.5 0.69 0.41 0.55 0.38 0.51 0.85 1.11 0.61 0.78 -0.42 -0.53 0.28 0.33 0.75 0.9 -0.03 -0.03 -0.35 -0.4 0.09 0.1 -0.11 -0.13zm165.62 81.33l-2.18 -1216.84 0.04 0 24.55 0.22 24.74 0.77 24.91 1.34 25.1 1.93 24.97 2.51 25.39 3.17 25.47 3.83 25.34 4.46 25.69 5.19 25.33 5.82 25.4 6.53 25.47 7.28 25.42 8.02 25.41 8.79 24.85 9.38 25.05 10.25 24.62 10.9 24.24 11.55 24.44 12.52 23.5 12.91 23.28 13.63 23.1 14.45 22.31 14.84 21.85 15.44 21.36 15.99 21.19 16.82 20.29 17.05 19.58 17.38 19.33 18.1 18.44 18.23 18.01 18.74 17.33 19.01 -909.44 808.46 3.63 3.97 4.01 4.18 4.18 4.13 4.79 4.48 4.74 4.22 5.19 4.35 5.79 4.6 5.68 4.25 5.89 4.16 6.07 4.04 6.58 4.11 6.46 3.79 6.4 3.51 7.06 3.62 6.56 3.13 6.66 2.94 6.81 2.79 6.29 2.38 6.59 2.27 6.3 2 6.05 1.72 5.68 1.47 5.33 1.22 5.41 1.09 4.74 0.84 4.59 0.69 4.21 0.53 3.49 0.35 3.32 0.25 2.83 0.16 2.38 0.07 1.87 0.02 0.04 0zm157.29 -89.53l-1121.38 -472.44 0.04 -0.1 14.16 -32.37 15.18 -32.26 16.21 -32.03 17.32 -31.83 18.62 -31.86 19.72 -31.35 20.87 -30.88 22.38 -30.78 23.63 -30.19 24.77 -29.38 26.35 -29.01 27.71 -28.21 28.8 -27.13 30.28 -26.33 31.4 -25.14 32.5 -23.91 33.7 -22.71 34.66 -21.31 35.51 -19.85 36.25 -18.32 36.94 -16.78 37.35 -15.16 37.71 -13.54 38.14 -12 38.09 -10.36 37.99 -8.78 38.09 -7.32 38.13 -5.89 37.91 -4.48 37.45 -3.11 37.14 -1.85 36.91 -0.65 2.18 1216.84 1.65 -0.03 2.56 -0.13 3.51 -0.29 4.63 -0.56 5.51 -0.85 6.13 -1.18 6.69 -1.54 7.45 -2.04 8.14 -2.56 8.37 -3 8.65 -3.52 8.9 -4.04 8.87 -4.48 8.77 -4.91 8.58 -5.27 8.26 -5.57 7.72 -5.67 7.26 -5.82 6.78 -5.89 5.96 -5.61 5.49 -5.59 4.81 -5.29 3.85 -4.56 3.35 -4.29 2.76 -3.78 1.89 -2.78 1.36 -2.17 0.92 -1.58 0.26 -0.45 -0.23 0.45 -0.6 1.28 -1 2.29 0.04 -0.1zm-37.21 320.88l-1216.84 2.2 0 -0.03 0.06 -27.03 0.27 -26.73 0.48 -26.56 0.7 -26.54 0.92 -26.23 1.14 -26.07 1.38 -26.07 1.59 -25.63 1.83 -25.63 2.09 -25.48 2.3 -25.21 2.58 -25.25 2.83 -25.13 3.11 -25.01 3.35 -24.73 3.61 -24.48 3.9 -24.55 4.24 -24.64 4.52 -24.38 4.83 -24.28 5.16 -24.25 5.46 -24 5.84 -24.08 6.21 -24.03 6.5 -23.65 6.98 -23.99 7.41 -23.95 7.69 -23.47 8.26 -23.81 8.69 -23.66 9.06 -23.36 9.68 -23.61 1121.38 472.44 -0.7 1.73 -1 2.58 -1.07 2.9 -1.16 3.37 -1.41 4.31 -1.39 4.45 -1.46 5.03 -1.64 5.99 -1.61 6.23 -1.64 6.78 -1.7 7.48 -1.68 7.85 -1.67 8.44 -1.66 8.94 -1.6 9.32 -1.6 10.01 -1.57 10.72 -1.51 11.07 -1.41 11.41 -1.35 11.91 -1.26 12.41 -1.2 13.07 -1.09 13.42 -0.99 13.87 -0.91 14.51 -0.78 14.69 -0.66 15.31 -0.56 15.77 -0.42 16.08 -0.3 16.68 -0.17 17.13 -0.04 17.45 0 -0.03zm37.43 255.55l-1047.98 618.42 -0.06 -0.1 -14.6 -25.43 -13.85 -25.49 -13.34 -25.93 -12.68 -26.1 -11.95 -26.02 -11.42 -26.33 -10.82 -26.45 -10.24 -26.58 -9.65 -26.61 -9.12 -26.77 -8.6 -26.92 -8.01 -26.79 -7.59 -27.1 -7.06 -27.1 -6.61 -27.22 -6.11 -27.22 -5.65 -27.15 -5.28 -27.57 -4.84 -27.59 -4.38 -27.41 -4.02 -27.63 -3.63 -27.82 -3.22 -27.63 -2.88 -27.9 -2.52 -28.11 -2.16 -28.04 -1.82 -28.16 -1.47 -28.27 -1.16 -28.38 -0.83 -28.63 -0.51 -28.61 -0.21 -28.71 1216.84 -2.2 0.11 15.77 0.27 15.29 0.43 14.67 0.58 14.32 0.73 13.83 0.86 13.34 0.98 12.86 1.1 12.21 1.22 11.82 1.34 11.47 1.39 10.7 1.5 10.31 1.58 9.91 1.6 9.13 1.64 8.57 1.75 8.37 1.73 7.72 1.73 7.12 1.72 6.62 1.69 6.04 1.73 5.77 1.6 5.02 1.56 4.57 1.49 4.13 1.38 3.58 1.26 3.09 1.14 2.63 1.07 2.32 0.8 1.66 0.64 1.23 0.57 1.05 0.3 0.53 -0.06 -0.1zm-156.81 -94.27l2.12 1216.84 0.01 0 -31.4 -0.35 -31.77 -1.23 -31.79 -2.1 -32.01 -3.03 -32.41 -4.03 -32.52 -5.05 -32.45 -6.07 -32.56 -7.16 -32.73 -8.32 -32.48 -9.41 -32.37 -10.55 -32.46 -11.83 -31.92 -12.91 -31.7 -14.13 -31.28 -15.28 -30.79 -16.43 -30.29 -17.59 -29.49 -18.56 -28.78 -19.58 -28.16 -20.65 -27.29 -21.56 -26.3 -22.31 -25.39 -23.11 -24.55 -23.92 -23.56 -24.58 -22.36 -24.92 -21.6 -25.68 -20.58 -26.15 -19.46 -26.37 -18.53 -26.75 -17.66 -27.19 -16.66 -27.35 1047.98 -618.42 -1.28 -2.09 -1.78 -2.75 -2.15 -3.09 -2.6 -3.53 -3.24 -4.11 -3.74 -4.44 -4.02 -4.48 -4.74 -4.94 -5.21 -5.08 -5.57 -5.07 -6 -5.09 -6.49 -5.12 -6.86 -5.03 -7 -4.76 -7.21 -4.54 -7.53 -4.37 -7.53 -4.03 -7.52 -3.66 -7.44 -3.33 -7.2 -2.91 -7.22 -2.63 -6.65 -2.17 -6.26 -1.81 -6.03 -1.54 -5.36 -1.18 -4.75 -0.89 -4.34 -0.67 -3.75 -0.47 -2.83 -0.27 -2.15 -0.14 -1.61 -0.07 -0.76 -0.01 0.01 0zm-164.81 94.12l938.16 774.96 -0.05 0.06 -18.14 21.31 -18.91 20.94 -19.77 20.62 -20.33 19.94 -20.84 19.24 -21.79 18.93 -22.24 18.13 -22.79 17.45 -23.38 16.78 -23.79 15.99 -24.37 15.31 -24.47 14.35 -25.05 13.69 -25.23 12.81 -25.46 12 -25.9 11.27 -25.54 10.26 -26.15 9.64 -25.95 8.74 -25.89 7.94 -26.22 7.27 -25.92 6.44 -26.05 5.77 -25.75 5.01 -25.42 4.3 -25.73 3.73 -25.61 3.09 -24.96 2.43 -25.27 1.91 -24.87 1.32 -24.7 0.8 -24.69 0.29 -2.12 -1216.84 -0.03 0.01 -0.42 0 -0.95 0.06 -1.73 0.13 -1.76 0.17 -2.81 0.35 -3.27 0.47 -3.34 0.56 -4.05 0.79 -4.71 1.05 -4.94 1.22 -5.62 1.57 -5.65 1.72 -6.07 2.06 -6.65 2.44 -6.4 2.58 -7.14 3.11 -7.06 3.32 -7.21 3.67 -7.39 4.03 -7.17 4.21 -7.43 4.67 -7.25 4.87 -7.18 5.16 -6.97 5.33 -6.78 5.53 -6.71 5.83 -6.12 5.64 -5.97 5.86 -5.79 6.04 -5.29 5.86 -4.9 5.75 -0.05 0.06zm598.98 -553.05l2.16 1216.84 602.35 -530.65 -2.83 20.85 -3.1 20.74 -3.37 20.68 -3.76 21.12 -3.99 20.68 -4.29 20.67 -4.62 20.66 -4.93 20.65 -5.4 21.11 -5.63 20.61 -5.94 20.52 -6.43 20.87 -6.69 20.52 -7.11 20.64 -7.48 20.52 -7.82 20.37 -8.28 20.45 -8.72 20.47 -9.03 20.14 -9.42 20.06 -9.95 20.17 -10.38 20.05 -10.69 19.69 -11.02 19.42 -11.73 19.73 -11.95 19.21 -12.41 19.1 -12.8 18.82 -13.2 18.6 -13.9 18.74 -14.04 18.12 -14.42 17.84 -938.16 -774.96 -1.52 1.88 -1.42 1.84 -1.6 2.16 -1.22 1.7 -1.1 1.62 -1.03 1.58 -0.87 1.41 -0.95 1.59 -0.56 0.98 -0.51 0.95 -0.52 0.99 -0.39 0.81 -0.18 0.38 -0.07 0.16 -0.08 0.17 0.06 -0.15 0.2 -0.53 0.26 -0.7 0.31 -0.9 0.43 -1.3 0.39 -1.29 0.56 -1.94 0.59 -2.15 0.5 -1.97 0.65 -2.73 0.68 -3.04 0.69 -3.33 0.71 -3.64 0.62 -3.5 0.69 -4.24 0.68 -4.5 0.63 -4.71 602.35 -530.65zm1129.98 1214.84l-1127.82 2 -2.16 -1216.84 1127.82 -2 606.15 672.18 -603.99 544.66zm-165.59 869.77l-720.12 -980.88 0.04 -0.03 14.96 -11.3 14.32 -11.44 13.76 -11.62 13.23 -11.83 12.61 -11.91 12.15 -12.17 11.7 -12.38 11.21 -12.58 10.91 -12.97 10.49 -13.2 10.1 -13.52 9.86 -13.99 9.58 -14.44 9.22 -14.79 8.95 -15.31 8.72 -15.88 8.4 -16.38 8.18 -17.06 7.89 -17.65 7.63 -18.36 7.36 -19.08 7.04 -19.76 6.79 -20.65 6.45 -21.38 6.09 -22.09 5.75 -23 5.4 -23.88 5 -24.7 4.6 -25.6 4.18 -26.49 3.73 -27.37 3.26 -28.26 1210.14 127.52 -6.08 52.64 -7.13 52.29 -8.18 51.95 -9.28 51.62 -10.38 51.26 -11.5 50.86 -12.65 50.52 -13.83 50.17 -14.99 49.66 -16.15 49.15 -17.4 48.8 -18.62 48.26 -19.83 47.72 -21.11 47.21 -22.32 46.56 -23.62 46 -24.82 45.26 -26.09 44.59 -27.34 43.85 -28.5 42.98 -29.72 42.19 -31 41.42 -32.13 40.48 -33.23 39.49 -34.43 38.62 -35.48 37.58 -36.53 36.55 -37.59 35.55 -38.49 34.39 -39.46 33.36 -40.44 32.3 -41.3 31.18 0.04 -0.03zm-1394.96 413.54l-2.16 -1216.84 0 0 30.52 -0.28 29.86 -0.7 29.15 -1.14 28.55 -1.55 27.83 -1.96 27.27 -2.36 26.61 -2.74 25.88 -3.12 25.32 -3.49 24.61 -3.83 23.96 -4.18 23.43 -4.52 22.79 -4.85 22.11 -5.13 21.53 -5.45 20.87 -5.72 20.31 -6.02 19.86 -6.32 19.23 -6.56 18.66 -6.81 18.14 -7.05 17.63 -7.32 17.15 -7.54 16.72 -7.82 16.2 -8.01 15.8 -8.27 15.46 -8.54 14.91 -8.7 14.62 -8.99 14.36 -9.3 14.01 -9.54 13.65 -9.77 720.12 980.88 -37.01 26.51 -37.59 25.6 -38.12 24.68 -38.78 23.85 -39.41 22.98 -39.78 21.98 -40.32 21.11 -40.86 20.21 -41.24 19.26 -41.71 18.38 -42.15 17.46 -42.54 16.57 -42.94 15.67 -43.27 14.76 -43.54 13.86 -43.99 13.02 -44.35 12.16 -44.61 11.29 -44.91 10.45 -45.15 9.59 -45.41 8.78 -45.78 7.98 -46.05 7.17 -46.22 6.37 -46.58 5.6 -46.75 4.82 -46.99 4.08 -47.33 3.32 -47.51 2.59 -47.83 1.86 -48 1.14 -48.24 0.44 0 0zm-1559.23 -565.45l827.08 -892.54 0.01 0 16.03 14.48 16.29 13.98 16.45 13.41 16.65 12.86 16.94 12.4 17.17 11.91 17.52 11.47 17.91 11.09 18.17 10.61 18.49 10.16 19.02 9.82 19.45 9.43 19.87 9.01 20.45 8.67 20.97 8.27 21.51 7.88 22.03 7.48 22.67 7.07 23.37 6.7 23.99 6.28 24.71 5.85 25.35 5.41 26.04 4.95 26.86 4.51 27.54 4.02 28.29 3.51 29.13 3.02 29.84 2.5 30.62 1.94 31.41 1.4 32.22 0.82 33.02 0.24 2.16 1216.84 -55.06 -0.4 -54.8 -1.4 -54.53 -2.42 -54.26 -3.46 -53.96 -4.5 -53.61 -5.56 -53.37 -6.65 -53.06 -7.74 -52.68 -8.83 -52.42 -9.97 -52.05 -11.11 -51.63 -12.25 -51.27 -13.4 -50.81 -14.56 -50.47 -15.77 -50.03 -16.96 -49.49 -18.14 -48.95 -19.33 -48.43 -20.51 -47.93 -21.75 -47.27 -22.91 -46.66 -24.1 -46.11 -25.34 -45.37 -26.49 -44.55 -27.57 -43.9 -28.77 -43.17 -29.91 -42.34 -31 -41.57 -32.12 -40.69 -33.15 -39.81 -34.16 -38.99 -35.22 0.01 0zm-658.86 -1636.79l1216.84 -2.16 0 0 0.41 35.75 1.06 34.78 1.71 33.69 2.35 32.84 2.94 31.88 3.54 30.87 4.1 29.98 4.65 29.04 5.17 28.15 5.66 27.16 6.17 26.33 6.63 25.51 7.09 24.66 7.51 23.85 7.92 23 8.37 22.37 8.75 21.6 9.15 20.9 9.59 20.37 9.93 19.67 10.37 19.14 10.82 18.72 11.19 18.13 11.63 17.68 12.14 17.36 12.66 17.04 13.11 16.62 13.66 16.33 14.26 16.1 14.87 15.85 15.48 15.6 16.21 15.44 -827.08 892.54 -40.67 -38.74 -39.6 -39.9 -38.41 -40.95 -37.22 -42 -36.04 -43.09 -34.77 -44.1 -33.44 -45 -32.16 -45.96 -30.89 -46.98 -29.51 -47.83 -28.08 -48.54 -26.75 -49.42 -25.37 -50.21 -23.93 -50.83 -22.57 -51.6 -21.15 -52.2 -19.75 -52.75 -18.4 -53.44 -16.99 -53.89 -15.63 -54.4 -14.27 -54.85 -12.95 -55.33 -11.64 -55.84 -10.33 -56.15 -9.05 -56.56 -7.8 -56.94 -6.56 -57.37 -5.34 -57.66 -4.15 -58.02 -2.97 -58.49 -1.8 -58.7 -0.67 -59.05 0 0zm623.57 -1649.76l856.88 863.98 0.03 -0.03 -15.64 15.94 -14.96 16.12 -14.41 16.43 -13.9 16.77 -13.34 17.04 -12.86 17.43 -12.43 17.85 -11.92 18.21 -11.48 18.63 -11.1 19.22 -10.72 19.78 -10.26 20.24 -9.88 20.88 -9.51 21.57 -9.1 22.23 -8.7 22.94 -8.31 23.72 -7.85 24.39 -7.44 25.28 -7.01 26.1 -6.52 26.87 -6.06 27.79 -5.55 28.64 -5.05 29.59 -4.52 30.5 -3.96 31.36 -3.39 32.35 -2.81 33.23 -2.19 34.24 -1.58 35.19 -0.92 36.06 -0.27 37.06 -1216.84 2.16 0.43 -59.2 1.52 -58.9 2.62 -58.47 3.73 -58.12 4.87 -57.83 6.03 -57.39 7.2 -57.08 8.4 -56.64 9.59 -56.23 10.85 -55.9 12.08 -55.43 13.36 -55.05 14.63 -54.5 15.92 -54.04 17.27 -53.61 18.55 -52.98 19.9 -52.46 21.24 -51.85 22.57 -51.21 23.94 -50.6 25.32 -49.94 26.6 -49.08 27.94 -48.34 29.32 -47.63 30.62 -46.73 31.87 -45.81 33.16 -44.91 34.42 -43.98 35.62 -42.97 36.83 -41.99 38.04 -41 39.1 -39.86 0.03 -0.03zm1586.59 -619.03l2.16 1216.84 0.01 0 -32.51 0.37 -31.72 0.99 -30.93 1.59 -30.14 2.18 -29.35 2.74 -28.61 3.3 -27.84 3.82 -27.12 4.36 -26.48 4.86 -25.68 5.34 -24.91 5.8 -24.35 6.29 -23.81 6.77 -23.09 7.18 -22.49 7.63 -22.07 8.11 -21.39 8.47 -20.93 8.94 -20.53 9.4 -20.07 9.83 -19.67 10.28 -19.36 10.78 -18.98 11.22 -18.62 11.71 -18.35 12.21 -18.13 12.77 -17.95 13.37 -17.7 13.91 -17.53 14.52 -17.33 15.14 -17.2 15.81 -17.04 16.48 -856.88 -863.98 39.08 -37.8 40 -36.77 40.89 -35.7 41.77 -34.62 42.64 -33.51 43.45 -32.33 44.31 -31.23 45.15 -30.05 45.94 -28.85 46.64 -27.6 47.3 -26.34 48.05 -25.12 48.69 -23.85 49.29 -22.56 49.95 -21.32 50.55 -20.05 50.91 -18.69 51.53 -17.47 52.01 -16.18 52.33 -14.89 52.83 -13.65 53.33 -12.42 53.62 -11.14 53.88 -9.92 54.28 -8.7 54.6 -7.52 54.91 -6.32 55.19 -5.16 55.48 -4 55.73 -2.87 56 -1.75 56.25 -0.65 0.01 0zm1376.19 399.73l-708.36 989.4 -0.04 -0.03 -13.92 -9.72 -14.13 -9.41 -14.45 -9.13 -14.83 -8.91 -15.1 -8.62 -15.48 -8.38 -15.77 -8.08 -16.23 -7.87 -16.71 -7.65 -17.07 -7.37 -17.59 -7.15 -17.99 -6.87 -18.39 -6.59 -18.98 -6.35 -19.61 -6.12 -20.03 -5.82 -20.51 -5.52 -21.1 -5.23 -21.74 -4.95 -22.23 -4.63 -22.83 -4.3 -23.46 -3.99 -23.98 -3.64 -24.66 -3.3 -25.26 -2.95 -25.76 -2.56 -26.45 -2.19 -27.05 -1.81 -27.67 -1.4 -28.27 -1 -28.88 -0.59 -29.5 -0.16 -2.16 -1216.84 47.28 0.26 47.08 0.95 46.85 1.66 46.63 2.38 46.41 3.09 46.17 3.83 46.02 4.58 45.7 5.33 45.46 6.08 45.32 6.88 44.98 7.65 44.79 8.46 44.55 9.27 44.2 10.07 43.98 10.91 43.75 11.76 43.39 12.6 42.97 13.42 42.76 14.31 42.49 15.21 42.05 16.07 41.63 16.93 41.29 17.83 40.79 18.69 40.45 19.59 40.05 20.54 39.48 21.36 39.04 22.28 38.43 23.11 37.99 24.03 37.45 24.91 36.8 25.72 -0.04 -0.03zm659.27 893.84l-1185.14 275.96 28.02 88.87 -4.55 -11.05 -4.63 -10.74 -4.74 -10.51 -4.88 -10.34 -4.98 -10.08 -5.08 -9.86 -5.18 -9.65 -5.25 -9.37 -5.36 -9.18 -5.51 -9.07 -5.69 -8.99 -5.73 -8.71 -5.77 -8.43 -6.02 -8.45 -6.15 -8.34 -6.23 -8.11 -6.39 -8.02 -6.55 -7.93 -6.71 -7.81 -6.89 -7.74 -7 -7.59 -7.2 -7.52 -7.39 -7.45 -7.53 -7.31 -7.82 -7.32 -8.12 -7.35 -8.28 -7.22 -8.38 -7.06 -8.79 -7.13 -8.97 -7.03 -9.18 -6.93 -9.56 -6.98 708.36 -989.4 26.34 19.2 26.1 19.71 25.67 20.13 25.25 20.49 25.02 21.06 24.5 21.38 24.04 21.73 23.72 22.22 23.39 22.73 22.91 23.07 22.48 23.48 22.06 23.89 21.55 24.22 21.11 24.61 20.65 24.97 20.21 25.36 19.73 25.73 19.21 25.98 18.72 26.33 18.37 26.83 17.77 27.03 17.21 27.19 16.79 27.61 16.32 27.94 15.81 28.23 15.26 28.39 14.76 28.66 14.26 28.92 13.74 29.1 13.28 29.39 12.77 29.62 12.25 29.77 28.02 88.87zm-1083.37 713.01l-101.77 -437.05 1185.14 -275.96 101.77 437.05 -591.49 746.4 -593.65 -470.44z"/>
   <path id="_1" class="fil1" d="M3009.59 5240.7l-1286.36 2.29 205.84 -631.97 123.17 -378.1 -98.29 -477.52 280.41 -81.83 917.8 -2818.37 1336.4 -2.38 1444.49 4382.7 -1308.59 2.32 -156.95 -578.34 -1308.59 2.32 -149.33 578.88zm1227.97 -1494.39l-425.99 -1570.63 -403.68 1572.1 829.67 -1.47zm3198.49 1486.54l-982.79 1.75 -5.48 -3089.71 982.79 -1.74 1.93 1086.67 870 -1.54 -1.93 -1086.67 982.8 -1.75 5.48 3089.71 -982.8 1.74 -2.12 -1198.28 -870 1.54 2.12 1198.28zm3526.8 -1504.12l969.21 -1593.57 982.83 -1.74 5.48 3089.7 -993.55 1.77 7.87 -1609.49 -969.19 1611.19 -988.15 1.75 -5.48 -3089.7 993.51 -1.76 -2.53 1591.85zm3960.16 398.27l-209.03 229.45 1.53 863.49 -1117.1 1.98 -5.46 -3077.94 1117.1 -1.98 1.67 939.81 712.59 -941.08 1304.99 -2.31 -1039.74 1194.23 1179.47 1883.47 -1342.58 2.38 -603.44 -1091.5zm5370.12 -820.11l-1133.21 2.01c-0.12,-66.58 -10.15,-125.37 -29.84,-176.19 -19.69,-50.75 -50.17,-97.28 -88.88,-140.8 -72.37,-81.41 -168.47,-123.07 -290.19,-122.86 -189.77,0.34 -323.19,94.96 -402.31,282.67 -56.23,133.47 -85.36,319.3 -84.94,558.2 0.43,238.86 41.15,426.83 121.86,563.66 80.74,136.82 203.51,205.23 368.24,204.94 132.47,-0.23 233.54,-42.5 303.21,-126.82 69.66,-84.33 113.31,-195.01 130.98,-332.11l1127.82 -2c-45.81,434.75 -220.43,764.5 -524.57,987.75 -267.8,196.61 -613.5,294.81 -1035.98,295.56 -472.62,0.84 -853.98,-133.98 -1144.61,-403.3 -308.11,-285.51 -463.08,-682.5 -463.98,-1191.6 -0.92,-516.9 147.02,-922.52 443.59,-1216.69 296.54,-294.1 683.01,-441.75 1159.23,-442.6 411.73,-0.73 752.66,93.91 1020.93,286.01 193.14,138.28 332.91,318.19 420.88,537.12l101.77 437.05z"/>
  </g>
  <polygon class="fil1 str0" points="1603.42,4807.11 251.16,3068.28 1936.76,2985.42 1814.32,3654.55 1513.07,3661.39 1767.84,3908.55 "/>
  <polygon class="fil2" points="1909.14,4494.75 1004.1,3427.76 2106.43,3416.58 2033.96,3812.6 1855.66,3816.65 2006.45,3962.93 "/>
  <g>
   <path class="fil3" d="M1742.86 4980.74l1286.37 -2.29 0.84 466.48 -1286.37 2.29 -222.19 -305.47 221.35 -161.01zm428.03 -326.5l-205.84 631.97 -443.54 -144.46 205.84 -631.97 0 -0.01 443.54 144.47zm123.17 -378.09l-123.17 378.1 -443.54 -144.48 123.17 -378.1 384.17 -95.16 59.37 239.64zm-618.6 -782.17l559.23 542.53 -324.8 334.8 -559.23 -542.53 157.11 -400.58 167.69 65.78zm584.24 383.76l-741.35 16.82 -10.58 -466.36 741.35 -16.82 227.06 305.4 -216.48 160.96zm1134.29 -2979.33l-917.81 2818.37 -443.54 -144.44 917.81 -2818.37 221.35 -161.02 222.19 305.46zm1115.04 158.64l-1336.39 2.38 -0.84 -466.48 1336.39 -2.38 221.93 160.23 -221.09 306.25zm1222.57 4222.47l-1444.5 -4382.7 443.02 -146.02 1444.5 4382.7 -221.1 306.25 -221.92 -160.23zm-1087.5 -303.93l1308.6 -2.32 0.82 466.48 -1308.6 2.32 -225.5 -172.15 224.68 -294.33zm68.55 -406.19l156.95 578.34 -450.18 122.18 -156.95 -578.34 224.68 -294.33 225.5 172.15zm-1534.09 -169.83l1308.59 -2.32 0.82 466.48 -1308.59 2.32 -226.25 -291.5 225.43 -174.98zm-374.75 753.86l149.32 -578.88 451.68 116.52 -149.32 578.88 -225.42 174.98 -226.26 -291.5zm1252.92 -3067.81l425.99 1570.63 -450.2 122.1 -425.99 -1570.63 -0.81 -119.06 451.01 -3.04zm-854.7 1575.14l403.69 -1572.1 451.82 116.02 -403.69 1572.1 -225.5 175.23 -226.32 -291.25zm1056 289.78l-829.68 1.47 -0.82 -466.48 829.68 -1.47 225.51 172.19 -224.69 294.29zm2214.86 1021.81l982.8 -1.75 0.84 466.48 -982.8 1.75 -233.66 -232.83 232.82 -233.65zm228.18 -2856.88l5.48 3089.71 -466.48 0.82 -5.48 -3089.71 232.83 -233.65 233.65 232.83zm749.97 231.91l-982.8 1.74 -0.82 -466.48 982.8 -1.74 233.65 232.83 -232.83 233.65zm-231.73 853.84l-1.92 -1086.67 466.48 -0.82 1.92 1086.67 -232.83 233.65 -233.65 -232.83zm1103.65 231.29l-870 1.54 -0.82 -466.48 870 -1.54 233.65 232.83 -232.83 233.65zm230.9 -1320.32l1.93 1086.67 -466.48 0.82 -1.93 -1086.67 232.82 -233.65 233.66 232.83zm749.98 231.9l-982.8 1.75 -0.84 -466.48 982.8 -1.75 233.66 232.83 -232.82 233.65zm-228.18 2856.88l-5.48 -3089.71 466.48 -0.82 5.48 3089.71 -232.83 233.65 -233.65 -232.83zm-749.96 -231.91l982.79 -1.74 0.82 466.48 -982.79 1.74 -233.65 -232.83 232.83 -233.65zm231.52 -965.45l2.13 1198.28 -466.48 0.82 -2.13 -1198.28 232.83 -233.65 233.65 232.83zm-1103.65 -231.29l870 -1.54 0.82 466.48 -870 1.54 -233.65 -232.83 232.83 -233.65zm-230.7 1431.93l-2.13 -1198.28 466.48 -0.82 2.13 1198.28 -232.82 233.65 -233.66 -232.83zm4928.52 -2976.9l-969.22 1593.57 -398.54 -242.4 969.22 -1593.57 198.86 -112.04 199.68 354.44zm783.97 110.3l-982.83 1.74 -0.82 -466.48 982.83 -1.74 233.65 232.83 -232.83 233.65zm-228.17 2856.87l-5.48 -3089.7 466.48 -0.82 5.48 3089.7 -232.82 233.65 -233.66 -232.83zm-760.73 -231.88l993.55 -1.77 0.84 466.48 -993.55 1.77 -233.65 -234.38 232.81 -232.1zm241.51 -1375.11l-7.86 1609.49 -466.46 -2.28 7.86 -1609.49 33.37 -119.08 433.09 121.36zm-1402.27 1489.83l969.18 -1611.19 399.72 240.44 -969.18 1611.19 -199.45 113.02 -200.27 -353.46zm-788.71 -111.27l988.16 -1.75 0.82 466.48 -988.16 1.75 -233.65 -232.83 232.83 -233.65zm228.17 -2856.87l5.48 3089.7 -466.48 0.82 -5.48 -3089.7 232.83 -233.65 233.65 232.83zm760.68 231.89l-993.51 1.76 -0.82 -466.48 993.51 -1.76 233.65 233.61 -232.83 232.87zm-236.18 1358.24l2.53 -1591.85 466.48 0.74 -2.53 1591.85 -33.97 120.83 -432.51 -121.57zm3811.96 471.01l209.04 -229.45 344.82 314.16 -209.04 229.45 -405.65 -156.67 60.83 -157.49zm-59.3 1020.98l-1.53 -863.49 466.48 -0.82 1.53 863.49 -232.83 233.65 -233.65 -232.83zm-884.27 -231.67l1117.1 -1.98 0.82 466.48 -1117.1 1.98 -233.65 -232.83 232.83 -233.65zm228.19 -2845.11l5.46 3077.94 -466.48 0.82 -5.46 -3077.94 232.83 -233.65 233.65 232.83zm884.27 231.67l-1117.1 1.98 -0.82 -466.48 1117.1 -1.98 233.65 232.83 -232.83 233.65zm-231.98 706.98l-1.67 -939.81 466.48 -0.82 1.67 939.81 -47.3 141.21 -419.18 -140.39zm1131.77 -800.69l-712.59 941.08 -371.88 -281.6 712.59 -941.08 185.53 -92.44 186.35 374.04zm1119.47 90.13l-1305 2.31 -0.82 -466.48 1305 -2.31 176.32 386.39 -175.5 80.09zm-1216.06 807.84l1039.74 -1194.23 351.82 306.3 -1039.74 1194.23 -373.59 -29.36 21.77 -276.94zm1157.69 2160.41l-1179.46 -1883.47 395.36 -247.58 1179.46 1883.47 -197.27 357.03 -198.09 -109.45zm-1145.31 -354.65l1342.58 -2.38 0.82 466.48 -1342.58 2.38 -204.53 -120.39 203.71 -346.09zm-398.9 -971.11l603.43 1091.5 -408.24 225.7 -603.43 -1091.5 31.71 -269.93 376.53 44.23zm4032.37 -938.49l1133.22 -2.01 0.82 466.48 -1133.22 2.01 -233.65 -232.85 232.83 -233.63zm-246.87 141.41l434.88 -168.72 0.04 0.1 2.93 7.7 2.87 7.89 2.72 7.8 2.6 7.75 2.51 7.85 2.45 8.03 2.34 8.03 2.14 7.73 2.14 8.04 2.04 8.17 1.85 7.79 1.84 8.12 1.73 8.18 1.61 8.04 1.54 8.23 1.42 8.07 1.32 8.07 1.26 8.24 1.17 8.32 1.05 8.14 0.96 8.13 0.9 8.34 0.81 8.35 0.7 8.17 0.64 8.39 0.53 8.39 0.46 8.23 0.37 8.24 0.3 8.44 0.21 8.45 0.13 8.27 0.06 8.47 -466.48 0.78 -0.02 -3.97 -0.07 -4.07 -0.09 -3.81 -0.14 -3.72 -0.17 -3.84 -0.2 -3.75 -0.23 -3.49 -0.26 -3.41 -0.3 -3.53 -0.31 -3.27 -0.34 -3.18 -0.4 -3.31 -0.41 -3.2 -0.41 -2.92 -0.44 -2.9 -0.5 -3.01 -0.5 -2.89 -0.5 -2.65 -0.55 -2.74 -0.53 -2.5 -0.56 -2.48 -0.65 -2.73 -0.56 -2.23 -0.6 -2.28 -0.7 -2.51 -0.6 -2.09 -0.63 -2.03 -0.67 -2.09 -0.7 -2.11 -0.68 -1.96 -0.65 -1.77 -0.71 -1.88 0.04 0.1zm-45.75 -70.2l348.64 -309.92 -0.03 -0.03 5 5.68 4.79 5.53 4.95 5.81 4.96 5.95 4.82 5.89 4.58 5.72 4.7 5.96 4.72 6.12 4.69 6.2 4.61 6.25 4.38 6.04 4.48 6.33 4.39 6.34 4.36 6.44 4.38 6.63 4.2 6.53 4.04 6.41 4.23 6.88 4.08 6.84 3.9 6.7 3.89 6.86 3.85 6.98 3.8 7.12 3.63 6.99 3.69 7.3 3.53 7.26 3.33 7.03 3.45 7.52 3.34 7.59 3.13 7.34 3.1 7.55 3.02 7.64 -434.88 168.72 -0.74 -1.86 -0.78 -1.89 -0.87 -2.04 -0.78 -1.77 -0.81 -1.76 -1.05 -2.23 -0.95 -1.94 -0.93 -1.86 -1.11 -2.13 -1.04 -1.94 -1.13 -2.04 -1.19 -2.12 -1.3 -2.22 -1.22 -2.06 -1.21 -1.96 -1.5 -2.39 -1.44 -2.23 -1.38 -2.09 -1.52 -2.24 -1.59 -2.3 -1.6 -2.25 -1.82 -2.52 -1.67 -2.27 -1.73 -2.28 -1.78 -2.32 -1.92 -2.42 -2.12 -2.64 -2 -2.45 -1.94 -2.33 -2.07 -2.43 -2.33 -2.69 -2.2 -2.5 -0.03 -0.03zm-115.46 -44.58l-0.84 -466.48 0.02 0 16.4 0.15 16.38 0.51 16.36 0.88 16.33 1.26 16.2 1.63 16.26 2.03 16.21 2.43 16.04 2.82 16.11 3.26 15.92 3.66 15.82 4.06 15.72 4.5 15.6 4.92 15.59 5.39 15.24 5.75 15.19 6.21 15.02 6.65 14.74 7.03 14.73 7.54 14.28 7.85 14.11 8.26 13.95 8.72 13.56 9.02 13.3 9.4 13.02 9.75 12.87 10.21 12.5 10.51 12.01 10.67 11.84 11.08 11.53 11.39 11.22 11.67 10.87 11.93 -348.64 309.92 -2.83 -3.11 -2.78 -2.89 -2.73 -2.71 -2.72 -2.54 -2.81 -2.49 -2.6 -2.19 -2.53 -2.01 -2.66 -1.99 -2.66 -1.88 -2.68 -1.78 -2.57 -1.62 -2.71 -1.58 -2.82 -1.55 -2.65 -1.36 -2.94 -1.39 -2.94 -1.31 -3.07 -1.25 -3.3 -1.25 -3.25 -1.13 -3.52 -1.1 -3.7 -1.06 -3.88 -1 -4.08 -0.94 -4.19 -0.84 -4.56 -0.8 -4.67 -0.71 -4.92 -0.61 -5.28 -0.53 -5.45 -0.42 -5.72 -0.3 -5.98 -0.19 -6.28 -0.05 0.02 0zm-187.79 139.98l-429.88 -181.1 0.02 -0.05 10.1 -23.09 10.68 -22.71 11.29 -22.29 11.92 -21.93 12.58 -21.49 13.18 -20.97 13.92 -20.6 14.6 -20.08 15.27 -19.51 16.02 -19 16.71 -18.39 17.43 -17.76 18.12 -17.07 18.85 -16.4 19.52 -15.62 20.07 -14.76 20.75 -13.99 21.34 -13.11 21.85 -12.22 22.35 -11.29 22.77 -10.35 23.19 -9.41 23.5 -8.44 23.87 -7.51 24.05 -6.54 24.23 -5.6 24.45 -4.7 24.66 -3.81 24.8 -2.92 24.82 -2.07 24.9 -1.24 25.02 -0.44 0.84 466.48 -10.24 0.18 -9.68 0.48 -9.12 0.75 -8.48 1 -7.94 1.23 -7.53 1.44 -7.07 1.64 -6.59 1.78 -6.13 1.93 -5.84 2.1 -5.51 2.23 -5.25 2.39 -5.05 2.55 -4.87 2.72 -4.76 2.93 -4.67 3.15 -4.73 3.48 -4.62 3.7 -4.65 4.04 -4.72 4.45 -4.77 4.86 -4.85 5.33 -4.9 5.82 -4.99 6.39 -5.04 6.92 -5.06 7.5 -5.16 8.21 -5.14 8.79 -5.14 9.45 -5.15 10.19 -5.1 10.83 -5.06 11.57 0.02 -0.05zm-66.63 467.24l-466.48 0.82 0 0.01 0.06 -24.09 0.24 -23.77 0.42 -23.51 0.61 -23.26 0.8 -23.06 1.01 -22.81 1.19 -22.45 1.37 -22.26 1.58 -22 1.77 -21.76 1.98 -21.53 2.17 -21.23 2.37 -20.99 2.57 -20.82 2.79 -20.58 2.98 -20.24 3.2 -20.13 3.43 -19.85 3.62 -19.55 3.86 -19.46 4.09 -19.2 4.3 -18.9 4.55 -18.75 4.79 -18.54 5.02 -18.28 5.27 -18.07 5.52 -17.86 5.78 -17.64 6.07 -17.51 6.34 -17.26 6.57 -16.95 6.91 -16.86 429.88 181.1 -3.47 8.48 -3.49 8.99 -3.42 9.3 -3.35 9.67 -3.32 10.14 -3.26 10.54 -3.19 10.95 -3.12 11.36 -3.03 11.72 -2.93 12.11 -2.86 12.58 -2.75 12.9 -2.64 13.26 -2.54 13.77 -2.43 14.11 -2.3 14.43 -2.2 14.96 -2.07 15.22 -1.93 15.6 -1.81 16.05 -1.67 16.43 -1.54 16.75 -1.39 17.14 -1.26 17.5 -1.11 17.88 -0.97 18.31 -0.81 18.57 -0.66 18.94 -0.51 19.36 -0.36 19.73 -0.2 20.09 -0.04 20.39 0 0.01zm89.48 445.53l-401.74 237.08 -0.03 -0.05 -10.18 -17.75 -9.79 -18.01 -9.38 -18.25 -9 -18.51 -8.63 -18.77 -8.25 -19.02 -7.87 -19.25 -7.51 -19.49 -7.13 -19.68 -6.79 -19.93 -6.44 -20.16 -6.09 -20.37 -5.75 -20.55 -5.42 -20.78 -5.09 -21.03 -4.77 -21.2 -4.46 -21.43 -4.14 -21.64 -3.83 -21.84 -3.54 -22.08 -3.23 -22.29 -2.94 -22.48 -2.66 -22.77 -2.35 -22.94 -2.08 -23.14 -1.8 -23.37 -1.52 -23.59 -1.24 -23.81 -0.98 -24.05 -0.71 -24.33 -0.44 -24.5 -0.18 -24.73 466.48 -0.82 0.14 19.75 0.34 19.4 0.55 18.97 0.76 18.65 0.96 18.29 1.16 17.91 1.34 17.53 1.54 17.18 1.73 16.78 1.9 16.33 2.1 16.04 2.27 15.65 2.44 15.24 2.61 14.88 2.78 14.5 2.92 14.09 3.09 13.74 3.23 13.31 3.38 12.94 3.51 12.59 3.65 12.19 3.76 11.78 3.89 11.41 4.01 11.06 4.11 10.67 4.21 10.29 4.31 9.94 4.39 9.57 4.5 9.25 4.58 8.91 4.63 8.53 4.72 8.21 -0.03 -0.05zm166.98 90.24l0.8 466.48 0.01 0 -21.48 -0.24 -21.48 -0.83 -21.34 -1.41 -21.25 -2.01 -21.27 -2.65 -21.16 -3.28 -21 -3.93 -20.84 -4.59 -20.77 -5.27 -20.56 -5.96 -20.36 -6.63 -20.19 -7.37 -19.84 -8.02 -19.69 -8.77 -19.31 -9.44 -18.9 -10.08 -18.64 -10.82 -18.22 -11.46 -17.74 -12.08 -17.37 -12.73 -16.87 -13.34 -16.34 -13.86 -15.85 -14.42 -15.37 -14.98 -14.84 -15.48 -14.26 -15.9 -13.74 -16.34 -13.2 -16.77 -12.7 -17.2 -12.15 -17.56 -11.67 -17.95 -11.13 -18.27 401.74 -237.08 4.25 6.99 4.21 6.49 4.23 6.1 4.16 5.64 4.16 5.27 4.1 4.9 4.08 4.54 3.98 4.16 3.97 3.86 3.97 3.62 3.96 3.36 3.93 3.1 3.93 2.89 4.04 2.74 4.06 2.56 4.14 2.4 4.36 2.32 4.43 2.18 4.57 2.03 4.9 1.98 5.03 1.83 5.36 1.75 5.66 1.64 5.95 1.51 6.34 1.39 6.7 1.25 7.02 1.1 7.41 0.91 7.91 0.75 8.32 0.55 8.68 0.33 9.16 0.1 0.01 0zm123.79 -42.13l359.62 297.1 0 0 -11.04 12.98 -11.45 12.68 -11.84 12.34 -12.21 11.98 -12.64 11.68 -12.96 11.25 -13.22 10.79 -13.67 10.47 -14.01 10.05 -14.18 9.52 -14.5 9.12 -14.77 8.66 -15.05 8.22 -15.22 7.73 -15.48 7.3 -15.68 6.82 -15.64 6.28 -16.08 5.93 -16.08 5.41 -16.16 4.96 -16.41 4.55 -16.4 4.08 -16.59 3.67 -16.55 3.21 -16.52 2.81 -16.81 2.43 -16.85 2.03 -16.72 1.63 -16.94 1.28 -16.91 0.89 -16.95 0.56 -17.08 0.2 -0.8 -466.48 7.58 -0.08 7.33 -0.24 7.01 -0.37 6.6 -0.5 6.48 -0.63 5.95 -0.71 5.65 -0.83 5.54 -0.93 5.17 -1.01 4.75 -1.05 4.58 -1.14 4.19 -1.15 4.08 -1.26 3.8 -1.27 3.42 -1.27 3.48 -1.4 3.1 -1.34 2.92 -1.38 2.8 -1.41 2.61 -1.44 2.53 -1.48 2.42 -1.52 2.38 -1.6 2.19 -1.57 2.15 -1.65 2.22 -1.81 2.14 -1.85 2.08 -1.92 2.13 -2.1 2.14 -2.24 2.17 -2.4 2.2 -2.58 0 0zm310.38 -416.8l0.82 466.48 230.91 -203.43 -2.15 15.88 -2.35 15.73 -2.55 15.61 -2.79 15.69 -2.98 15.42 -3.16 15.24 -3.41 15.32 -3.65 15.21 -3.86 15.12 -4.08 14.92 -4.28 14.79 -4.57 14.83 -4.76 14.59 -4.98 14.47 -5.27 14.5 -5.52 14.34 -5.71 14.1 -5.97 14.02 -6.25 13.97 -6.51 13.84 -6.72 13.62 -6.98 13.47 -7.27 13.41 -7.51 13.22 -7.77 13.07 -8 12.85 -8.21 12.65 -8.56 12.59 -8.81 12.42 -9.02 12.15 -9.31 12.04 -9.53 11.77 -359.62 -297.1 3.39 -4.19 3.29 -4.24 3.28 -4.43 3.19 -4.48 3.12 -4.61 3.17 -4.87 3.08 -4.95 3.01 -5.07 2.97 -5.22 2.89 -5.33 2.88 -5.59 2.84 -5.74 2.75 -5.84 2.69 -6.01 2.67 -6.28 2.63 -6.5 2.52 -6.56 2.45 -6.72 2.44 -7.07 2.36 -7.23 2.25 -7.33 2.22 -7.67 2.14 -7.84 2.04 -7.96 1.95 -8.17 1.87 -8.38 1.82 -8.76 1.72 -8.9 1.59 -8.93 1.51 -9.31 1.43 -9.51 1.31 -9.68 230.91 -203.43zm1128.64 464.48l-1127.82 2 -0.82 -466.48 1127.82 -2 232.36 257.68 -231.54 208.8zm-386.95 942.52l-276.06 -376.02 0.02 -0.01 23.08 -17.43 22.39 -17.88 21.69 -18.33 21 -18.77 20.32 -19.2 19.65 -19.67 19.04 -20.17 18.38 -20.61 17.76 -21.12 17.18 -21.63 16.56 -22.15 15.98 -22.66 15.38 -23.22 14.84 -23.79 14.23 -24.32 13.66 -24.91 13.11 -25.54 12.54 -26.15 11.98 -26.8 11.39 -27.38 10.82 -28.08 10.25 -28.74 9.66 -29.38 9.07 -30.1 8.49 -30.77 7.88 -31.49 7.28 -32.2 6.66 -32.89 6.04 -33.62 5.41 -34.34 4.78 -35.05 4.13 -35.78 463.9 48.88 -5.21 45.12 -6.08 44.61 -6.95 44.1 -7.84 43.6 -8.72 43.07 -9.62 42.54 -10.52 42.03 -11.43 41.49 -12.35 40.94 -13.28 40.42 -14.21 39.82 -15.14 39.26 -16.09 38.7 -17.02 38.06 -17.96 37.47 -18.91 36.84 -19.86 36.23 -20.83 35.58 -21.72 34.85 -22.68 34.2 -23.62 33.52 -24.54 32.79 -25.44 32.05 -26.36 31.34 -27.28 30.59 -28.12 29.79 -29.03 29.05 -29.88 28.26 -30.72 27.45 -31.55 26.65 -32.37 25.86 -33.18 25.05 0.02 -0.01zm-1173.59 340.79l-0.82 -466.48 0 0 35.98 -0.32 35.45 -0.84 34.91 -1.36 34.4 -1.87 33.84 -2.38 33.35 -2.89 32.82 -3.39 32.25 -3.88 31.78 -4.38 31.21 -4.86 30.7 -5.35 30.2 -5.83 29.68 -6.31 29.15 -6.78 28.62 -7.24 28.13 -7.71 27.62 -8.18 27.15 -8.64 26.63 -9.09 26.14 -9.54 25.67 -9.99 25.2 -10.44 24.72 -10.89 24.28 -11.34 23.8 -11.78 23.36 -12.23 22.96 -12.68 22.46 -13.1 22.07 -13.57 21.69 -14.04 21.28 -14.5 20.85 -14.93 276.06 376.02 -29.81 21.35 -30.32 20.64 -30.79 19.94 -31.33 19.27 -31.86 18.58 -32.28 17.84 -32.76 17.15 -33.26 16.44 -33.68 15.74 -34.14 15.03 -34.58 14.34 -35.01 13.63 -35.44 12.94 -35.87 12.23 -36.25 11.54 -36.7 10.86 -37.09 10.17 -37.5 9.5 -37.89 8.8 -38.24 8.13 -38.64 7.47 -39.06 6.81 -39.43 6.14 -39.78 5.48 -40.19 4.84 -40.54 4.17 -40.91 3.55 -41.32 2.9 -41.66 2.27 -42.07 1.64 -42.41 1 -42.78 0.4 0 0zm-1303.56 -465.46l317.06 -342.16 0 0 23.11 20.88 23.54 20.2 23.93 19.5 24.33 18.8 24.77 18.13 25.19 17.46 25.65 16.81 26.13 16.16 26.55 15.51 27.01 14.84 27.54 14.23 28.03 13.58 28.52 12.94 29.08 12.32 29.59 11.68 30.14 11.05 30.66 10.39 31.24 9.76 31.84 9.12 32.42 8.48 32.99 7.82 33.57 7.17 34.2 6.5 34.81 5.84 35.4 5.16 36.03 4.48 36.68 3.81 37.28 3.11 37.91 2.41 38.54 1.72 39.18 0.99 39.82 0.29 0.82 466.48 -48.26 -0.35 -47.84 -1.23 -47.4 -2.1 -46.97 -2.99 -46.52 -3.89 -46.06 -4.77 -45.65 -5.68 -45.2 -6.6 -44.71 -7.5 -44.28 -8.42 -43.83 -9.35 -43.33 -10.28 -42.84 -11.2 -42.36 -12.14 -41.9 -13.08 -41.4 -14.05 -40.86 -14.97 -40.33 -15.92 -39.8 -16.86 -39.28 -17.82 -38.69 -18.76 -38.14 -19.69 -37.59 -20.66 -36.99 -21.59 -36.33 -22.5 -35.77 -23.43 -35.15 -24.36 -34.51 -25.27 -33.89 -26.18 -33.21 -27.06 -32.56 -27.94 -31.91 -28.82 0 0zm-538.69 -1362.26l466.48 -0.84 0 0.01 0.48 42.93 1.29 42.16 2.1 41.33 2.91 40.6 3.68 39.83 4.47 39.04 5.24 38.3 6.01 37.52 6.76 36.79 7.5 36 8.26 35.27 8.99 34.56 9.72 33.82 10.43 33.12 11.15 32.38 11.88 31.74 12.58 31.04 13.28 30.36 14.01 29.76 14.7 29.09 15.41 28.47 16.15 27.92 16.84 27.29 17.56 26.71 18.32 26.18 19.07 25.66 19.78 25.09 20.56 24.58 21.34 24.09 22.13 23.59 22.92 23.09 23.75 22.62 -317.06 342.16 -33.13 -31.56 -32.16 -32.41 -31.15 -33.21 -30.14 -34.01 -29.14 -34.84 -28.1 -35.63 -27.03 -36.38 -25.98 -37.14 -24.96 -37.95 -23.86 -38.67 -22.75 -39.34 -21.71 -40.09 -20.6 -40.79 -19.51 -41.44 -18.44 -42.14 -17.32 -42.76 -16.24 -43.38 -15.17 -44.06 -14.07 -44.62 -13 -45.24 -11.91 -45.8 -10.86 -46.39 -9.8 -47 -8.74 -47.51 -7.69 -48.08 -6.66 -48.62 -5.63 -49.2 -4.6 -49.71 -3.59 -50.26 -2.58 -50.85 -1.57 -51.32 -0.6 -51.87 0 0.01zm512.6 -1382.71l328.48 331.2 0.01 -0.01 -22.87 23.32 -22.08 23.79 -21.32 24.31 -20.6 24.85 -19.85 25.36 -19.12 25.88 -18.39 26.45 -17.71 27.03 -16.99 27.59 -16.3 28.2 -15.59 28.77 -14.91 29.42 -14.23 30.07 -13.53 30.68 -12.84 31.36 -12.16 32.05 -11.46 32.74 -10.76 33.4 -10.05 34.15 -9.36 34.85 -8.63 35.56 -7.92 36.31 -7.18 37.05 -6.45 37.8 -5.72 38.56 -4.95 39.29 -4.21 40.07 -3.44 40.82 -2.67 41.6 -1.9 42.37 -1.11 43.1 -0.31 43.88 -466.48 0.84 0.39 -52.38 1.33 -51.86 2.3 -51.29 3.25 -50.76 4.24 -50.24 5.21 -49.67 6.21 -49.15 7.2 -48.58 8.19 -48.02 9.22 -47.49 10.22 -46.91 11.25 -46.36 12.28 -45.75 13.31 -45.17 14.36 -44.6 15.4 -43.96 16.44 -43.35 17.5 -42.72 18.55 -42.1 19.61 -41.41 20.65 -40.76 21.73 -40.09 22.76 -39.36 23.81 -38.67 24.83 -37.91 25.89 -37.21 26.92 -36.46 27.91 -35.66 28.92 -34.89 29.92 -34.11 30.92 -33.33 31.87 -32.48 0.01 -0.01zm1323.05 -510.24l0.82 466.48 0.01 0 -39.83 0.45 -39.21 1.23 -38.57 1.98 -37.95 2.74 -37.33 3.49 -36.72 4.23 -36.08 4.96 -35.5 5.7 -34.92 6.42 -34.29 7.13 -33.69 7.84 -33.12 8.56 -32.6 9.27 -32.01 9.96 -31.46 10.66 -30.94 11.37 -30.37 12.04 -29.89 12.76 -29.41 13.46 -28.89 14.15 -28.4 14.85 -27.99 15.58 -27.5 16.27 -27.05 17 -26.61 17.71 -26.2 18.46 -25.82 19.21 -25.39 19.96 -25.01 20.73 -24.59 21.47 -24.21 22.25 -23.85 23.07 -328.48 -331.2 32.27 -31.21 32.97 -30.33 33.65 -29.37 34.29 -28.41 34.95 -27.46 35.58 -26.49 36.24 -25.54 36.89 -24.55 37.51 -23.56 38.12 -22.55 38.67 -21.54 39.3 -20.55 39.89 -19.53 40.41 -18.5 40.99 -17.5 41.55 -16.48 42.04 -15.43 42.58 -14.44 43.07 -13.4 43.54 -12.39 44.06 -11.38 44.57 -10.38 44.99 -9.35 45.44 -8.36 45.9 -7.36 46.36 -6.38 46.8 -5.39 47.23 -4.41 47.65 -3.44 48.09 -2.48 48.51 -1.51 48.93 -0.57 0.01 0zm1157.12 329.61l-271.56 379.28 -0.01 -0.01 -20.97 -14.65 -21.32 -14.19 -21.71 -13.72 -22.11 -13.3 -22.48 -12.83 -22.88 -12.38 -23.25 -11.92 -23.7 -11.48 -24.14 -11.06 -24.54 -10.59 -25 -10.17 -25.4 -9.71 -25.83 -9.24 -26.31 -8.81 -26.81 -8.37 -27.24 -7.91 -27.67 -7.44 -28.15 -6.98 -28.67 -6.53 -29.11 -6.06 -29.6 -5.59 -30.1 -5.11 -30.56 -4.64 -31.07 -4.16 -31.56 -3.68 -32.01 -3.19 -32.53 -2.69 -33.02 -2.21 -33.51 -1.7 -34 -1.2 -34.49 -0.7 -34.99 -0.19 -0.82 -466.48 41.79 0.23 41.47 0.84 41.12 1.46 40.79 2.08 40.44 2.69 40.09 3.33 39.77 3.95 39.4 4.6 39.05 5.22 38.74 5.88 38.34 6.53 38.02 7.17 37.67 7.84 37.27 8.49 36.93 9.16 36.59 9.84 36.18 10.51 35.77 11.17 35.43 11.85 35.05 12.56 34.64 13.23 34.22 13.91 33.82 14.61 33.36 15.28 32.98 15.98 32.57 16.7 32.08 17.36 31.66 18.07 31.15 18.72 30.73 19.44 30.26 20.13 29.75 20.79 -0.01 -0.01zm512.26 673.86l-454.32 105.8 10.74 34.06 -6.92 -16.82 -7.14 -16.56 -7.38 -16.33 -7.61 -16.13 -7.84 -15.89 -8.06 -15.65 -8.29 -15.43 -8.51 -15.18 -8.74 -14.97 -8.99 -14.79 -9.24 -14.6 -9.44 -14.36 -9.65 -14.1 -9.94 -13.96 -10.18 -13.78 -10.39 -13.54 -10.65 -13.37 -10.9 -13.18 -11.15 -12.99 -11.4 -12.83 -11.65 -12.61 -11.91 -12.44 -12.18 -12.27 -12.42 -12.06 -12.72 -11.92 -13.03 -11.78 -13.28 -11.59 -13.51 -11.37 -13.87 -11.25 -14.11 -11.07 -14.4 -10.87 -14.74 -10.75 271.56 -379.28 21.16 15.43 20.88 15.77 20.53 16.09 20.17 16.37 19.89 16.75 19.5 17.01 19.13 17.3 18.82 17.62 18.5 17.98 18.12 18.25 17.77 18.56 17.41 18.87 17.04 19.13 16.67 19.43 16.3 19.72 15.95 20.01 15.57 20.3 15.18 20.54 14.8 20.82 14.49 21.16 14.06 21.38 13.66 21.58 13.31 21.89 12.94 22.15 12.55 22.42 12.15 22.61 11.78 22.87 11.4 23.11 11.01 23.31 10.64 23.57 10.26 23.8 9.88 24 10.74 34.06zm-352.54 542.85l-101.78 -437.05 454.32 -105.8 101.78 437.05 -226.75 286.14 -227.57 -180.34z"/>
   <path id="_1_0" class="fil4" d="M3029.65 5211.69l-1286.37 2.29 205.84 -631.97 123.17 -378.1 -559.23 -542.53 741.35 -16.82 917.81 -2818.37 1336.39 -2.38 1444.5 4382.7 -1308.6 2.32 -156.95 -578.34 -1308.59 2.32 -149.32 578.88zm1227.97 -1494.39l-425.99 -1570.63 -403.69 1572.1 829.68 -1.47zm3198.49 1486.54l-982.8 1.75 -5.48 -3089.71 982.8 -1.74 1.92 1086.67 870 -1.54 -1.93 -1086.67 982.8 -1.75 5.48 3089.71 -982.79 1.74 -2.13 -1198.28 -870 1.54 2.13 1198.28zm3526.79 -1504.12l969.22 -1593.57 982.83 -1.74 5.48 3089.7 -993.55 1.77 7.86 -1609.49 -969.18 1611.19 -988.16 1.75 -5.48 -3089.7 993.51 -1.76 -2.53 1591.85zm3960.17 398.27l-209.04 229.45 1.53 863.49 -1117.1 1.98 -5.46 -3077.94 1117.1 -1.98 1.67 939.81 712.59 -941.08 1305 -2.31 -1039.74 1194.23 1179.46 1883.47 -1342.58 2.38 -603.43 -1091.5zm5370.12 -820.11l-1133.22 2.01c-0.11,-66.58 -10.15,-125.37 -29.84,-176.19 -19.69,-50.75 -50.17,-97.28 -88.87,-140.8 -72.37,-81.41 -168.48,-123.07 -290.2,-122.86 -189.77,0.34 -323.18,94.96 -402.31,282.67 -56.23,133.47 -85.36,319.3 -84.93,558.2 0.42,238.86 41.15,426.83 121.85,563.66 80.74,136.82 203.51,205.23 368.25,204.94 132.47,-0.23 233.54,-42.5 303.2,-126.82 69.67,-84.33 113.31,-195.01 130.98,-332.11l1127.82 -2c-45.81,434.75 -220.42,764.5 -524.57,987.75 -267.8,196.61 -613.49,294.81 -1035.97,295.56 -472.63,0.84 -853.99,-133.98 -1144.62,-403.3 -308.11,-285.51 -463.08,-682.5 -463.98,-1191.6 -0.92,-516.9 147.02,-922.52 443.6,-1216.69 296.54,-294.1 683,-441.75 1159.22,-442.6 411.73,-0.73 752.66,93.91 1020.93,286.01 193.14,138.28 332.91,318.19 420.88,537.12l101.78 437.05z"/>
  </g>
 </g>
</svg>
