<?xml version="1.0" encoding="UTF-8"?>
<!DOCTYPE svg PUBLIC "-//W3C//DTD SVG 1.1//EN" "http://www.w3.org/Graphics/SVG/1.1/DTD/svg11.dtd">
<!-- Creator: CorelDRAW 2021.5 -->
<svg xmlns="http://www.w3.org/2000/svg" xml:space="preserve" width="210mm" height="297mm" version="1.1" style="shape-rendering:geometricPrecision; text-rendering:geometricPrecision; image-rendering:optimizeQuality; fill-rule:evenodd; clip-rule:evenodd"
viewBox="0 0 21000 29700"
 xmlns:xlink="http://www.w3.org/1999/xlink"
 xmlns:xodm="http://www.corel.com/coreldraw/odm/2003">
 <defs>
  <style type="text/css">
   <![CDATA[
    .fil2 {fill:#FEFEFE}
    .fil1 {fill:#FFED00}
    .fil3 {fill:#E31E24}
    .fil0 {fill:#E31E24;fill-rule:nonzero}
    .fil4 {fill:#FFED00;fill-opacity:0.949020}
   ]]>
  </style>
 </defs>
 <g id="Слой_x0020_1">
  <metadata id="CorelCorpID_0Corel-Layer"/>
  <path class="fil0" d="M2349.16 6269.98c0,35.62 -9.77,67.36 -29.3,95.22 -19.53,27.87 -46.25,50.99 -80.14,69.37 21.83,14.94 39.21,33.18 52.13,54.73 12.93,21.54 19.39,45.24 19.39,71.09 0,31.02 -9.33,61.62 -28,91.78 -18.68,30.16 -43.52,56.87 -74.55,80.14 -31.02,23.27 -66.35,42.08 -105.99,56.45 -39.64,14.36 -80.15,21.54 -121.51,21.54 -44.81,0 -84.02,-8.47 -117.63,-25.42 -33.61,-16.95 -59.89,-40.94 -78.85,-71.96 5.75,-17.23 13.36,-38.63 22.84,-64.2 9.48,-25.56 19.96,-52.57 31.45,-81 11.49,-28.44 23.13,-56.74 34.9,-84.89 11.78,-28.15 22.84,-53.43 33.18,-75.83 21.83,-48.84 41.36,-89.34 58.6,-121.51 17.23,-32.17 33.03,-57.74 47.4,-76.7 -31.6,9.77 -60.33,20.83 -86.18,33.18 -25.85,12.35 -44.81,24.27 -56.88,35.76 -5.17,-3.44 -10.48,-8.61 -15.94,-15.51 -5.46,-6.89 -10.63,-14.5 -15.51,-22.83 -4.88,-8.33 -8.9,-16.81 -12.06,-25.43 -3.16,-8.61 -5.03,-16.37 -5.61,-23.26 14.94,-10.34 34.33,-20.25 58.17,-29.73 23.84,-9.48 49.84,-17.67 77.99,-24.56 28.15,-6.9 57.02,-12.36 86.61,-16.38 29.59,-4.02 57.88,-6.03 84.88,-6.03 68.94,0 122.95,13.79 162.01,41.37 39.07,27.57 58.6,65.78 58.6,114.61zm-328.33 205.96c-10.91,-5.17 -20.97,-12.93 -30.16,-23.27 -13.21,29.3 -25.71,58.03 -37.49,86.18 -11.77,28.15 -22.26,54.29 -31.45,78.42 -9.19,24.13 -16.66,45.1 -22.41,62.9 -5.74,17.81 -8.9,30.74 -9.48,38.78 8.05,4.6 17.67,8.05 28.87,10.34 11.21,2.3 25.14,3.45 41.8,3.45 39.06,0 76.41,-5.46 112.03,-16.37 35.62,-10.92 66.93,-25.71 93.93,-44.38 27,-18.67 48.54,-40.07 64.63,-64.2 16.09,-24.13 24.13,-49.41 24.13,-75.84 0,-37.91 -16.37,-65.2 -49.12,-81.86 -44.81,18.38 -95.37,27.57 -151.67,27.57 -8.04,0 -14.22,0 -18.53,0 -4.31,0 -9.33,-0.57 -15.08,-1.72zm167.18 -299.03c-12.06,0 -24.85,0.72 -38.35,2.15 -13.5,1.44 -27.72,3.59 -42.65,6.47 2.3,2.29 4.16,4.74 5.6,7.32 1.43,2.59 2.73,5.32 3.88,8.19 -5.17,6.89 -11.49,16.95 -18.96,30.16 -7.47,13.21 -15.8,28.58 -24.99,46.1 -9.2,17.53 -18.82,36.91 -28.87,58.17 -10.06,21.26 -20.25,43.09 -30.59,65.5 9.76,-2.3 21.68,-4.17 35.76,-5.61 14.07,-1.43 28.01,-2.15 41.79,-2.15 7.47,0 14.8,0.29 21.98,0.86 7.18,0.58 14.22,1.44 21.11,2.59 27.58,-4.6 52.42,-11.35 74.54,-20.25 22.12,-8.91 41.22,-19.25 57.31,-31.03 16.09,-11.78 28.44,-24.85 37.06,-39.21 8.61,-14.36 12.92,-29.58 12.92,-45.67 0,-27.58 -10.91,-48.4 -32.74,-62.48 -21.84,-14.07 -53.43,-21.11 -94.8,-21.11zm407.61 356.33c26.43,-44.52 41.51,-71.52 45.25,-81 3.73,-9.48 8.33,-19.39 13.78,-29.73 5.46,-10.34 11.78,-20.83 18.96,-31.45 7.18,-10.63 15.66,-20.54 25.42,-29.74 7.47,0 15.52,0.87 24.13,2.59 8.62,1.72 16.81,3.88 24.56,6.46 7.76,2.59 14.51,5.46 20.26,8.62 5.74,3.16 10.05,6.46 12.92,9.91 -10.34,25.28 -21.83,50.27 -34.47,74.97 -12.64,24.71 -24.42,48.84 -35.33,72.39 -1.15,2.87 -2.87,5.75 -5.17,8.62 -2.3,5.74 -4.6,11.49 -6.9,17.23 -2.87,6.32 -6.31,15.52 -10.34,27.58 -4.02,12.06 -8.04,24.7 -12.06,37.92 -4.02,13.21 -7.33,26.14 -9.91,38.78 -2.59,12.63 -3.88,22.69 -3.88,30.16 0,4.59 0.72,8.04 2.16,10.34 1.43,2.3 2.72,4.02 3.87,5.17 8.62,-3.45 19.54,-12.93 32.75,-28.44 13.21,-15.51 31.6,-39.35 55.15,-71.52 5.75,-8.05 12.5,-17.24 20.25,-27.58 7.76,-10.34 15.66,-21.4 23.7,-33.18 8.05,-11.78 15.66,-23.98 22.84,-36.62 7.18,-12.64 13.07,-25.28 17.66,-37.92 2.3,-6.89 5.32,-15.08 9.05,-24.56 3.74,-9.48 8.33,-19.39 13.79,-29.73 5.46,-10.34 11.78,-20.83 18.96,-31.45 7.18,-10.63 15.65,-20.54 25.42,-29.74 7.47,0 15.51,0.87 24.13,2.59 8.62,1.72 16.8,3.88 24.56,6.46 7.76,2.59 14.51,5.46 20.25,8.62 5.75,3.16 10.06,6.46 12.93,9.91 -10.34,25.28 -21.83,50.27 -34.47,74.97 -12.64,24.71 -24.42,48.98 -35.33,72.82 -10.92,23.84 -20.11,47.54 -27.58,71.1 -7.47,23.55 -11.2,46.53 -11.2,68.94 0,12.06 1,22.55 3.01,31.45 2.01,8.91 4.17,16.37 6.47,22.41 2.29,6.03 4.45,11.06 6.46,15.08 2.01,4.02 3.02,7.47 3.02,10.34 0,0.57 -0.58,1.44 -1.73,2.58 -0.57,0.58 -1.15,0.87 -1.72,0.87 -4.02,0 -9.19,-0.87 -15.51,-2.59 -6.32,-1.72 -13.36,-4.16 -21.12,-7.32 -7.75,-3.16 -15.51,-6.75 -23.26,-10.78 -7.76,-4.02 -15.08,-8.33 -21.98,-12.92 -10.91,-9.19 -18.24,-20.69 -21.97,-34.47 -3.74,-13.79 -5.6,-25.57 -5.6,-35.34 0,-12.06 1.43,-22.4 4.3,-31.02 -2.29,0 -7.46,4.6 -15.51,13.79 -8.04,9.19 -16.8,20.11 -26.28,32.75 -9.48,12.64 -18.82,24.99 -28.01,37.05 -9.19,12.07 -16.08,20.97 -20.68,26.72 -7.47,8.04 -14.51,14.36 -21.11,18.96 -6.61,4.59 -11.92,7.18 -15.95,7.75 -9.19,-0.57 -18.81,-2.44 -28.86,-5.6 -10.06,-3.16 -19.54,-7.61 -28.44,-13.36 -8.91,-5.74 -16.66,-12.64 -23.27,-20.68 -6.61,-8.04 -11.06,-17.24 -13.36,-27.58 0,-16.08 0.58,-29.29 1.73,-39.64 0.57,-8.04 1.72,-16.66 3.44,-25.85 -2.29,2.3 -5.17,5.46 -8.61,9.48 -8.05,9.19 -16.81,20.11 -26.29,32.75 -9.48,12.64 -18.81,24.99 -28.01,37.05 -9.19,12.07 -16.08,20.97 -20.68,26.72 -7.47,8.04 -14.5,14.36 -21.11,18.96 -6.61,4.59 -11.92,7.18 -15.94,7.75 -9.19,-0.57 -18.82,-2.44 -28.87,-5.6 -10.06,-3.16 -19.53,-7.61 -28.44,-13.36 -8.9,-5.74 -16.66,-12.64 -23.27,-20.68 -6.6,-8.04 -11.06,-17.24 -13.35,-27.58 0,-16.08 0.43,-29.29 1.29,-39.64 0.86,-10.34 2.73,-21.54 5.6,-33.6 5.17,-21.84 14.65,-44.53 28.44,-68.08 13.79,-23.56 29.87,-41.94 48.26,-55.16 5.17,0 11.2,0.44 18.09,1.3 6.9,0.86 13.94,2.44 21.12,4.74 7.18,2.29 14.07,5.02 20.68,8.18 6.6,3.16 12.21,7.33 16.8,12.5 -5.17,5.74 -17.81,33.89 -37.92,84.45 -20.1,50.56 -30.16,79.57 -30.16,87.04 0,4.59 0.72,8.04 2.16,10.34 1.43,2.3 2.73,4.02 3.88,5.17 8.61,-3.45 19.53,-12.93 32.74,-28.44 13.22,-15.51 31.6,-39.35 55.16,-71.52 5.74,-8.05 21.83,-34.33 48.25,-78.86zm721.29 -145.2c-2.29,35.62 -8.61,66.21 -18.95,91.78 -10.35,25.56 -25.14,47.97 -44.39,67.21 -19.24,19.25 -42.65,36.63 -70.23,52.14 -27.57,15.51 -59.75,30.45 -96.52,44.81 0,3.45 -0.14,7.04 -0.43,10.77 -0.28,3.74 -0.43,7.62 -0.43,11.64 0,7.46 0.58,15.22 1.73,23.26 1.15,8.05 3.16,15.51 6.03,22.41 2.87,6.89 6.89,12.49 12.06,16.8 5.17,4.31 11.78,6.47 19.82,6.47 15.51,0 30.74,-3.45 45.68,-10.34 14.93,-6.9 29.15,-15.37 42.65,-25.43 13.51,-10.05 26.14,-20.97 37.92,-32.74 11.78,-11.78 22.26,-22.55 31.45,-32.32 5.75,5.17 10.63,10.06 14.66,14.65 -25.86,34.47 -54.15,63.05 -84.89,85.75 -30.73,22.69 -59.89,37.19 -87.47,43.51 -39.64,-4.59 -70.52,-19.1 -92.63,-43.51 -22.12,-24.42 -33.18,-53.86 -33.18,-88.33 0,-23.56 3.3,-47.54 9.91,-71.96 6.6,-24.42 15.8,-47.97 27.57,-70.66 11.78,-22.7 25.57,-44.1 41.37,-64.21 15.8,-20.1 32.74,-37.63 50.84,-52.56 18.1,-14.94 36.77,-26.72 56.02,-35.33 19.24,-8.62 38.34,-12.93 57.3,-12.93 26.43,3.45 51.13,19.82 74.11,49.12zm-59.46 28.44c-15.51,2.3 -31.59,8.62 -48.26,18.96 -16.66,10.34 -32.31,24.12 -46.96,41.36 -14.65,17.24 -28.01,37.34 -40.07,60.32 -12.07,22.98 -21.55,47.69 -28.44,74.11 45.96,-22.98 84.16,-51.27 114.61,-84.88 30.45,-33.61 46.82,-70.23 49.12,-109.87zm104.27 176.66c0,-32.75 6.76,-64.49 20.26,-95.23 13.5,-30.73 31.31,-58.02 53.43,-81.86 22.11,-23.85 47.39,-43.09 75.83,-57.74 28.44,-14.65 57.88,-21.98 88.33,-21.98 29.87,0 52.85,7.47 68.94,22.41 16.09,14.94 24.13,36.19 24.13,63.77 0,13.21 -1.87,26 -5.6,38.35 -3.74,12.35 -8.62,23.41 -14.65,33.18 -6.04,9.76 -13.07,17.66 -21.12,23.69 -8.04,6.04 -16.08,9.05 -24.12,9.05 -6.9,0 -13.94,-2.15 -21.12,-6.46 -7.18,-4.31 -13.07,-9.91 -17.66,-16.81 38.49,-35.04 57.73,-66.93 57.73,-95.65 0,-16.66 -6.6,-24.99 -19.82,-24.99 -11.49,0 -25.85,5.46 -43.08,16.37 -17.24,10.92 -33.9,25.28 -49.99,43.09 -24.7,27.58 -43.51,58.17 -56.44,91.78 -12.93,33.61 -19.39,68.79 -19.39,105.56 0,46.54 10.34,74.4 31.02,83.59 8.62,-1.15 18.67,-3.73 30.16,-7.75 11.49,-4.02 23.85,-9.34 37.06,-15.95 13.21,-6.6 26.86,-14.21 40.93,-22.83 14.08,-8.62 27.72,-17.81 40.94,-27.58 2.29,1.72 4.3,4.31 6.03,7.76 1.72,3.44 2.58,6.6 2.58,9.48 -9.76,12.06 -20.97,23.84 -33.6,35.33 -12.64,11.49 -25.86,21.97 -39.65,31.45 -13.78,9.48 -27.14,17.52 -40.07,24.13 -12.92,6.61 -24.27,10.77 -34.04,12.5 -18.96,-1.73 -36.76,-7.61 -53.43,-17.67 -16.66,-10.05 -31.16,-23.12 -43.51,-39.21 -12.36,-16.08 -22.12,-34.47 -29.3,-55.15 -7.18,-20.68 -10.78,-42.23 -10.78,-64.63zm854.87 -112.46c-9.2,0 -20.4,5.6 -33.61,16.8 -13.22,11.2 -27.44,25.57 -42.66,43.23 -15.22,17.53 -31.02,36.92 -47.39,58.17 -16.38,21.26 -32.18,42.52 -47.4,63.49 -15.23,20.96 -29.45,40.64 -42.66,59.17 -13.21,18.38 -24.42,33.03 -33.61,43.95 -12.64,-5.17 -23.55,-12.78 -32.74,-22.84 -9.2,-10.05 -15.8,-22.55 -19.82,-37.49 2.87,-17.8 6.89,-36.33 12.06,-55.43 5.17,-19.25 11.92,-39.21 20.25,-59.9 8.33,-20.53 18.67,-42.22 31.02,-64.92 12.36,-22.69 27.44,-46.53 45.25,-71.81 -8.62,0 -20.4,5.89 -35.34,17.67 -14.93,11.77 -31.02,27 -48.25,45.81 -17.24,18.68 -35.05,39.64 -53.43,62.91 -18.39,23.27 -35.62,46.25 -51.71,68.66 -21.26,29.87 -38.92,56.01 -53,78.56 -14.07,22.4 -24.27,35.62 -30.59,39.64 -14.94,-10.92 -25.28,-22.69 -31.02,-35.33 -5.75,-12.64 -10.06,-26.72 -12.93,-42.23 0.58,-13.79 2.73,-31.02 6.46,-51.7 3.74,-20.68 9.05,-41.94 15.95,-63.77 13.21,-41.94 30.3,-83.59 51.27,-124.96 20.97,-41.36 41.22,-79.28 60.76,-113.75 16.08,3.45 30.59,8.9 43.51,16.37 12.93,7.47 26.58,18.39 40.94,32.75 -5.75,17.81 -14.65,36.63 -26.72,56.45 -12.06,19.82 -24.7,40.64 -37.91,62.47 -13.22,21.83 -25.28,44.24 -36.2,67.22 -10.91,22.98 -18.09,46.25 -21.54,69.8 16.09,-22.98 35.19,-49.4 57.3,-79.28 22.12,-29.87 44.82,-58.02 68.08,-84.45 23.27,-26.43 46.4,-48.83 69.38,-67.22 22.98,-18.38 43.66,-27.57 62.04,-27.57 6.9,0 14.36,1.14 22.41,3.44 8.04,2.3 15.51,5.17 22.4,8.62 6.9,3.45 12.64,6.75 17.24,9.91 4.59,3.16 7.18,5.6 7.75,7.32 -2.87,11.5 -9.62,27.15 -20.25,46.97 -10.63,19.82 -21.97,40.65 -34.04,62.48 -12.06,21.83 -23.26,42.94 -33.6,63.34 -10.35,20.39 -16.38,36.62 -18.1,48.69 28.15,-38.5 54.58,-73.4 79.28,-104.71 24.7,-31.31 47.97,-58.17 69.8,-80.57 21.83,-22.41 42.08,-39.64 60.76,-51.71 18.67,-12.06 36.33,-18.09 52.99,-18.09 11.49,0 22.27,3.01 32.32,9.04 10.05,6.04 17.09,14.8 21.11,26.29 -5.17,17.23 -13.64,37.92 -25.42,62.05 -11.78,24.12 -23.7,49.55 -35.76,76.26 -12.07,26.71 -22.84,53 -32.32,78.85 -9.48,25.85 -14.22,49.12 -14.22,69.8 0,12.07 1.73,19.97 5.17,23.7 3.45,3.74 8.33,5.6 14.65,5.6 6.9,0 13.36,-1.29 19.39,-3.88 6.04,-2.58 10.49,-3.87 13.36,-3.87 3.45,2.29 5.46,5.17 6.03,8.61 0.58,3.45 0.86,6.61 0.86,9.48 -11.49,9.2 -23.26,16.81 -35.33,22.84 -12.06,6.03 -25.56,9.05 -40.5,9.05 -13.79,0 -25.13,-2.3 -34.04,-6.89 -8.9,-4.6 -16.23,-10.92 -21.97,-18.96 -5.75,-8.05 -9.77,-17.24 -12.07,-27.44 -2.3,-10.34 -3.45,-21.54 -3.45,-33.6 0,-19.54 2.59,-38.93 7.76,-58.17 5.17,-19.11 11.35,-37.49 18.53,-55.01 7.18,-17.52 14.79,-33.9 22.83,-48.98 8.05,-15.22 14.94,-28.87 20.69,-40.93zm469.65 -92.64c-2.3,35.62 -8.61,66.21 -18.96,91.78 -10.34,25.56 -25.13,47.97 -44.38,67.21 -19.24,19.25 -42.65,36.63 -70.23,52.14 -27.57,15.51 -59.75,30.45 -96.52,44.81 0,3.45 -0.14,7.04 -0.43,10.77 -0.28,3.74 -0.43,7.62 -0.43,11.64 0,7.46 0.58,15.22 1.73,23.26 1.15,8.05 3.16,15.51 6.03,22.41 2.87,6.89 6.89,12.49 12.06,16.8 5.17,4.31 11.78,6.47 19.82,6.47 15.51,0 30.74,-3.45 45.68,-10.34 14.93,-6.9 29.15,-15.37 42.65,-25.43 13.5,-10.05 26.14,-20.97 37.92,-32.74 11.78,-11.78 22.26,-22.55 31.45,-32.32 5.75,5.17 10.63,10.06 14.65,14.65 -25.85,34.47 -54.14,63.05 -84.88,85.75 -30.73,22.69 -59.89,37.19 -87.47,43.51 -39.64,-4.59 -70.52,-19.1 -92.64,-43.51 -22.11,-24.42 -33.17,-53.86 -33.17,-88.33 0,-23.56 3.3,-47.54 9.91,-71.96 6.6,-24.42 15.8,-47.97 27.57,-70.66 11.78,-22.7 25.57,-44.1 41.37,-64.21 15.8,-20.1 32.74,-37.63 50.84,-52.56 18.1,-14.94 36.77,-26.72 56.02,-35.33 19.24,-8.62 38.34,-12.93 57.3,-12.93 26.43,3.45 51.13,19.82 74.11,49.12zm-59.46 28.44c-15.51,2.3 -31.6,8.62 -48.26,18.96 -16.66,10.34 -32.31,24.12 -46.96,41.36 -14.65,17.24 -28.01,37.34 -40.07,60.32 -12.07,22.98 -21.55,47.69 -28.44,74.11 45.96,-22.98 84.16,-51.27 114.61,-84.88 30.45,-33.61 46.82,-70.23 49.12,-109.87zm635.55 102.12c8.33,-16.38 14.79,-29.16 19.39,-38.35 31.59,-68.94 55.72,-103.41 72.38,-103.41 11.49,0 22.27,3.01 32.32,9.04 10.05,6.04 17.09,14.8 21.11,26.29 -5.17,17.23 -13.64,37.92 -25.42,62.05 -11.78,24.12 -23.7,49.55 -35.76,76.26 -12.07,26.71 -22.84,53 -32.32,78.85 -9.48,25.85 -14.22,49.12 -14.22,69.8 0,12.07 1.73,19.97 5.17,23.7 3.45,3.74 8.33,5.6 14.65,5.6 6.9,0 13.36,-1.29 19.39,-3.88 6.04,-2.58 10.49,-3.87 13.36,-3.87 3.45,2.29 5.46,5.17 6.03,8.61 0.58,3.45 0.86,6.61 0.86,9.48 -11.48,9.2 -23.26,16.81 -35.33,22.84 -12.06,6.03 -25.56,9.05 -40.5,9.05 -13.79,0 -25.13,-2.3 -34.04,-6.89 -8.9,-4.6 -16.23,-10.92 -21.97,-18.96 -5.75,-8.05 -9.77,-17.24 -12.07,-27.58 -2.3,-10.34 -3.45,-21.54 -3.45,-33.61 0,-19.53 2.59,-39.06 7.76,-58.6 1.15,-4.59 2.59,-9.19 4.31,-13.79 -20.11,15.52 -43.95,26.72 -71.53,33.61 -11.49,-1.15 -23.55,-4.16 -36.19,-9.05 -12.64,-4.88 -24.42,-12.49 -35.33,-22.83 -10.92,-9.19 -20.97,-21.26 -30.16,-36.2 -10.92,22.41 -21.55,45.96 -31.89,70.67 -18.96,64.92 -33.18,103.55 -42.66,115.9 -9.48,12.36 -17.66,20.54 -24.56,24.56 -12.06,-6.89 -20.97,-16.51 -26.71,-28.86 -5.75,-12.36 -10.05,-25.14 -12.93,-38.35 0,-10.92 1.58,-24.71 4.74,-41.37 3.16,-16.66 7.47,-35.19 12.93,-55.58 5.46,-20.4 12.21,-41.8 20.25,-64.2 8.04,-22.41 16.95,-44.81 26.71,-67.22 21.84,-50.55 41.8,-90.2 59.9,-118.92 18.09,-28.73 29.44,-44.24 34.04,-46.53 14.93,4.59 29.01,14.79 42.22,30.59 13.22,15.8 22.98,33.17 29.3,52.13 -6.32,15.52 -22.69,45.39 -49.12,89.63 0,0.57 -0.29,1.14 -0.86,1.72 8.04,32.75 19.25,56.01 33.61,69.8 14.94,14.94 31.31,23.56 49.12,25.85 21.83,-5.17 39.78,-15.36 53.86,-30.59 14.07,-15.22 25.28,-31.02 33.61,-47.39zm479.57 -121.94c5.74,0 12.49,1 20.25,3.01 7.75,2.01 14.79,4.6 21.11,7.76 6.32,3.16 11.63,6.46 15.94,9.91 4.31,3.45 6.46,6.61 6.46,9.48 -11.48,24.13 -22.11,48.4 -31.88,72.82 -9.77,24.41 -18.1,47.82 -24.99,70.23 -6.89,22.41 -12.21,43.38 -15.94,62.91 -3.74,19.53 -5.61,36.48 -5.61,50.84 0,16.09 1.73,29.45 5.18,40.07 3.44,10.63 9.19,18.24 17.23,22.84 -6.89,4.6 -15.8,8.33 -26.71,11.2 -10.92,2.88 -20.69,4.31 -29.3,4.31 -31.03,0 -46.54,-21.25 -46.54,-63.77 0,-32.74 10.92,-77.56 32.75,-134.43 -11.49,26.28 -24.71,50.99 -39.64,74.25 -14.94,23.13 -30.16,43.52 -45.67,61.33 -15.52,17.67 -31.17,32.17 -46.97,43.38 -15.8,11.05 -30.31,17.81 -43.52,20.1 -21.26,0 -38.49,-9.62 -51.7,-29.01 -13.22,-19.24 -19.83,-43.95 -19.83,-73.97 0,-32.31 6.9,-66.35 20.69,-102.12 13.78,-35.76 31.45,-68.94 52.99,-99.53 21.55,-30.59 44.96,-56.16 70.24,-76.55 25.28,-20.54 49.69,-30.74 73.25,-30.74 5.74,1.73 12.2,5.17 19.39,10.34 7.18,5.17 14.07,11.21 20.68,18.1 6.61,6.75 12.21,13.79 16.8,20.97 4.6,7.18 7.18,13.36 7.76,18.53 -22.98,3.45 -46.68,14.65 -71.1,33.46 -24.41,18.96 -46.53,41.8 -66.35,68.37 -19.82,26.71 -36.05,55.15 -48.69,85.6 -12.64,30.31 -18.96,58.74 -18.96,85.03 0,10.91 4.02,17.81 12.07,20.68 16.66,-3.45 35.9,-17.67 57.73,-42.66 21.83,-24.99 48.26,-63.62 79.28,-115.9 5.75,-10.34 12.21,-21.84 19.39,-34.47 7.18,-12.64 14.51,-25.86 21.98,-39.64 7.47,-13.79 14.79,-27.72 21.97,-41.8 7.18,-14.07 13.94,-27.72 20.26,-40.93zm351.59 179.82c0,-40.22 4.74,-79.86 14.22,-118.64 9.48,-38.78 22.84,-75.69 40.07,-110.45 17.24,-34.75 37.78,-66.78 61.62,-95.79 23.84,-29.02 49.98,-54.15 78.42,-75.41 28.44,-21.4 58.74,-37.92 90.91,-49.69 32.17,-11.78 65.21,-17.67 99.1,-17.67 39.65,0 70.52,8.33 92.64,24.99 22.12,16.66 33.18,39.93 33.18,69.8 0,11.49 -1.58,23.27 -4.74,35.33 -3.16,12.07 -7.75,23.99 -13.79,35.77 -6.03,11.78 -13.07,23.12 -21.11,34.04 -8.04,10.91 -16.95,20.39 -26.71,28.44 -14.94,-2.3 -27.87,-9.05 -38.78,-20.26 -10.92,-11.2 -17.81,-24.27 -20.69,-39.21 20.11,-16.66 36.06,-34.04 47.83,-52.13 11.78,-18.1 17.67,-34.62 17.67,-49.55 0,-25.28 -15.8,-37.92 -47.4,-37.92 -13.21,0 -26.86,2.73 -40.93,8.19 -14.08,5.45 -28.3,13.07 -42.66,22.83 -14.36,9.77 -28.29,21.55 -41.79,35.34 -13.51,13.78 -26,29.01 -37.49,45.67 -79.86,114.9 -119.79,232.38 -119.79,352.46 0,42.51 6.61,76.69 19.83,102.54 13.21,25.86 30.73,41.08 52.56,45.68 24.71,-5.75 56.02,-21.55 93.93,-47.4 37.92,-25.85 79.29,-59.46 124.1,-100.82 5.74,5.74 9.19,11.77 10.34,18.09 -16.66,21.69 -33.9,42.66 -51.71,62.62 -17.81,19.97 -35.47,38.35 -53,54.87 -17.52,16.66 -34.75,31.17 -51.7,43.81 -16.95,12.49 -32.6,22.26 -46.97,29.15 -71.24,0 -125.24,-19.82 -162.01,-59.6 -36.76,-39.64 -55.15,-97.96 -55.15,-175.08zm766.1 -359.93c37.34,-39.64 56.02,-74.69 56.02,-105.13 0,-2.3 -0.58,-4.03 -1.73,-5.17 -45.38,42.51 -85.89,93.06 -121.5,151.66 16.08,-6.89 29.01,-13.5 38.78,-19.82 10.34,-6.89 19.81,-14.07 28.43,-21.54zm65.5 24.99c-17.81,17.24 -36.77,30.45 -56.88,39.64 -19.53,9.19 -53.72,16.66 -102.55,22.41 -39.07,74.11 -71.52,159.42 -97.38,255.94 16.09,-29.88 34.19,-58.74 54.29,-86.61 20.11,-27.86 40.08,-52.42 59.9,-73.68 19.82,-21.25 38.77,-38.2 56.87,-50.84 18.1,-12.64 33.18,-18.96 45.24,-18.96 9.2,2.3 18.1,6.32 26.72,12.06 8.61,5.75 16.37,12.79 23.27,21.12 6.89,8.33 12.63,17.23 17.23,26.71 4.6,9.48 7.47,19.39 8.62,29.73 -0.58,24.13 -4.74,49.84 -12.5,77.13 -7.75,27.29 -18.09,54.15 -31.02,80.57 -12.93,26.43 -27.58,51.71 -43.95,75.84 -16.37,24.13 -33.61,45.24 -51.71,63.34 -18.09,18.09 -36.19,32.6 -54.29,43.52 -18.09,10.91 -35.18,16.37 -51.27,16.37 -6.89,0 -13.93,-0.72 -21.11,-2.16 -7.18,-1.43 -13.79,-3.44 -19.82,-6.03 -6.04,-2.58 -10.92,-5.31 -14.65,-8.18 -3.74,-2.88 -5.61,-5.75 -5.61,-8.62 26.43,-17.81 52.28,-40.65 77.56,-68.51 25.28,-27.87 48.26,-58.03 68.94,-90.48 20.68,-32.47 38.21,-66.22 52.57,-101.26 14.36,-35.05 24.13,-68.65 29.3,-100.83 0,-6.89 -3.73,-11.49 -11.2,-13.78 -8.05,0 -19.1,7.03 -33.18,21.11 -14.08,14.07 -29.59,32.03 -46.54,53.86 -16.94,21.83 -34.18,46.25 -51.7,73.25 -17.52,27 -33.47,53.86 -47.83,80.57 -14.36,26.71 -26.57,51.71 -36.62,74.97 -10.06,23.27 -15.66,42.09 -16.81,56.45 -5.74,0 -10.63,-5.75 -14.65,-17.24 -1.15,-2.87 -3.16,-5.88 -6.03,-9.04 -2.87,-3.16 -7.47,-7.04 -13.79,-11.64 -2.87,-2.3 -5.74,-5.03 -8.61,-8.18 -2.88,-3.16 -4.89,-5.89 -6.04,-8.19 -2.29,-4.6 -3.44,-12.07 -3.44,-22.41 0,-33.89 4.31,-72.1 12.92,-114.61 8.62,-42.51 19.97,-85.89 34.04,-130.13 14.08,-44.23 30.59,-87.75 49.55,-130.55 18.96,-42.8 38.64,-82.01 59.03,-117.63 20.4,-35.62 40.94,-65.78 61.62,-90.49 20.68,-24.7 40.21,-41.07 58.6,-49.12 5.74,1.73 12.64,4.6 20.68,8.62 8.04,4.02 16.09,8.62 24.13,13.79 8.04,5.17 15.65,10.34 22.84,15.51 7.18,5.17 12.49,9.77 15.94,13.79 15.51,16.08 23.27,36.19 23.27,60.32 0,18.39 -3.74,36.91 -11.21,55.58 -7.47,18.68 -18.38,34.33 -32.74,46.97z"/>
  <path class="fil0" d="M7083.65 6774.97c-32.75,-3.45 -58.89,-17.81 -78.42,-43.09 -19.53,-25.28 -29.3,-57.45 -29.3,-96.52 0,-22.98 3.45,-46.82 10.34,-71.52 6.89,-24.71 16.66,-48.69 29.3,-71.96 12.64,-23.27 27.58,-45.24 44.81,-65.92 17.24,-20.69 35.91,-38.5 56.02,-53.43 31.59,-23.56 61.18,-35.33 88.76,-35.33 18.38,9.76 36.48,30.16 54.29,61.18 2.87,0 5.46,-0.14 7.75,-0.43 2.3,-0.29 4.89,-0.43 7.76,-0.43 30.45,0 45.67,27 45.67,81 0,36.2 -5.89,70.52 -17.66,102.98 -11.78,32.46 -28.15,61.91 -49.12,88.33 -20.97,26.43 -45.96,48.69 -74.98,66.79 -29.01,18.1 -60.75,30.88 -95.22,38.35zm43.95 -271.46c-9.77,13.22 -18.96,27.58 -27.58,43.09 -8.62,15.51 -16.08,31.17 -22.4,46.97 -6.32,15.8 -11.21,31.02 -14.65,45.67 -3.45,14.65 -5.17,27.72 -5.17,39.21 0,13.79 2.3,27 6.89,39.64 4.6,12.64 9.77,19.82 15.51,21.55 25.86,-5.75 49.55,-16.52 71.1,-32.32 21.54,-15.8 40.21,-35.48 56.01,-59.03 15.8,-23.56 28.15,-50.27 37.06,-80.14 8.9,-29.88 13.35,-61.76 13.35,-95.66 0,-14.94 -0.86,-26.71 -2.58,-35.33 -1.72,-8.62 -4.6,-16.09 -8.62,-22.41 -25.28,7.47 -47.83,19.54 -67.65,36.2 -19.82,16.66 -36.91,34.18 -51.27,52.56zm542.9 -115.47c-2.29,35.62 -8.61,66.21 -18.95,91.78 -10.34,25.56 -25.14,47.97 -44.38,67.21 -19.25,19.25 -42.66,36.63 -70.24,52.14 -27.57,15.51 -59.75,30.45 -96.51,44.81 0,3.45 -0.15,7.04 -0.43,10.77 -0.29,3.74 -0.43,7.62 -0.43,11.64 0,7.46 0.57,15.22 1.72,23.26 1.15,8.05 3.16,15.51 6.03,22.41 2.87,6.89 6.89,12.49 12.07,16.8 5.17,4.31 11.77,6.47 19.81,6.47 15.52,0 30.74,-3.45 45.68,-10.34 14.94,-6.9 29.15,-15.37 42.66,-25.43 13.5,-10.05 26.14,-20.97 37.91,-32.74 11.78,-11.78 22.26,-22.55 31.46,-32.32 5.74,5.17 10.62,10.06 14.65,14.65 -25.86,34.47 -54.15,63.05 -84.89,85.75 -30.73,22.69 -59.89,37.19 -87.47,43.51 -39.63,-4.59 -70.52,-19.1 -92.63,-43.51 -22.12,-24.42 -33.18,-53.86 -33.18,-88.33 0,-23.56 3.3,-47.54 9.91,-71.96 6.61,-24.42 15.8,-47.97 27.58,-70.66 11.77,-22.7 25.56,-44.1 41.36,-64.21 15.8,-20.1 32.75,-37.63 50.84,-52.56 18.1,-14.94 36.77,-26.72 56.02,-35.33 19.24,-8.62 38.35,-12.93 57.3,-12.93 26.43,3.45 51.13,19.82 74.11,49.12zm-59.46 28.44c-15.51,2.3 -31.59,8.62 -48.25,18.96 -16.66,10.34 -32.32,24.12 -46.97,41.36 -14.65,17.24 -28.01,37.34 -40.07,60.32 -12.07,22.98 -21.55,47.69 -28.44,74.11 45.96,-22.98 84.17,-51.27 114.61,-84.88 30.45,-33.61 46.83,-70.23 49.12,-109.87zm333.5 309.37c-10.91,-9.19 -18.24,-20.69 -21.97,-34.47 -3.74,-13.79 -5.6,-25.57 -5.6,-35.34 0,-12.06 1.43,-22.4 4.31,-31.02 -2.3,0 -7.47,4.6 -15.52,13.79 -8.04,9.19 -16.8,19.96 -26.28,32.6 -9.48,12.64 -18.81,24.85 -28.01,36.92 -9.19,12.06 -16.08,20.96 -20.68,26.71 -7.47,7.9 -14.51,14.22 -21.11,18.81 -6.61,4.6 -11.92,7.19 -15.94,7.76 -9.2,0 -18.82,-1.58 -28.87,-4.74 -10.06,-3.16 -19.54,-7.76 -28.44,-13.5 -8.91,-5.74 -16.66,-12.64 -23.27,-20.83 -6.6,-8.04 -11.06,-17.38 -13.36,-27.72 0,-16.08 0.44,-29.29 1.3,-39.64 0.86,-10.34 2.73,-21.54 5.6,-33.6 5.17,-21.84 12.78,-46.54 22.84,-74.12 10.05,-27.57 21.68,-54.72 34.9,-81.43 13.21,-26.72 28,-51.71 44.38,-74.97 16.37,-23.27 33.75,-41.51 52.13,-54.73 5.17,0 11.21,0.43 18.1,1.3 6.89,0.86 13.93,2.44 21.11,4.74 7.18,2.29 14.08,5.02 20.69,8.18 6.6,3.16 12.2,7.33 16.8,12.5 -5.17,5.74 -18.24,24.99 -39.21,57.74 -20.97,32.74 -44.38,79.85 -70.23,141.32 -2.88,6.32 -6.32,15.52 -10.35,27.58 -4.02,12.06 -8.04,24.7 -12.06,37.92 -4.02,13.21 -7.32,26.14 -9.91,38.78 -2.59,12.63 -3.88,22.69 -3.88,30.16 0,4.59 0.72,8.04 2.16,10.34 1.43,2.3 2.73,4.02 3.88,5.17 8.61,-3.45 19.53,-12.93 32.74,-28.44 13.22,-15.51 31.6,-39.35 55.15,-71.52 5.75,-8.05 12.5,-17.24 20.25,-27.58 7.76,-10.34 15.66,-21.4 23.7,-33.18 8.05,-11.78 15.66,-23.98 22.84,-36.62 7.18,-12.64 13.07,-25.28 17.67,-37.92 2.29,-6.89 5.31,-15.08 9.04,-24.56 3.74,-9.48 8.33,-19.39 13.79,-29.73 5.46,-10.34 11.78,-20.83 18.96,-31.45 7.18,-10.63 15.66,-20.54 25.42,-29.74 7.47,0 15.51,0.87 24.13,2.59 8.62,1.72 16.81,3.88 24.56,6.46 7.76,2.59 14.51,5.46 20.25,8.62 5.75,3.16 10.06,6.46 12.93,9.91 -10.34,25.28 -21.83,50.27 -34.47,74.97 -12.64,24.71 -24.42,48.98 -35.33,72.82 -10.92,23.84 -20.11,47.54 -27.58,71.1 -7.47,23.55 -11.2,46.53 -11.2,68.94 0,12.06 1,22.55 3.01,31.45 2.02,8.91 4.17,16.37 6.47,22.41 2.3,6.03 4.45,11.06 6.46,15.08 2.01,4.02 3.02,7.47 3.02,10.34 0,0.57 -0.58,1.44 -1.73,2.58 -0.57,0.58 -1.15,0.87 -1.72,0.87 -4.02,0 -9.19,-0.87 -15.51,-2.59 -6.32,-1.72 -13.36,-4.16 -21.11,-7.32 -7.76,-3.16 -15.52,-6.75 -23.27,-10.78 -7.76,-4.02 -15.08,-8.33 -21.98,-12.92zm106.86 -432.6c-11.49,-1.15 -23.55,-4.17 -36.19,-9.05 -12.64,-4.89 -24.56,-12.35 -35.77,-22.41 -11.2,-10.05 -21.25,-22.69 -30.16,-37.92 -8.9,-15.22 -15.37,-33.75 -19.39,-55.58 4.6,-9.76 13.07,-16.08 25.42,-18.96 12.36,-2.87 23.7,-5.46 34.04,-7.75 8.05,36.77 19.68,62.62 34.91,77.55 15.22,14.94 31.74,23.56 49.55,25.86 21.83,-5.17 39.78,-15.37 53.86,-30.6 14.07,-15.22 25.99,-34.03 35.76,-56.44 5.74,1.72 10.34,7.18 13.79,16.37 -5.75,28.15 -19.82,53 -42.23,74.55 -22.4,21.54 -50.27,36.33 -83.59,44.38zm405.89 -118.93c8.61,-5.74 20.39,-11.34 35.33,-16.8 14.94,-5.46 31.02,-10.2 48.26,-14.22 17.23,-4.02 34.61,-7.18 52.13,-9.48 17.53,-2.3 33.18,-3.45 46.97,-3.45 23.55,0 43.66,3.31 60.32,9.91 16.66,6.61 30.16,15.23 40.51,25.86 10.34,10.63 17.8,22.55 22.4,35.76 4.6,13.21 6.9,26.71 6.9,40.5 0,14.37 -2.73,29.59 -8.19,45.67 -5.46,16.09 -13.36,32.18 -23.7,48.26 -10.34,16.09 -22.84,31.75 -37.49,46.97 -14.65,15.22 -30.88,28.87 -48.69,40.93 37.92,4.6 65.5,16.09 82.73,34.47 17.24,18.39 25.86,43.09 25.86,74.11 0,29.3 -5.46,55.59 -16.38,78.85 -10.91,23.27 -25.71,43.95 -44.38,62.05 -18.67,18.1 -40.07,33.61 -64.2,46.54 -24.13,12.92 -49.55,23.55 -76.26,31.88 -26.72,8.33 -53.86,14.36 -81.44,18.1 -27.58,3.73 -53.72,5.6 -78.42,5.6 -21.26,-4.6 -37.34,-15.8 -48.26,-33.61 -10.91,-17.81 -16.37,-39.64 -16.37,-65.49 0,-1.73 0.14,-3.45 0.43,-5.17 0.29,-1.73 0.43,-3.74 0.43,-6.03 17.81,5.74 40.79,8.61 68.94,8.61 29.3,0 60.9,-3.44 94.79,-10.34 33.9,-6.89 65.21,-16.95 93.94,-30.16 28.72,-13.21 52.56,-29.59 71.52,-49.12 18.96,-19.53 28.44,-42.23 28.44,-68.08 0,-18.96 -6.18,-34.61 -18.53,-46.96 -12.35,-12.36 -31.74,-20.26 -58.17,-23.7 -17.23,10.34 -33.75,17.66 -49.55,21.97 -15.8,4.31 -27.72,6.47 -35.76,6.47 -13.22,0 -24.42,-5.75 -33.61,-17.24 -9.19,-11.49 -13.79,-29.01 -13.79,-52.57 25.85,0 53.29,-2.87 82.3,-8.61 29.01,-5.75 55.58,-15.66 79.71,-29.74 24.13,-14.07 44.38,-32.74 60.76,-56.01 16.37,-23.27 25.13,-52.71 26.28,-88.33 -2.87,-11.49 -9.62,-19.82 -20.25,-24.99 -10.63,-5.17 -23.41,-7.76 -38.35,-7.76 -13.79,0 -28.87,2.01 -45.24,6.04 -16.38,4.02 -32.75,9.62 -49.12,16.8 -16.38,7.18 -32.17,15.8 -47.4,25.85 -15.22,10.06 -28.29,20.83 -39.21,32.32 -11.49,-6.9 -20.54,-17.38 -27.14,-31.46 -6.61,-14.07 -9.91,-30.3 -9.91,-48.69 0,-2.87 0,-5.45 0,-7.75 0,-2.3 0.28,-4.88 0.86,-7.76zm670.44 213.72c-2.29,35.62 -8.61,66.21 -18.95,91.78 -10.35,25.56 -25.14,47.97 -44.39,67.21 -19.24,19.25 -42.65,36.63 -70.23,52.14 -27.57,15.51 -59.75,30.45 -96.52,44.81 0,3.45 -0.14,7.04 -0.43,10.77 -0.28,3.74 -0.43,7.62 -0.43,11.64 0,7.46 0.58,15.22 1.73,23.26 1.15,8.05 3.16,15.51 6.03,22.41 2.87,6.89 6.89,12.49 12.06,16.8 5.17,4.31 11.78,6.47 19.82,6.47 15.52,0 30.74,-3.45 45.68,-10.34 14.93,-6.9 29.15,-15.37 42.65,-25.43 13.51,-10.05 26.14,-20.97 37.92,-32.74 11.78,-11.78 22.26,-22.55 31.45,-32.32 5.75,5.17 10.63,10.06 14.66,14.65 -25.86,34.47 -54.15,63.05 -84.89,85.75 -30.73,22.69 -59.89,37.19 -87.47,43.51 -39.64,-4.59 -70.52,-19.1 -92.63,-43.51 -22.12,-24.42 -33.18,-53.86 -33.18,-88.33 0,-23.56 3.3,-47.54 9.91,-71.96 6.6,-24.42 15.8,-47.97 27.57,-70.66 11.78,-22.7 25.57,-44.1 41.37,-64.21 15.8,-20.1 32.74,-37.63 50.84,-52.56 18.1,-14.94 36.77,-26.72 56.02,-35.33 19.24,-8.62 38.34,-12.93 57.3,-12.93 26.43,3.45 51.13,19.82 74.11,49.12zm-59.46 28.44c-15.51,2.3 -31.59,8.62 -48.26,18.96 -16.66,10.34 -32.31,24.12 -46.96,41.36 -14.65,17.24 -28.01,37.34 -40.07,60.32 -12.07,22.98 -21.55,47.69 -28.44,74.11 45.96,-22.98 84.16,-51.27 114.61,-84.88 30.45,-33.61 46.82,-70.23 49.12,-109.87zm323.16 116.76c26.43,-44.52 41.51,-71.52 45.24,-81 3.74,-9.48 8.33,-19.39 13.79,-29.73 5.46,-10.34 11.78,-20.83 18.96,-31.45 7.18,-10.63 15.65,-20.54 25.42,-29.74 7.47,0 15.51,0.87 24.13,2.59 8.62,1.72 16.81,3.88 24.56,6.46 7.76,2.59 14.51,5.46 20.25,8.62 5.75,3.16 10.06,6.46 12.93,9.91 -10.34,25.28 -21.83,50.27 -34.47,74.97 -12.64,24.71 -24.42,48.84 -35.33,72.39 -1.15,2.87 -2.88,5.75 -5.18,8.62 -2.29,5.74 -4.59,11.49 -6.89,17.23 -2.87,6.32 -6.32,15.52 -10.34,27.58 -4.02,12.06 -8.04,24.7 -12.06,37.92 -4.03,13.21 -7.33,26.14 -9.91,38.78 -2.59,12.63 -3.88,22.69 -3.88,30.16 0,4.59 0.72,8.04 2.15,10.34 1.44,2.3 2.73,4.02 3.88,5.17 8.62,-3.45 19.53,-12.93 32.75,-28.44 13.21,-15.51 31.59,-39.35 55.15,-71.52 5.74,-8.05 12.5,-17.24 20.25,-27.58 7.76,-10.34 15.66,-21.4 23.7,-33.18 8.04,-11.78 15.65,-23.98 22.84,-36.62 7.18,-12.64 13.07,-25.28 17.66,-37.92 2.3,-6.89 5.32,-15.08 9.05,-24.56 3.73,-9.48 8.33,-19.39 13.79,-29.73 5.46,-10.34 11.77,-20.83 18.96,-31.45 7.18,-10.63 15.65,-20.54 25.42,-29.74 7.47,0 15.51,0.87 24.13,2.59 8.62,1.72 16.8,3.88 24.56,6.46 7.75,2.59 14.5,5.46 20.25,8.62 5.74,3.16 10.05,6.46 12.93,9.91 -10.35,25.28 -21.84,50.27 -34.48,74.97 -12.63,24.71 -24.41,48.98 -35.33,72.82 -10.91,23.84 -20.11,47.54 -27.57,71.1 -7.47,23.55 -11.21,46.53 -11.21,68.94 0,12.06 1.01,22.55 3.02,31.45 2.01,8.91 4.17,16.37 6.46,22.41 2.3,6.03 4.46,11.06 6.47,15.08 2.01,4.02 3.01,7.47 3.01,10.34 0,0.57 -0.57,1.44 -1.72,2.58 -0.58,0.58 -1.15,0.87 -1.72,0.87 -4.03,0 -9.2,-0.87 -15.52,-2.59 -6.32,-1.72 -13.35,-4.16 -21.11,-7.32 -7.76,-3.16 -15.51,-6.75 -23.27,-10.78 -7.75,-4.02 -15.08,-8.33 -21.97,-12.92 -10.92,-9.19 -18.24,-20.69 -21.98,-34.47 -3.73,-13.79 -5.6,-25.57 -5.6,-35.34 0,-12.06 1.44,-22.4 4.31,-31.02 -2.3,0 -7.47,4.6 -15.51,13.79 -8.04,9.19 -16.81,20.11 -26.28,32.75 -9.48,12.64 -18.82,24.99 -28.01,37.05 -9.19,12.07 -16.09,20.97 -20.68,26.72 -7.47,8.04 -14.51,14.36 -21.12,18.96 -6.6,4.59 -11.92,7.18 -15.94,7.75 -9.19,-0.57 -18.81,-2.44 -28.87,-5.6 -10.05,-3.16 -19.53,-7.61 -28.44,-13.36 -8.9,-5.74 -16.66,-12.64 -23.26,-20.68 -6.61,-8.04 -11.06,-17.24 -13.36,-27.58 0,-16.08 0.57,-29.29 1.72,-39.64 0.58,-8.04 1.73,-16.66 3.45,-25.85 -2.3,2.3 -5.17,5.46 -8.62,9.48 -8.04,9.19 -16.8,20.11 -26.28,32.75 -9.48,12.64 -18.82,24.99 -28.01,37.05 -9.19,12.07 -16.08,20.97 -20.68,26.72 -7.47,8.04 -14.51,14.36 -21.11,18.96 -6.61,4.59 -11.92,7.18 -15.95,7.75 -9.19,-0.57 -18.81,-2.44 -28.86,-5.6 -10.06,-3.16 -19.54,-7.61 -28.44,-13.36 -8.91,-5.74 -16.66,-12.64 -23.27,-20.68 -6.61,-8.04 -11.06,-17.24 -13.36,-27.58 0,-16.08 0.43,-29.29 1.3,-39.64 0.86,-10.34 2.72,-21.54 5.6,-33.6 5.17,-21.84 14.65,-44.53 28.43,-68.08 13.79,-23.56 29.88,-41.94 48.26,-55.16 5.17,0 11.21,0.44 18.1,1.3 6.89,0.86 13.93,2.44 21.11,4.74 7.18,2.29 14.08,5.02 20.69,8.18 6.6,3.16 12.2,7.33 16.8,12.5 -5.17,5.74 -17.81,33.89 -37.92,84.45 -20.11,50.56 -30.16,79.57 -30.16,87.04 0,4.59 0.72,8.04 2.16,10.34 1.43,2.3 2.72,4.02 3.87,5.17 8.62,-3.45 19.54,-12.93 32.75,-28.44 13.21,-15.51 31.6,-39.35 55.15,-71.52 5.75,-8.05 21.83,-34.33 48.26,-78.86zm647.18 192.61c-10.92,-9.19 -18.24,-20.69 -21.98,-34.47 -3.73,-13.79 -5.6,-25.57 -5.6,-35.34 0,-12.06 1.44,-22.4 4.31,-31.02 -2.3,0 -7.47,4.6 -15.51,13.79 -8.04,9.19 -16.8,20.11 -26.28,32.75 -9.48,12.64 -18.82,24.99 -28.01,37.05 -9.19,12.07 -16.09,20.97 -20.68,26.72 -7.47,8.04 -14.51,14.36 -21.11,18.96 -6.61,4.59 -11.93,7.18 -15.95,7.75 -9.19,-0.57 -18.81,-2.44 -28.87,-5.6 -10.05,-3.16 -19.53,-7.61 -28.43,-13.36 -8.91,-5.74 -16.67,-12.64 -23.27,-20.68 -6.61,-8.04 -11.06,-17.24 -13.36,-27.58 0,-16.08 0.43,-29.29 1.29,-39.64 0.86,-10.34 2.73,-21.54 5.6,-33.6 5.18,-21.84 14.65,-44.53 28.44,-68.08 13.79,-23.56 29.88,-41.94 48.26,-55.16 5.17,0 11.2,0.44 18.1,1.3 6.89,0.86 13.93,2.44 21.11,4.74 7.18,2.29 14.08,5.02 20.68,8.18 6.61,3.16 12.21,7.33 16.81,12.5 -5.17,5.74 -17.81,33.89 -37.92,84.45 -20.11,50.56 -30.16,79.57 -30.16,87.04 0,4.59 0.72,8.04 2.15,10.34 1.44,2.3 2.73,4.02 3.88,5.17 8.62,-3.45 19.53,-12.93 32.75,-28.44 13.21,-15.51 31.6,-39.35 55.15,-71.52 5.75,-8.05 12.5,-17.24 20.25,-27.58 7.76,-10.34 15.66,-21.4 23.7,-33.18 8.04,-11.78 15.65,-23.98 22.84,-36.62 7.18,-12.64 13.07,-25.28 17.66,-37.92 2.3,-6.89 5.32,-15.08 9.05,-24.56 3.74,-9.48 8.33,-19.39 13.79,-29.73 5.46,-10.34 11.78,-20.83 18.96,-31.45 7.18,-10.63 15.65,-20.54 25.42,-29.74 7.47,0 15.51,0.87 24.13,2.59 8.62,1.72 16.8,3.88 24.56,6.46 7.75,2.59 14.51,5.46 20.25,8.62 5.74,3.16 10.05,6.46 12.93,9.91 -10.34,25.28 -21.83,50.27 -34.47,74.97 -12.64,24.71 -24.42,48.98 -35.34,72.82 -10.91,23.84 -20.1,47.54 -27.57,71.1 -7.47,23.55 -11.21,46.53 -11.21,68.94 0,12.06 1.01,22.55 3.02,31.45 2.01,8.91 4.17,16.37 6.46,22.41 2.3,6.03 4.46,11.06 6.47,15.08 2.01,4.02 3.01,7.47 3.01,10.34 0,0.57 -0.57,1.44 -1.72,2.58 -0.57,0.58 -1.15,0.87 -1.72,0.87 -4.03,0 -9.2,-0.87 -15.52,-2.59 -6.31,-1.72 -13.35,-4.16 -21.11,-7.32 -7.75,-3.16 -15.51,-6.75 -23.27,-10.78 -7.75,-4.02 -15.08,-8.33 -21.97,-12.92zm499.82 -337.81c-2.3,35.62 -8.62,66.21 -18.96,91.78 -10.34,25.56 -25.14,47.97 -44.38,67.21 -19.25,19.25 -42.66,36.63 -70.23,52.14 -27.58,15.51 -59.75,30.45 -96.52,44.81 0,3.45 -0.14,7.04 -0.43,10.77 -0.29,3.74 -0.43,7.62 -0.43,11.64 0,7.46 0.57,15.22 1.72,23.26 1.15,8.05 3.16,15.51 6.03,22.41 2.88,6.89 6.9,12.49 12.07,16.8 5.17,4.31 11.78,6.47 19.82,6.47 15.51,0 30.73,-3.45 45.67,-10.34 14.94,-6.9 29.16,-15.37 42.66,-25.43 13.5,-10.05 26.14,-20.97 37.91,-32.74 11.78,-11.78 22.27,-22.55 31.46,-32.32 5.74,5.17 10.63,10.06 14.65,14.65 -25.85,34.47 -54.15,63.05 -84.88,85.75 -30.74,22.69 -59.9,37.19 -87.47,43.51 -39.64,-4.59 -70.52,-19.1 -92.64,-43.51 -22.12,-24.42 -33.18,-53.86 -33.18,-88.33 0,-23.56 3.3,-47.54 9.91,-71.96 6.61,-24.42 15.8,-47.97 27.58,-70.66 11.77,-22.7 25.56,-44.1 41.36,-64.21 15.8,-20.1 32.75,-37.63 50.85,-52.56 18.09,-14.94 36.76,-26.72 56.01,-35.33 19.25,-8.62 38.35,-12.93 57.31,-12.93 26.42,3.45 51.13,19.82 74.11,49.12zm-59.46 28.44c-15.52,2.3 -31.6,8.62 -48.26,18.96 -16.66,10.34 -32.32,24.12 -46.97,41.36 -14.65,17.24 -28,37.34 -40.07,60.32 -12.06,22.98 -21.54,47.69 -28.44,74.11 45.96,-22.98 84.17,-51.27 114.62,-84.88 30.45,-33.61 46.82,-70.23 49.12,-109.87z"/>
  <path class="fil0" d="M7195.78 2711.14c15.7,-10.47 37.16,-20.67 64.36,-30.61 27.22,-9.94 56.52,-18.58 87.92,-25.9 31.4,-7.33 63.06,-13.09 94.98,-17.27 31.92,-4.19 60.44,-6.28 85.55,-6.28 42.91,0 79.54,6.01 109.89,18.05 30.36,12.04 54.95,27.74 73.79,47.1 18.84,19.36 32.44,41.08 40.82,65.15 8.37,24.07 12.55,48.66 12.55,73.78 0,26.16 -4.97,53.9 -14.91,83.2 -9.94,29.31 -24.33,58.61 -43.17,87.92 -18.84,29.3 -41.6,57.82 -68.29,85.55 -26.69,27.74 -56.25,52.59 -88.7,74.57 69.08,8.38 119.31,29.31 150.71,62.8 31.4,33.49 47.1,78.49 47.1,135.01 0,53.37 -9.95,101.25 -29.83,143.64 -19.89,42.39 -46.84,80.06 -80.85,113.03 -34.01,32.97 -73,61.23 -116.96,84.77 -43.95,23.55 -90.26,42.91 -138.93,58.09 -48.67,15.17 -98.12,26.16 -148.35,32.97 -50.24,6.8 -97.86,10.2 -142.86,10.2 -38.72,-8.37 -68.03,-28.78 -87.91,-61.22 -19.89,-32.45 -29.83,-72.22 -29.83,-119.31 0,-3.14 0.26,-6.28 0.78,-9.42 0.53,-3.14 0.79,-6.81 0.79,-10.99 32.44,10.46 74.31,15.7 125.59,15.7 53.37,0 110.94,-6.28 172.68,-18.84 61.75,-12.56 118.79,-30.88 171.12,-54.95 52.33,-24.07 95.76,-53.9 130.3,-89.48 34.54,-35.58 51.81,-76.92 51.81,-124.02 0,-34.54 -11.26,-63.06 -33.76,-85.56 -22.5,-22.5 -57.82,-36.89 -105.96,-43.17 -31.4,18.84 -61.49,32.18 -90.27,40.03 -28.78,7.85 -50.5,11.78 -65.15,11.78 -24.07,0 -44.48,-10.47 -61.23,-31.4 -16.74,-20.93 -25.11,-52.85 -25.11,-95.76 47.09,0 97.07,-5.24 149.92,-15.7 52.85,-10.47 101.26,-28.52 145.21,-54.16 43.96,-25.64 80.85,-59.66 110.68,-102.04 29.83,-42.39 45.79,-96.03 47.88,-160.92 -5.23,-20.93 -17.53,-36.1 -36.89,-45.52 -19.36,-9.42 -42.65,-14.13 -69.86,-14.13 -25.12,0 -52.59,3.66 -82.42,10.99 -29.83,7.32 -59.65,17.53 -89.48,30.61 -29.83,13.08 -58.61,28.78 -86.35,47.1 -27.73,18.31 -51.54,37.93 -71.43,58.87 -20.93,-12.56 -37.41,-31.66 -49.45,-57.3 -12.03,-25.65 -18.05,-55.21 -18.05,-88.7 0,-5.23 0,-9.94 0,-14.13 0,-4.19 0.52,-8.9 1.57,-14.13zm866.42 1095.77c-37.68,-7.32 -72.48,-18.58 -104.4,-33.75 -31.92,-15.18 -59.13,-36.11 -81.63,-62.8 -22.51,-26.68 -40.3,-59.65 -53.38,-98.64 -13.08,-39.24 -19.62,-87.12 -19.62,-143.64 0,-63.84 8.89,-129.78 26.68,-197.8 17.8,-68.03 42.65,-133.97 74.57,-198.33 31.92,-64.36 69.6,-125.59 113.03,-183.68 43.44,-58.08 90.79,-108.58 142.08,-152.01 51.28,-43.43 105.44,-77.97 162.48,-103.61 57.04,-25.64 114.86,-38.46 173.47,-38.46 43.96,0 81.9,8.11 113.82,24.33 31.92,16.22 58.6,38.72 80.06,67.5 21.45,28.78 37.41,63.32 47.88,103.88 10.47,40.29 15.7,83.98 15.7,131.08 0,61.75 -7.59,126.64 -22.76,194.66 -15.18,68.03 -36.9,134.75 -65.15,199.64 -28.26,64.89 -62.54,126.9 -102.83,186.03 -40.29,59.13 -86.08,111.2 -137.36,156.46 -51.29,45.01 -107.28,81.11 -167.98,108.32 -60.7,27.22 -125.59,40.82 -194.66,40.82zm-62.8 -272.9c0,70.13 12.56,119.58 37.68,148.36 25.12,28.78 61.75,47.36 109.89,55.47 47.1,0 91.84,-16.49 134.22,-49.45 42.39,-32.97 81.37,-75.1 116.96,-126.12 35.58,-51.28 67.76,-107.79 96.54,-170.33 28.79,-62.53 53.12,-124.54 73,-186.55 19.89,-61.75 35.06,-120.36 45.53,-175.57 10.47,-55.2 15.7,-100.99 15.7,-137.1 0,-56.51 -6.54,-102.82 -19.62,-138.41 -13.09,-35.58 -34.8,-57.04 -65.15,-64.1 -48.15,6.02 -94.98,24.86 -140.51,56.25 -45.52,31.4 -88.43,70.65 -128.73,118 -40.29,47.36 -77.18,100.48 -110.67,159.61 -33.49,59.13 -62.54,119.31 -87.13,179.75 -24.6,60.7 -43.7,120.09 -57.3,177.66 -13.61,57.56 -20.41,108.32 -20.41,152.53zm1264.86 193.1c-13.41,-11.29 -22.41,-25.41 -27,-42.34 -4.58,-16.94 -6.88,-31.4 -6.88,-43.4 0,-14.82 1.77,-27.52 5.3,-38.11 -2.83,0 -9.18,5.65 -19.06,16.94 -9.88,11.29 -20.64,24.7 -32.28,40.22 -11.64,15.53 -23.11,30.7 -34.4,45.52 -11.29,14.82 -19.76,25.75 -25.41,32.81 -9.17,9.88 -17.82,17.64 -25.93,23.29 -8.12,5.64 -14.64,8.82 -19.58,9.53 -11.29,-0.71 -23.11,-3 -35.46,-6.89 -12.35,-3.88 -24,-9.34 -34.94,-16.4 -10.93,-7.06 -20.46,-15.53 -28.57,-25.41 -8.12,-9.87 -13.59,-21.17 -16.41,-33.87 0,-19.76 0.53,-35.99 1.59,-48.69 1.05,-12.7 3.35,-26.46 6.88,-41.28 6.35,-26.82 17.99,-54.69 34.93,-83.63 16.93,-28.93 36.69,-51.51 59.27,-67.74 6.36,0 13.77,0.53 22.23,1.59 8.47,1.06 17.12,3 25.94,5.82 8.82,2.82 17.29,6.17 25.4,10.06 8.12,3.88 15,8.99 20.64,15.34 -6.35,7.06 -21.87,41.64 -46.57,103.74 -24.7,62.1 -37.05,97.73 -37.05,106.91 0,5.64 0.88,9.88 2.65,12.7 1.76,2.82 3.35,4.94 4.76,6.35 10.58,-4.23 23.99,-15.88 40.22,-34.93 16.23,-19.05 38.82,-48.34 67.75,-87.86 7.05,-9.87 15.35,-21.17 24.87,-33.87 9.53,-12.7 19.23,-26.29 29.11,-40.75 9.88,-14.47 19.23,-29.46 28.05,-44.99 8.82,-15.52 16.06,-31.05 21.7,-46.57 2.83,-8.47 6.53,-18.53 11.12,-30.17 4.58,-11.64 10.23,-23.82 16.93,-36.52 6.71,-12.7 14.47,-25.58 23.29,-38.64 8.82,-13.05 19.23,-25.22 31.23,-36.51 9.17,0 19.05,1.05 29.64,3.17 10.58,2.12 20.64,4.76 30.16,7.94 9.53,3.18 17.82,6.7 24.88,10.59 7.05,3.88 12.35,7.93 15.88,12.17 -12.71,31.05 -26.82,61.74 -42.35,92.09 -15.52,30.34 -29.99,60.16 -43.39,89.44 -13.41,29.29 -24.7,58.4 -33.88,87.33 -9.17,28.93 -13.76,57.16 -13.76,84.68 0,14.82 1.24,27.7 3.71,38.64 2.47,10.94 5.11,20.11 7.94,27.52 2.82,7.41 5.47,13.58 7.93,18.52 2.48,4.94 3.71,9.18 3.71,12.71 0,0.7 -0.71,1.76 -2.12,3.17 -0.7,0.71 -1.41,1.06 -2.11,1.06 -4.94,0 -11.29,-1.06 -19.06,-3.18 -7.76,-2.11 -16.4,-5.11 -25.93,-8.99 -9.53,-3.88 -19.05,-8.29 -28.58,-13.23 -9.53,-4.94 -18.52,-10.24 -26.99,-15.88zm540.79 -414.94c-2.82,43.75 -10.58,81.33 -23.28,112.73 -12.71,31.4 -30.88,58.93 -54.52,82.57 -23.64,23.64 -52.39,44.98 -86.27,64.04 -33.87,19.05 -73.39,37.4 -118.55,55.04 0,4.23 -0.18,8.64 -0.53,13.23 -0.35,4.59 -0.53,9.35 -0.53,14.29 0,9.17 0.71,18.7 2.12,28.58 1.41,9.88 3.88,19.05 7.41,27.52 3.53,8.47 8.47,15.35 14.82,20.64 6.35,5.3 14.46,7.94 24.34,7.94 19.06,0 37.76,-4.23 56.1,-12.7 18.35,-8.47 35.82,-18.88 52.4,-31.23 16.59,-12.35 32.11,-25.75 46.58,-40.22 14.46,-14.47 27.34,-27.7 38.63,-39.69 7.06,6.35 13.06,12.34 18,17.99 -31.76,42.34 -66.51,77.45 -104.27,105.32 -37.75,27.88 -73.56,45.7 -107.44,53.46 -48.69,-5.65 -86.62,-23.47 -113.79,-53.46 -27.16,-29.99 -40.75,-66.16 -40.75,-108.5 0,-28.93 4.06,-58.39 12.17,-88.38 8.12,-29.99 19.41,-58.93 33.88,-86.8 14.46,-27.87 31.4,-54.16 50.8,-78.86 19.41,-24.7 40.23,-46.22 62.46,-64.57 22.23,-18.35 45.16,-32.81 68.8,-43.4 23.64,-10.58 47.1,-15.87 70.39,-15.87 32.46,4.23 62.81,24.34 91.03,60.33zm-73.03 34.93c-19.06,2.82 -38.82,10.59 -59.28,23.29 -20.46,12.7 -39.69,29.64 -57.69,50.81 -17.99,21.17 -34.4,45.87 -49.22,74.09 -14.82,28.23 -26.46,58.57 -34.93,91.04 56.45,-28.23 103.38,-62.99 140.78,-104.27 37.4,-41.28 57.51,-86.27 60.34,-134.96zm660.41 78.86c-11.29,0 -25.06,6.88 -41.29,20.64 -16.23,13.76 -33.69,31.4 -52.39,53.1 -18.7,21.53 -38.11,45.34 -58.22,71.45 -20.11,26.11 -39.52,52.22 -58.22,77.98 -18.7,25.76 -36.17,49.93 -52.4,72.68 -16.23,22.59 -29.99,40.58 -41.28,53.99 -15.52,-6.35 -28.93,-15.7 -40.22,-28.05 -11.29,-12.35 -19.41,-27.7 -24.35,-46.05 3.53,-21.87 8.47,-44.63 14.82,-68.09 6.35,-23.64 14.64,-48.17 24.88,-73.57 10.23,-25.23 22.93,-51.87 38.1,-79.74 15.18,-27.88 33.7,-57.16 55.58,-88.21 -10.59,0 -25.06,7.23 -43.4,21.7 -18.35,14.46 -38.11,33.16 -59.28,56.28 -21.17,22.93 -43.05,48.69 -65.63,77.27 -22.58,28.58 -43.75,56.8 -63.51,84.33 -26.11,36.69 -47.81,68.8 -65.1,96.5 -17.29,27.52 -29.81,43.75 -37.58,48.69 -18.34,-13.41 -31.04,-27.88 -38.1,-43.4 -7.06,-15.53 -12.35,-32.82 -15.88,-51.87 0.71,-16.93 3.35,-38.1 7.94,-63.51 4.59,-25.4 11.11,-51.51 19.58,-78.33 16.23,-51.51 37.23,-102.67 62.98,-153.48 25.76,-50.81 50.64,-97.39 74.63,-139.73 19.76,4.24 37.58,10.94 53.45,20.11 15.88,9.18 32.64,22.59 50.28,40.23 -7.05,21.87 -17.99,44.98 -32.81,69.33 -14.82,24.35 -30.34,49.93 -46.58,76.74 -16.23,26.82 -31.04,54.34 -44.45,82.57 -13.41,28.22 -22.23,56.8 -26.47,85.74 19.76,-28.23 43.23,-60.69 70.4,-97.39 27.16,-36.69 55.04,-71.27 83.62,-103.73 28.58,-32.46 56.98,-59.98 85.21,-82.57 28.23,-22.58 53.63,-33.87 76.21,-33.87 8.47,0 17.64,1.41 27.52,4.24 9.88,2.82 19.06,6.35 27.53,10.58 8.46,4.24 15.52,8.29 21.17,12.17 5.64,3.89 8.82,6.88 9.52,9 -3.53,14.11 -11.82,33.34 -24.87,57.69 -13.06,24.35 -27,49.93 -41.82,76.74 -14.81,26.82 -28.57,52.75 -41.28,77.8 -12.7,25.06 -20.11,44.99 -22.23,59.81 34.58,-47.28 67.04,-90.15 97.39,-128.61 30.34,-38.46 58.92,-71.45 85.74,-98.97 26.81,-27.52 51.69,-48.69 74.62,-63.51 22.94,-14.82 44.64,-22.23 65.1,-22.23 14.12,0 27.35,3.7 39.7,11.11 12.35,7.41 20.99,18.18 25.93,32.29 -6.35,21.17 -16.76,46.57 -31.23,76.21 -14.46,29.64 -29.11,60.87 -43.93,93.68 -14.81,32.81 -28.05,65.1 -39.69,96.85 -11.64,31.76 -17.46,60.34 -17.46,85.74 0,14.82 2.11,24.53 6.35,29.11 4.23,4.59 10.23,6.88 17.99,6.88 8.47,0 16.41,-1.58 23.82,-4.76 7.41,-3.18 12.88,-4.76 16.4,-4.76 4.24,2.82 6.71,6.35 7.41,10.58 0.71,4.24 1.06,8.12 1.06,11.65 -14.11,11.29 -28.58,20.64 -43.4,28.05 -14.82,7.41 -31.4,11.11 -49.75,11.11 -16.93,0 -30.87,-2.82 -41.81,-8.47 -10.94,-5.64 -19.93,-13.41 -26.99,-23.28 -7.06,-9.88 -12,-21.17 -14.82,-33.7 -2.82,-12.7 -4.23,-26.46 -4.23,-41.28 0,-24 3.17,-47.81 9.52,-71.45 6.35,-23.47 13.94,-46.05 22.76,-67.57 8.82,-21.52 18.17,-41.64 28.05,-60.16 9.88,-18.7 18.35,-35.46 25.41,-50.28z"/>
  <path class="fil1" d="M4894.71 4010.21l19.56 13.92 19.65 19.34 19.47 24.85 19.15 30.42 18.58 35.86 17.76 40.78 2.43 6.56 29.74 -67.68 33.01 -54.94 35.15 -38.63 35.96 -20.96 25.66 -2.57 502.22 0 14.16 1.32 17.34 5.16 17.62 9.05 17.74 13.22 17.97 17.76 18.03 22.69 17.66 27.25 9.43 17.44 11.33 -20.65 29.82 -39.72 28.52 -26.66 27.14 -16.62 29.61 -10.24 499.48 0 28.48 5.38 32.78 17.57 33.94 32.12 34.53 49.77 32.49 66.3 32.78 -74.76 34.9 -51.6 29.54 -26.84 22.88 -11.64 17.09 -4.47 13.27 -1.46 10.88 -0.36 9.88 -0.01 514.49 0c70.62,14.99 80.9,6.21 112.03,154.14 24.65,-154.82 59.81,-156.48 104.36,-154.14l553.68 0 18.51 5.04 17.04 8.09 18.6 13.22 20.04 19.86 27.43 88.76 12.45 -68.16 16.42 -19.77 16.56 -16.45 16.85 -13.13 17.35 -9.92 21.56 -7.54 664.56 -1.79 26.55 3.09 19.87 3.43 21.97 5.35 24.47 8.14 27.13 12.2 29.15 17.79 29.27 24.66 1.52 1.85 1.66 -0.77 2.07 -0.96 1.08 -0.49 1.2 -0.55 0.97 -0.44 0.97 -0.45 0.97 -0.44 0.98 -0.45 2.3 -1.04 1.97 -0.88 0.99 -0.43 0.97 -0.43 0.98 -0.44 0.97 -0.43 1.09 -0.48 0.98 -0.43 1.87 -0.83 4.62 -2 0.99 -0.42 0.76 -0.33 0.99 -0.42 1.19 -0.51 2.22 -0.94 1.67 -0.71 2.55 -1.05 0.99 -0.41 3.17 -1.32 1.69 -0.69 1.68 -0.69 3 -1.21 0.89 -0.35 1 -0.4 1.09 -0.44 1 -0.4 2.4 -0.95 3.99 -1.55 1.01 -0.39 0.79 -0.31 1 -0.39 1.44 -0.56 2.01 -0.77 2.18 -0.83 1.01 -0.37 1 -0.38 1.01 -0.37 1 -0.38 1.01 -0.38 1 -0.38 2.44 -0.9 2.01 -0.73 1.2 -0.43 1.01 -0.37 0.83 -0.3 1 -0.36 4.05 -1.46 2.46 -0.87 1.01 -0.35 1.29 -0.45 1.02 -0.36 0.92 -0.32 1.27 -0.44 1.1 -0.38 2.51 -0.86 8.46 -2.84 1.76 -0.59 2.18 -0.71 1.03 -0.33 1.02 -0.33 1.03 -0.33 1.02 -0.34 4.58 -1.45 2.25 -0.71 1.02 -0.32 1.28 -0.4 1.03 -0.31 0.77 -0.24 1.02 -0.31 1.27 -0.41 2.68 -0.81 10.12 -3.01 10.72 -3.07 10.76 -2.95 10.84 -2.86 10.92 -2.75 10.91 -2.62 10.97 -2.52 11.05 -2.42 11.03 -2.29 11.02 -2.18 11.14 -2.09 11.18 -1.97 11.13 -1.86 11.13 -1.74 11.36 -1.68 11.36 -1.55 11.22 -1.43 11.36 -1.34 11.47 -1.24 11.37 -1.12 11.4 -1.03 11.39 -0.92 11.49 -0.84 11.63 -0.73 11.52 -0.62 11.55 -0.53 11.64 -0.44 11.64 -0.33 11.6 -0.24 11.68 -0.15 11.85 -0.04 12.17 0.05 12.2 0.16 12.16 0.27 12.16 0.38 12.1 0.48 12.07 0.59 12 0.7 12.13 0.81 12.11 0.93 11.92 1.03 11.89 1.14 11.96 1.25 11.94 1.37 11.88 1.48 11.82 1.59 11.87 1.71 11.89 1.85 11.74 1.93 11.59 2.04 11.72 2.16 11.73 2.31 11.52 2.38 11.54 2.51 11.63 2.65 11.49 2.76 11.4 2.85 11.38 2.98 11.38 3.1 11.34 3.23 11.24 3.33 11.17 3.44 11.35 3.62 11.51 3.83 11.38 3.94 11.41 4.11 11.38 4.26 11.32 4.4 11.22 4.51 11.17 4.67 11.22 4.86 11.11 4.99 10.88 5.06 10.85 5.21 10.91 5.41 10.8 5.55 10.62 5.64 10.58 5.79 10.63 6.01 10.5 6.15 10.33 6.22 10.15 6.31 10.21 6.54 10.12 6.69 9.9 6.73 9.84 6.91 9.84 7.1 9.69 7.22 9.49 7.26 9.4 7.42 9.35 7.58 9.23 7.72 9.07 7.79 8.93 7.9 8.86 8.05 7.83 7.32 7.55 7.24 7.36 7.23 7.34 7.37 7.35 7.59 7.1 7.5 6.95 7.55 7 7.76 6.86 7.84 6.69 7.81 6.56 7.88 6.48 7.96 6.36 8.03 6.26 8.1 6.1 8.12 6.06 8.23 5.97 8.38 5.82 8.35 5.62 8.31 5.59 8.44 5.48 8.55 5.35 8.55 5.19 8.53 5.14 8.66 5.05 8.8 4.86 8.66 4.75 8.73 4.71 8.89 4.56 8.89 4.41 8.81 4.32 8.92 4.24 8.99 4.05 8.87 3.85 8.65 3.79 8.76 3.73 8.87 3.63 8.95 3.51 8.9 3.43 9.04 3.38 9.22 3.27 9.3 3.14 9.3 2.98 9.23 2.93 9.45 2.82 9.6 2.66 9.51 2.54 9.56 2.45 9.78 2.3 9.82 2.14 9.7 2.01 9.79 1.91 9.95 1.75 9.98 1.61 9.9 1.46 9.95 1.35 10.09 1.2 10.12 1.05 9.98 0.92 10.03 0.8 10.24 0.65 10.16 0.52 10.04 0.39 10.18 -165 198.58 161.41 211.6 -0.79 9.23 -0.9 9.3 -1 9.41 -1.09 9.29 -1.19 9.33 -1.31 9.37 -1.4 9.41 -1.53 9.41 -1.61 9.39 -1.75 9.38 -1.84 9.42 -2 9.51 -2.08 9.4 -2.22 9.47 -2.36 9.52 -2.49 9.51 -2.6 9.45 -2.72 9.41 -2.87 9.5 -3.02 9.51 -3.13 9.45 -3.26 9.42 -3.43 9.49 -3.55 9.43 -3.66 9.35 -3.83 9.4 -3.97 9.39 -4.12 9.36 -4.21 9.26 -4.39 9.3 -4.54 9.3 -4.58 9.06 -4.64 8.92 -4.74 8.83 -4.87 8.82 -5.04 8.83 -5.11 8.73 -5.2 8.62 -5.35 8.62 -5.45 8.53 -5.52 8.43 -5.65 8.39 -5.8 8.39 -5.88 8.25 -5.95 8.18 -6.1 8.15 -6.18 8.05 -6.31 8 -6.37 7.89 -6.5 7.84 -6.58 7.76 -6.68 7.68 -6.77 7.6 -6.94 7.6 -7.01 7.49 -7.05 7.35 -7.15 7.3 -7.24 7.21 -7.36 7.16 -7.46 7.08 -7.51 6.98 -7.61 6.9 -7.72 6.84 -8.67 7.51 -8.86 7.47 -8.94 7.35 -9.01 7.22 -9.14 7.13 -9.2 7 -9.38 6.95 -9.45 6.8 -9.57 6.72 -9.69 6.6 -9.74 6.46 -9.89 6.37 -9.94 6.22 -10.04 6.11 -10.21 6.03 -10.24 5.87 -10.33 5.73 -10.46 5.63 -10.59 5.53 -10.63 5.36 -10.69 5.22 -10.87 5.13 -10.88 4.96 -10.9 4.81 -11.09 4.71 -11.09 4.54 -11.23 4.43 -11.26 4.27 -11.36 4.15 -11.49 4.01 -11.46 3.85 -11.37 3.65 -11.08 3.42 -10.95 3.25 -11.04 3.16 -11.08 3.04 -11.07 2.91 -11.08 2.8 -11.2 2.7 -11.19 2.58 -11.15 2.46 -11.22 2.35 -11.36 2.26 -11.25 2.12 -11.3 2.03 -11.42 1.92 -11.32 1.79 -11.31 1.68 -11.39 1.59 -11.46 1.48 -11.41 1.37 -11.44 1.26 -11.48 1.16 -11.49 1.06 -11.48 0.94 -11.41 0.84 -11.58 0.76 -11.6 0.64 -11.55 0.54 -11.47 0.44 -11.63 0.35 -11.62 0.23 -11.57 0.15 -11.91 0.04 -18.1 -0.1 -18.43 -0.34 -18.39 -0.56 -18.26 -0.79 -18.19 -1.02 -18.22 -1.27 -18.14 -1.51 -17.95 -1.74 -17.93 -1.98 -17.93 -2.25 -17.86 -2.5 -17.71 -2.75 -17.66 -3.01 -17.62 -3.28 -17.55 -3.55 -17.36 -3.81 -17.28 -4.06 -17.29 -4.38 -17.18 -4.65 -16.99 -4.92 -16.89 -5.18 -16.87 -5.51 -16.72 -5.79 -14.74 -5.4 -23.8 13.81 -24.04 11.15 -23.08 8.59 -22.1 6.56 -42.44 9.97 -620.61 -0.5c-30.16,-4.83 -56.84,-15.95 -75.88,-40.89l-14.61 -17.07 -14.57 -19.47 -14.58 -22.09 -14.52 -24.88 -14.36 -27.6 -14.13 -30.43 -13.78 -33.13 -13.39 -35.85 -0.51 -1.53 -11.51 35.43 -21.5 54.88 -23.28 48.15 -24.6 40.34 -25.47 31.6 -25.57 22.59 -25.25 13.97 -23.66 5.98 -509.14 0 -17.76 0.67 -29.37 -8.22 -30.43 -19.4 -30.91 -32.13 -21.45 -32.21 -4.75 7.9 -26.81 33.44 -25.52 22.99 -23.98 14.81 -22.66 8.52 -21.27 3.63 -528.42 0 -23.9 -7.37 -22.76 -13.01 -23.86 -20.8 -24.58 -29.87 -24.76 -39.93 -24.34 -50.49 -6.19 -16.25 -8.81 18.44 -9.95 19.11 -10.1 17.9 -10.23 16.49 -9.97 14.75 -9.82 13.21 -9.89 12.15 -9.89 10.92 -9.58 9.53 -9.45 8.4 -9.44 7.49 -9.3 6.44 -8.94 5.41 -8.83 4.59 -8.74 3.86 -8.56 3.09 -8.28 2.41 -8.11 1.8 -10.99 1.73 -457.65 0 -19.19 -0.57 -25.31 -6.19 -26.82 -13.48 -28.48 -23.04 -29.94 -35.47 -13.07 -21.46 -12.36 20.35 -28.28 34.47 -27.23 23.3 -25.86 14.21 -24.47 6.92 -18.36 0.96 -499.33 0 -19.69 -0.35 -29.85 -10 -31.84 -22.69 -33.21 -38.56 -33.3 -56.83 -7.44 -17.68 -24.54 46.84 -27.76 39.82 -26.89 27.8 -25.48 17.9 -23.98 10.01 -21.36 3.74 -517.33 0c-51.47,-3.85 -66.83,-55.29 -77.87,-102.44 -6.7,47.81 -40.17,101.87 -76.41,102.41l-632.08 0.53 -8.23 -0.06 -10.4 -0.31 -10.53 -0.59 -10.85 -0.88 -11.03 -1.23 -11.11 -1.55 -11.39 -1.96 -11.69 -2.4 -11.77 -2.85 -11.78 -3.3 -11.93 -3.82 -12.22 -4.45 -12.14 -5.01 -11.97 -5.53 -11.96 -6.2 -11.86 -6.82 -11.63 -7.47 -11.24 -8 -10.78 -8.52 -10.41 -9.08 -9.93 -9.62 -9.29 -9.96 -8.63 -10.27 -7.95 -10.48 -7.33 -10.77 -6.68 -10.95 -5.98 -10.99 -5.25 -10.85 -4.67 -10.92 -4.11 -10.93 -3.5 -10.75 -2.5 -8.92 -13.92 -54.13 -95.65 0 -7.7 29.95 -2.7 10.56 -4.19 13.35 -4.23 11.95 -4.78 11.94 -5.4 12.07 -6.12 12.12 -6.76 12.02 -7.46 11.85 -8.28 11.87 -9.11 11.66 -9.8 11.28 -10.49 10.83 -11.22 10.44 -11.85 9.83 -12.2 9.11 -12.68 8.46 -13.07 7.78 -13.19 6.95 -13.02 6.11 -12.9 5.34 -12.81 4.68 -12.43 3.94 -11.9 3.31 -11.6 2.78 -11.17 2.3 -10.63 1.84 -10.04 1.47 -9.55 1.14 -9.05 0.89 -8.41 0.64 -7.84 0.48 -7.38 0.33 -9.37 0.3 -637.51 0 -12.68 -0.18 -17.23 -1.06 -18.19 -2.12 -19.14 -3.38 -20.11 -4.96 -20.82 -6.77 -21.09 -8.8 -21.08 -10.99 -20.63 -13.34 -19.24 -15.32 -17.41 -16.97 -15.21 -18.23 -12.84 -18.99 -10.27 -19.06 -7.95 -18.7 -5.8 -17.97 -4.06 -17.05 -2.59 -16.24 -1.39 -15.27 -0.41 -14.17 0.33 -13.29 0.94 -12.6 1.42 -11.89 1.79 -11.13 2.07 -10.58 2.36 -10.17 2.55 -9.77 2.71 -9.35 2.87 -9.1 3.04 -8.9 3.13 -8.64 1.2 -3.12 116.82 -350.88 -512.33 -534.84 689.78 1.85 2.76 -8.27 12.41 -37.31 12.41 -37.26 12.38 -37.21 12.37 -37.15 12.35 -37.13 12.36 -37.11 12.34 -37.08 12.34 -37.04 12.32 -37.03 12.32 -37.01 12.31 -37.01 12.33 -37.01 12.3 -36.99 12.33 -37.02 12.32 -37.02 12.32 -37.02 12.33 -37.05 12.34 -37.08 12.35 -37.1 12.36 -37.12 12.37 -37.16 12.39 -37.23 12.4 -37.26 12.42 -37.3 12.44 -37.37 12.46 -37.41 12.48 -37.49 13.4 -40.24 5.18 -14.1 6.6 -15.65 7.95 -16.35 9.5 -16.85 11.39 -17.4 13.63 -17.74 16.09 -17.78 18.59 -17.21 21.07 -16.24 23.45 -14.76 25.26 -12.74 26.38 -10.32 26.88 -7.84 26.9 -5.4 26.29 -3.14 22.99 -1.06 627.84 0 20.47 0.54 23.51 1.86 24.8 3.5 26.23 5.69 27.42 8.44 27.98 11.71 27.31 15.09 25.34 18.12 22 20.05 17.97 20.56 13.96 19.76 10.44 17.96 7.57 15.5 5.46 12.86 3.92 10.28 3.32 9.26 21.63 64.97 20.45 61.43 20.42 61.35 20.41 61.27 20.37 61.2 20.35 61.12 20.33 61.06 20.31 61 20.3 60.97 20.28 60.9 20.26 60.86 20.25 60.83 19.38 58.19 0 -167.19 0.01 -6.27 0.1 -7.01 0.2 -7.4 0.34 -7.68 0.5 -8.06 0.74 -8.69 1.04 -9.19 1.39 -9.69 1.85 -10.35 2.46 -11.12 3.19 -11.92 4.06 -12.53 5.11 -13.28 6.39 -13.93 7.8 -14.43 9.33 -14.62 10.87 -14.57 12.52 -14.28 14.01 -13.7 15.18 -12.61 16.09 -11.46 16.8 -10.11 16.99 -8.69 16.68 -7.15 16.26 -5.88 16.05 -4.78 15.39 -3.75 14.6 -2.84 14.02 -2.15 13.56 -1.54 12.91 -1.04 15.3 -0.77 504.7 1.79 12.55 -0.06 19.11 4.25 19.29 8.86z"/>
  <path class="fil2" d="M5763.47 4219.92l0 1562.52 -643.2 0 0 -555.64 -182.53 0 0 555.64 -644.34 0 0 -1562.52 644.34 0 0 527.46 182.53 0 0 -527.46 643.2 0zm-2776.51 1302.95l-66.72 259.57 -782.77 0 192.18 -577.24 -346.51 -266.87 435.37 0 418.2 -1256.06 745.2 0 38.15 114.6 20.46 61.44 20.42 61.35 20.4 61.27 20.37 61.2 20.36 61.12 20.32 61.06 20.32 61.01 20.29 60.95 20.28 60.91 20.27 60.86 20.25 60.83 20.24 60.8 40.46 121.52 20.23 60.74 20.22 60.74 20.21 60.72 20.22 60.73 20.23 60.74 20.22 60.75 20.23 60.77 20.24 60.79 20.26 60.83 20.26 60.86 20.28 60.9 20.29 60.94 20.31 61 20.32 61.06 20.35 61.11 20.38 61.19 52.41 157.38 -782.78 0 -66.73 -259.57 -444.69 0zm6740.59 -717.49l-0.58 -2.64 -0.73 -3.36 -0.84 -3.95 -0.94 -4.59 -1.02 -5.26 -0.97 -5.42 -0.88 -4.76 -0.85 -4.25 -0.89 -4.1 -0.92 -3.93 -0.96 -3.82 -1 -3.7 -1.02 -3.58 -1.04 -3.4 -1.07 -3.25 -1.09 -3.16 -1.11 -3.04 -1.11 -2.88 -1.12 -2.72 -1.13 -2.65 -1.15 -2.52 -1.12 -2.36 -1.11 -2.21 -1.17 -2.27 -1.18 -2.19 -1.2 -2.13 -1.19 -2.05 -1.21 -2.01 -1.25 -1.98 -1.23 -1.89 -1.23 -1.82 -1.27 -1.82 -1.3 -1.78 -1.26 -1.68 -1.29 -1.63 -1.34 -1.65 -1.33 -1.58 -1.29 -1.48 -1.3 -1.42 -1.36 -1.45 -1.38 -1.4 -1.37 -1.34 -1.38 -1.31 -1.4 -1.28 -1.46 -1.28 -1.41 -1.19 -1.4 -1.13 -1.48 -1.16 -1.5 -1.13 -1.5 -1.08 -1.51 -1.05 -1.6 -1.06 -1.6 -1.03 -1.57 -0.96 -1.62 -0.95 -1.74 -0.98 -1.75 -0.95 -1.69 -0.88 -1.66 -0.82 -1.74 -0.83 -1.76 -0.8 -1.65 -0.71 -1.67 -0.69 -1.78 -0.69 -1.77 -0.66 -1.76 -0.62 -1.75 -0.58 -1.77 -0.55 -1.85 -0.54 -1.79 -0.49 -1.76 -0.45 -1.87 -0.44 -1.93 -0.42 -1.9 -0.39 -1.94 -0.35 -2.01 -0.34 -1.98 -0.29 -1.99 -0.27 -2.07 -0.24 -2.1 -0.21 -2.18 -0.18 -2.17 -0.15 -2.18 -0.12 -2.29 -0.08 -2.32 -0.05 -2.29 -0.02 -3.01 0.02 -2.95 0.07 -2.87 0.12 -2.76 0.16 -2.74 0.21 -2.66 0.25 -2.56 0.29 -2.45 0.32 -2.4 0.35 -2.36 0.4 -2.29 0.44 -2.22 0.46 -2.11 0.49 -2.09 0.53 -2.09 0.57 -1.98 0.59 -1.87 0.6 -1.89 0.64 -1.83 0.68 -1.76 0.69 -1.76 0.74 -1.73 0.77 -1.66 0.78 -1.6 0.8 -1.63 0.86 -1.61 0.9 -1.58 0.93 -1.55 0.96 -1.52 1 -1.5 1.02 -1.48 1.08 -1.52 1.14 -1.55 1.23 -1.59 1.32 -1.64 1.41 -1.61 1.45 -1.63 1.53 -1.63 1.6 -1.66 1.68 -1.66 1.76 -1.65 1.83 -1.69 1.92 -1.7 2.03 -1.7 2.09 -1.71 2.19 -1.7 2.26 -1.7 2.35 -1.71 2.44 -1.71 2.54 -1.69 2.59 -1.7 2.72 -1.71 2.81 -1.69 2.89 -1.68 2.97 -1.67 3.08 -1.68 3.18 -1.66 3.27 -1.64 3.33 -1.63 3.45 -1.63 3.56 -1.61 3.62 -1.57 3.71 -1.58 3.82 -1.58 3.99 -1.01 2.61 -1 2.64 -0.98 2.68 -0.97 2.72 -0.95 2.73 -0.93 2.74 -0.91 2.77 -0.9 2.82 -0.9 2.88 -0.86 2.84 -0.83 2.81 -0.82 2.88 -0.82 2.95 -0.79 2.93 -0.76 2.93 -0.76 3 -0.73 3.01 -0.71 3.01 -0.69 3.03 -0.67 3.04 -0.67 3.12 -0.63 3.09 -0.6 3.06 -0.6 3.14 -0.58 3.23 -0.56 3.17 -0.53 3.17 -0.51 3.2 -0.49 3.26 -0.47 3.25 -0.45 3.25 -0.44 3.34 -0.43 3.44 -0.42 3.49 -0.4 3.54 -0.39 3.66 -0.39 3.77 -0.37 3.81 -0.36 3.89 -0.35 4 -0.35 4.07 -0.32 4.12 -0.31 4.2 -0.3 4.28 -0.29 4.37 -0.27 4.44 -0.26 4.49 -0.24 4.59 -0.24 4.71 -0.22 4.71 -0.2 4.8 -0.19 4.9 -0.19 4.96 -0.16 5.01 -0.15 5.08 -0.12 5.15 -0.12 5.29 -0.1 5.31 -0.09 5.36 -0.07 5.45 -0.06 5.54 -0.03 5.6 -0.03 5.65 0 5.74 0 6.66 0.03 6.56 0.04 6.42 0.06 6.34 0.08 6.26 0.09 6.16 0.12 6.04 0.13 5.96 0.15 5.88 0.16 5.75 0.18 5.66 0.21 5.57 0.21 5.47 0.24 5.35 0.25 5.24 0.27 5.17 0.28 5.09 0.31 4.93 0.31 4.83 0.34 4.74 0.35 4.66 0.37 4.53 0.39 4.41 0.4 4.34 0.42 4.22 0.43 4.08 0.44 3.98 0.46 3.88 0.48 3.79 0.48 3.62 0.5 3.5 0.52 3.49 0.54 3.43 0.55 3.33 0.57 3.3 0.61 3.29 0.62 3.3 0.64 3.19 0.66 3.17 0.7 3.2 0.71 3.17 0.72 3.07 0.74 3.02 0.78 3.04 0.79 3.01 0.8 2.93 0.83 2.9 0.86 2.93 0.88 2.89 0.89 2.82 0.91 2.79 0.93 2.77 0.96 2.74 0.96 2.69 0.98 2.62 1.02 2.66 1.04 2.64 1.03 2.54 1.07 2.53 1.08 2.5 1.11 2.49 1.12 2.45 1.13 2.39 1.18 2.4 1.54 3.1 1.51 2.93 1.52 2.85 1.56 2.84 1.55 2.74 1.53 2.63 1.56 2.59 1.59 2.56 1.6 2.49 1.55 2.34 1.58 2.32 1.61 2.28 1.56 2.15 1.56 2.07 1.57 2.03 1.61 2 1.62 1.96 1.56 1.82 1.55 1.75 1.58 1.72 1.59 1.68 1.57 1.58 1.51 1.49 1.56 1.47 1.61 1.48 1.53 1.35 1.47 1.24 1.55 1.25 1.55 1.22 1.5 1.13 1.5 1.09 1.52 1.05 1.54 1.03 1.43 0.9 1.43 0.87 1.52 0.88 1.54 0.84 1.49 0.78 1.5 0.75 1.63 0.76 1.63 0.73 1.58 0.66 1.64 0.65 1.73 0.65 1.72 0.6 1.76 0.58 1.83 0.56 1.92 0.55 1.94 0.51 1.95 0.48 2.03 0.46 2.11 0.43 2.12 0.4 2.17 0.37 2.28 0.34 2.37 0.32 2.44 0.29 2.46 0.24 2.49 0.21 2.61 0.18 2.7 0.14 2.72 0.09 2.84 0.07 3.03 0.02 2.52 -0.01 2.46 -0.05 2.46 -0.08 2.48 -0.11 2.36 -0.12 2.25 -0.16 2.27 -0.19 2.29 -0.22 2.15 -0.24 2.02 -0.25 2.05 -0.29 2.04 -0.32 1.96 -0.33 1.88 -0.35 1.83 -0.37 1.82 -0.4 1.78 -0.41 1.73 -0.44 1.68 -0.45 1.65 -0.47 1.52 -0.47 1.48 -0.48 1.55 -0.53 1.48 -0.54 1.45 -0.55 1.46 -0.59 1.33 -0.56 1.3 -0.59 1.35 -0.63 1.32 -0.65 1.26 -0.64 0.8 -0.43 2.63 -1.52 2.24 -1.43 2.35 -1.63 2.46 -1.85 2.51 -2.05 2.61 -2.3 2.7 -2.55 2.77 -2.81 2.8 -3.04 2.87 -3.32 2.94 -3.62 2.94 -3.86 2.98 -4.15 3 -4.42 2.99 -4.67 3.11 -5.15 1.99 -3.43 2.04 -3.63 1.97 -3.61 1.91 -3.6 1.83 -3.58 1.77 -3.58 1.7 -3.56 1.63 -3.55 1.55 -3.52 1.5 -3.53 1.43 -3.54 1.35 -3.51 1.28 -3.47 1.21 -3.47 1.16 -3.52 1.22 -3.92 1.35 -4.4 1.34 -4.25 1.15 -3.54 0.9 -2.76 0.63 -1.99 0.23 -0.75 0.06 -1.14 0.07 -2.22 0.04 -3.11 0.38 -78.27 607.43 -1.93 -6.73 87.3 -0.65 7.52 -0.72 7.5 -0.8 7.5 -0.88 7.47 -0.95 7.43 -1.03 7.42 -1.11 7.42 -1.19 7.39 -1.27 7.36 -1.36 7.34 -1.44 7.32 -1.54 7.32 -1.61 7.29 -1.71 7.28 -1.8 7.26 -1.9 7.26 -1.98 7.21 -2.08 7.19 -2.17 7.19 -2.28 7.18 -2.37 7.14 -2.47 7.13 -2.57 7.12 -2.67 7.1 -2.77 7.06 -2.87 7.06 -2.97 7.03 -3.09 7.02 -3.18 6.99 -3.29 6.98 -3.4 6.96 -3.49 6.89 -3.54 6.82 -3.63 6.75 -3.71 6.71 -3.8 6.69 -3.89 6.63 -3.96 6.56 -4.05 6.53 -4.13 6.47 -4.2 6.4 -4.29 6.37 -4.38 6.33 -4.45 6.26 -4.53 6.22 -4.61 6.16 -4.68 6.1 -4.78 6.05 -4.83 6 -4.93 5.94 -5 5.89 -5.07 5.84 -5.15 5.77 -5.24 5.74 -5.31 5.68 -5.37 5.6 -5.45 5.56 -5.53 5.51 -5.6 5.44 -5.68 5.4 -5.74 5.32 -5.82 5.28 -5.89 5.23 -6.71 5.8 -6.77 5.72 -6.85 5.63 -6.91 5.54 -6.98 5.44 -7.03 5.35 -7.12 5.27 -7.17 5.17 -7.25 5.08 -7.32 4.99 -7.38 4.89 -7.44 4.8 -7.51 4.7 -7.57 4.6 -7.64 4.52 -7.71 4.41 -7.76 4.31 -7.83 4.22 -7.91 4.12 -7.97 4.02 -8.01 3.92 -8.1 3.82 -8.15 3.71 -8.18 3.61 -8.28 3.51 -8.32 3.41 -8.39 3.31 -8.44 3.2 -8.51 3.11 -8.57 3 -8.62 2.89 -8.62 2.77 -8.6 2.65 -8.59 2.56 -8.65 2.46 -8.67 2.38 -8.71 2.3 -8.74 2.2 -8.79 2.13 -8.81 2.03 -8.85 1.94 -8.88 1.87 -8.95 1.78 -8.95 1.69 -8.98 1.61 -9.05 1.52 -9.05 1.43 -9.07 1.35 -9.12 1.27 -9.16 1.18 -9.19 1.11 -9.21 1.01 -9.25 0.94 -9.27 0.85 -9.32 0.77 -9.31 0.68 -9.37 0.61 -9.42 0.52 -9.44 0.45 -9.43 0.35 -9.49 0.29 -9.52 0.19 -9.55 0.13 -9.64 0.03 -15.46 -0.09 -15.43 -0.28 -15.31 -0.47 -15.18 -0.66 -15.06 -0.84 -14.95 -1.04 -14.84 -1.23 -14.68 -1.43 -14.57 -1.61 -14.46 -1.81 -14.34 -2.01 -14.19 -2.21 -14.09 -2.39 -13.96 -2.61 -13.84 -2.8 -13.68 -2.99 -13.56 -3.2 -13.46 -3.4 -13.32 -3.61 -13.16 -3.8 -13.04 -4.01 -12.92 -4.22 -12.78 -4.42 -12.61 -4.62 -12.49 -4.83 -12.35 -5.04 -12.22 -5.25 -12.05 -5.45 -11.9 -5.64 -11.76 -5.87 -11.62 -6.07 -11.36 -6.23 -11.1 -6.32 -10.9 -6.46 -10.76 -6.6 -10.59 -6.74 -10.45 -6.89 -10.29 -7.05 -10.14 -7.18 -9.97 -7.32 -9.82 -7.46 -9.67 -7.62 -9.52 -7.76 -9.35 -7.9 -9.19 -8.03 -9.03 -8.17 -8.9 -8.33 -8.7 -8.46 -8.53 -8.56 -8.41 -8.73 -8.24 -8.87 -8.06 -8.99 -7.91 -9.12 -7.75 -9.27 -7.59 -9.39 -7.41 -9.51 -7.26 -9.64 -7.1 -9.77 -6.94 -9.9 -6.77 -10.02 -6.62 -10.13 -6.46 -10.27 -6.3 -10.4 -6.05 -10.37 -3.17 -5.58 -3.09 -5.56 -3.03 -5.57 -2.97 -5.58 -2.93 -5.63 -2.9 -5.68 -2.85 -5.73 -2.77 -5.7 -2.74 -5.75 -2.69 -5.8 -2.65 -5.84 -2.59 -5.87 -2.54 -5.87 -2.51 -5.94 -2.46 -5.99 -2.38 -5.97 -2.34 -5.98 -2.31 -6.08 -2.26 -6.11 -2.19 -6.1 -2.16 -6.15 -2.1 -6.21 -2.05 -6.22 -1.99 -6.23 -1.95 -6.27 -1.89 -6.3 -1.85 -6.34 -1.79 -6.38 -1.75 -6.41 -1.68 -6.43 -1.64 -6.46 -1.58 -6.48 -1.54 -6.52 -1.49 -6.61 -1.44 -6.61 -1.38 -6.64 -1.34 -6.68 -1.29 -6.73 -1.23 -6.75 -1.18 -6.76 -1.14 -6.8 -1.09 -6.88 -1.03 -6.88 -0.98 -6.9 -0.94 -6.95 -0.89 -6.98 -0.84 -7.02 -0.78 -7.03 -0.74 -7.05 -0.69 -7.11 -0.65 -7.15 -0.59 -7.15 -0.55 -7.2 -0.5 -7.27 -0.45 -7.27 -0.4 -7.29 -0.35 -7.31 -0.31 -7.37 -0.26 -7.41 -0.21 -7.43 -0.17 -7.44 -0.11 -7.5 -0.07 -7.53 -0.02 -7.61 0.06 -13.28 0.2 -13.24 0.34 -13.15 0.47 -13.04 0.61 -12.94 0.75 -12.85 0.89 -12.74 1.02 -12.64 1.17 -12.52 1.3 -12.42 1.44 -12.34 1.59 -12.23 1.72 -12.13 1.88 -12.03 2.01 -11.93 2.16 -11.82 2.3 -11.72 2.45 -11.63 2.59 -11.52 2.74 -11.41 2.88 -11.32 3.05 -11.23 3.18 -11.12 3.35 -11.02 3.48 -10.89 3.64 -10.82 3.8 -10.71 3.94 -10.58 4.1 -10.5 4.27 -10.42 4.42 -10.28 4.54 -10.12 4.63 -9.92 4.76 -9.81 4.87 -9.7 5.01 -9.61 5.13 -9.52 5.26 -9.43 5.39 -9.33 5.52 -9.24 5.63 -9.14 5.78 -9.05 5.9 -8.96 6.03 -8.86 6.15 -8.75 6.28 -8.65 6.4 -8.56 6.54 -8.47 6.65 -8.36 6.79 -8.27 6.91 -8.16 7.03 -8.06 7.16 -7.96 7.28 -7.85 7.4 -7.75 7.53 -7.66 7.66 -7.55 7.77 -7.44 7.89 -7.33 8.01 -7.24 8.13 -7.12 8.25 -7.02 8.37 -6.92 8.44 -6.77 6.87 -5.37 6.86 -5.25 6.91 -5.17 6.97 -5.1 6.99 -5 7.04 -4.92 7.08 -4.84 7.14 -4.77 7.21 -4.69 7.21 -4.58 7.27 -4.51 7.33 -4.43 7.36 -4.33 7.43 -4.27 7.45 -4.16 7.51 -4.08 7.55 -4 7.59 -3.9 7.64 -3.82 7.69 -3.74 7.75 -3.64 7.77 -3.55 7.82 -3.47 7.87 -3.38 7.92 -3.28 7.97 -3.2 7.99 -3.1 8.05 -3.02 8.09 -2.92 8.13 -2.83 8.18 -2.74 8.22 -2.65 8.19 -2.54 8.22 -2.45 8.28 -2.37 8.34 -2.29 8.39 -2.2 8.46 -2.14 8.49 -2.04 8.55 -1.96 8.61 -1.89 8.66 -1.8 8.69 -1.71 8.76 -1.64 8.81 -1.56 8.84 -1.48 8.88 -1.39 8.98 -1.32 9.03 -1.23 9.04 -1.16 9.1 -1.07 9.18 -0.99 9.19 -0.91 9.25 -0.83 9.29 -0.76 9.36 -0.67 9.42 -0.6 9.44 -0.51 9.49 -0.44 9.57 -0.35 9.6 -0.28 9.64 -0.19 9.69 -0.13 9.79 -0.04 10.09 0.05 10.05 0.13 10.01 0.22 9.98 0.31 9.93 0.4 9.89 0.48 9.83 0.57 9.83 0.66 9.79 0.75 9.71 0.84 9.67 0.93 9.64 1 9.62 1.11 9.55 1.19 9.51 1.28 9.49 1.37 9.46 1.47 9.37 1.54 9.31 1.64 9.31 1.72 9.27 1.82 9.18 1.9 9.16 1.99 9.14 2.08 9.07 2.18 9 2.25 8.97 2.35 8.93 2.43 8.88 2.53 8.83 2.62 8.78 2.7 8.78 2.8 8.8 2.93 8.74 3.03 8.69 3.12 8.65 3.24 8.57 3.33 8.51 3.43 8.45 3.53 8.43 3.65 8.33 3.74 8.24 3.83 8.19 3.93 8.14 4.05 8.08 4.15 7.99 4.24 7.93 4.34 7.9 4.47 7.81 4.56 7.73 4.66 7.63 4.74 7.6 4.87 7.52 4.97 7.41 5.05 7.37 5.16 7.32 5.29 7.21 5.37 7.13 5.46 7.06 5.57 6.99 5.66 6.9 5.78 6.82 5.86 6.74 5.96 6.67 6.06 5.83 5.45 5.7 5.46 5.59 5.49 5.55 5.58 5.48 5.66 5.37 5.67 5.28 5.73 5.24 5.82 5.16 5.88 5.05 5.91 4.97 5.96 4.89 6.02 4.81 6.07 4.74 6.13 4.64 6.17 4.59 6.24 4.5 6.31 4.41 6.34 4.32 6.37 4.25 6.43 4.17 6.5 4.09 6.53 3.99 6.57 3.94 6.64 3.86 6.71 3.76 6.71 3.68 6.76 3.62 6.83 3.52 6.87 3.45 6.89 3.37 6.96 3.3 7 3.2 7 3.08 6.92 3 6.94 2.92 6.95 2.83 6.97 2.73 6.94 2.66 6.98 2.57 7.03 2.48 7.04 2.37 7.03 2.28 7.04 2.2 7.11 2.1 7.14 1.99 7.13 1.9 7.16 1.81 7.24 1.71 7.28 1.6 7.26 1.51 7.31 1.41 7.37 1.3 7.42 1.2 7.42 1.1 7.47 1.01 7.55 0.9 7.59 0.8 7.59 0.7 7.67 0.61 7.74 0.5 7.78 0.4 7.81 0.31 7.89 2.23 83.82 -612.43 0.67 -0.53 -78.58 -0.07 -3.15 -0.09 -2.36 -0.1 -1.63 -0.1 -1.11 -0.09 -0.81 -0.11 -0.71 -0.14 -0.84 -0.27 -1.34 -0.42 -1.96zm-1625.83 -411.9l130.28 -173.56 737.02 0 -500.04 651.07 634.36 911.45 -736.4 0 -265.22 -382.31 0 382.31 -644.33 0 0 -1562.52 644.33 0 0 173.56zm-1369.49 -173.56l613.23 0 0 1562.52 -643.2 0 0 -411.89 -212.47 411.89 -614.4 0 0 -1562.52 644.34 0 0 411.51 212.5 -411.51z"/>
  <path class="fil3" d="M5660.15 4315.6l0 1371.16 -436.03 0 0 -555.64 -389.7 0 0 555.64 -437.17 0 0 -1371.16 437.17 0 0 527.46 389.7 0 0 -527.46 436.03 0zm-2079.64 1371.16l-66.72 -259.58 -608.44 0 -66.72 259.58 -560.66 0 171.22 -514.29 -179.77 -138.46 225.87 0 418.2 -1256.06 592.16 0 15.67 47.08 20.46 61.43 20.42 61.35 20.4 61.27 20.38 61.19 20.35 61.13 20.33 61.06 20.31 61.01 20.29 60.95 20.28 60.91 20.27 60.86 20.25 60.83 20.24 60.8 20.23 60.77 20.23 60.76 20.23 60.74 20.22 60.73 20.21 60.72 20.22 60.73 20.23 60.74 20.22 60.75 20.23 60.77 20.24 60.79 20.26 60.83 20.26 60.86 20.28 60.9 20.29 60.94 20.31 61 20.33 61.06 20.35 61.12 20.37 61.18 11.17 33.55 -560.67 0zm-391.5 -1363.07l-182.59 710.32 406.3 0 -181.76 -707.07 -13.71 -41.94 -28.24 38.69zm6628.55 408.02l-0.72 -2.53 -0.73 -2.49 -0.74 -2.47 -0.76 -2.45 -0.78 -2.42 -0.79 -2.38 -0.8 -2.35 -0.82 -2.33 -0.83 -2.3 -0.84 -2.27 -0.85 -2.23 -0.86 -2.21 -0.89 -2.19 -0.89 -2.15 -0.9 -2.12 -0.91 -2.1 -0.93 -2.06 -0.93 -2.03 -0.95 -2.01 -0.97 -2.01 -1.78 -3.57 -1.83 -3.53 -1.88 -3.49 -1.92 -3.44 -1.98 -3.4 -2.02 -3.34 -2.07 -3.31 -2.12 -3.25 -2.17 -3.21 -2.22 -3.16 -2.27 -3.12 -2.31 -3.06 -2.36 -3.01 -2.41 -2.96 -2.46 -2.92 -2.51 -2.86 -2.56 -2.81 -2.61 -2.76 -2.65 -2.71 -2.7 -2.65 -2.75 -2.62 -2.8 -2.54 -2.85 -2.5 -2.89 -2.44 -2.95 -2.39 -2.99 -2.34 -3.04 -2.28 -3.08 -2.22 -3.13 -2.18 -3.19 -2.11 -3.22 -2.06 -3.26 -2 -3.29 -1.93 -3.31 -1.88 -3.34 -1.8 -3.37 -1.75 -3.38 -1.68 -3.42 -1.63 -3.44 -1.56 -3.47 -1.5 -3.49 -1.44 -3.52 -1.38 -3.55 -1.31 -3.57 -1.25 -3.59 -1.19 -3.61 -1.13 -3.65 -1.06 -3.66 -1 -3.68 -0.94 -3.71 -0.88 -3.74 -0.82 -3.75 -0.76 -3.77 -0.69 -3.8 -0.63 -3.82 -0.57 -3.84 -0.51 -3.86 -0.45 -3.88 -0.39 -3.9 -0.33 -3.92 -0.26 -3.95 -0.21 -3.96 -0.15 -3.99 -0.09 -4 -0.03 -4.83 0.04 -4.8 0.12 -4.77 0.19 -4.71 0.28 -4.67 0.35 -4.63 0.43 -4.59 0.52 -4.53 0.59 -4.51 0.67 -4.46 0.75 -4.42 0.84 -4.37 0.92 -4.32 0.99 -4.28 1.08 -4.24 1.16 -4.18 1.25 -4.14 1.32 -4.1 1.41 -4.06 1.49 -3.99 1.57 -3.95 1.65 -3.91 1.74 -3.86 1.82 -3.78 1.9 -3.75 1.98 -3.7 2.07 -3.65 2.14 -3.58 2.23 -3.54 2.31 -3.48 2.39 -3.42 2.46 -3.35 2.54 -3.29 2.6 -3.26 2.7 -3.21 2.77 -3.16 2.85 -3.12 2.92 -3.07 3.01 -3.04 3.09 -2.98 3.16 -2.94 3.23 -2.9 3.32 -2.86 3.39 -2.81 3.48 -2.77 3.54 -2.71 3.62 -2.68 3.69 -2.63 3.76 -2.59 3.84 -2.55 3.91 -2.51 3.99 -2.46 4.07 -2.42 4.14 -2.38 4.21 -2.33 4.28 -2.29 4.35 -2.25 4.43 -2.21 4.49 -2.17 4.58 -2.13 4.64 -2.08 4.72 -2.05 4.8 -2 4.86 -1.95 4.91 -1.31 3.38 -1.27 3.38 -1.25 3.4 -1.22 3.43 -1.2 3.45 -1.17 3.46 -1.15 3.49 -1.12 3.49 -1.1 3.5 -1.07 3.54 -1.05 3.57 -1.02 3.58 -0.99 3.58 -0.97 3.61 -0.95 3.64 -0.91 3.63 -0.9 3.65 -0.87 3.68 -0.84 3.71 -0.82 3.7 -0.79 3.73 -0.77 3.75 -0.74 3.77 -0.71 3.77 -0.69 3.78 -0.67 3.82 -0.64 3.84 -0.61 3.83 -0.59 3.85 -0.56 3.89 -0.54 3.89 -0.5 3.89 -0.5 3.93 -0.47 3.99 -0.46 4.06 -0.44 4.12 -0.43 4.19 -0.42 4.26 -0.4 4.34 -0.39 4.38 -0.37 4.45 -0.36 4.53 -0.34 4.6 -0.32 4.66 -0.32 4.72 -0.29 4.8 -0.28 4.87 -0.27 4.92 -0.24 4.98 -0.24 5.06 -0.22 5.14 -0.2 5.19 -0.19 5.25 -0.17 5.33 -0.16 5.4 -0.14 5.45 -0.12 5.53 -0.11 5.59 -0.09 5.66 -0.07 5.72 -0.06 5.78 -0.04 5.86 -0.03 5.92 -0.01 5.99 0.01 6.86 0.03 6.79 0.04 6.69 0.07 6.61 0.08 6.51 0.1 6.43 0.11 6.34 0.14 6.25 0.16 6.15 0.17 6.08 0.19 5.98 0.22 5.9 0.23 5.8 0.25 5.72 0.27 5.64 0.29 5.54 0.31 5.44 0.32 5.37 0.35 5.27 0.37 5.19 0.39 5.1 0.41 5.02 0.42 4.92 0.45 4.84 0.47 4.74 0.49 4.67 0.51 4.58 0.54 4.5 0.55 4.4 0.58 4.32 0.6 4.24 0.62 4.14 0.64 4.08 0.67 4.05 0.71 4.04 0.73 4 0.75 3.98 0.8 3.96 0.81 3.93 0.85 3.91 0.88 3.88 0.91 3.87 0.94 3.84 0.97 3.81 1 3.78 1.03 3.77 1.06 3.75 1.1 3.71 1.12 3.69 1.16 3.66 1.18 3.64 1.22 3.62 1.25 3.59 1.29 3.58 1.31 3.54 1.35 3.52 1.38 3.5 1.42 3.47 1.45 3.45 1.48 3.42 1.51 3.39 1.55 3.38 1.58 3.34 1.62 3.33 2.01 4.02 2.05 3.97 2.09 3.92 2.12 3.87 2.16 3.81 2.19 3.76 2.23 3.7 2.26 3.64 2.29 3.58 2.34 3.53 2.37 3.48 2.4 3.41 2.45 3.37 2.49 3.3 2.51 3.24 2.56 3.19 2.59 3.12 2.62 3.07 2.68 3.01 2.71 2.95 2.74 2.89 2.78 2.83 2.82 2.77 2.87 2.71 2.9 2.64 2.93 2.59 2.98 2.52 3.02 2.45 3.05 2.39 3.09 2.34 3.13 2.26 3.18 2.21 3.27 2.18 3.32 2.1 3.37 2.05 3.42 1.97 3.45 1.89 3.5 1.83 3.54 1.75 3.59 1.69 3.63 1.62 3.67 1.54 3.71 1.47 3.76 1.4 3.79 1.33 3.83 1.26 3.87 1.19 3.92 1.12 3.96 1.05 3.98 0.98 4.03 0.9 4.08 0.84 4.1 0.77 4.13 0.7 4.18 0.63 4.24 0.57 4.26 0.5 4.28 0.42 4.33 0.37 4.38 0.29 4.41 0.23 4.43 0.17 4.48 0.1 4.53 0.03 3.96 -0.03 3.9 -0.07 3.88 -0.12 3.86 -0.16 3.83 -0.22 3.79 -0.27 3.76 -0.31 3.76 -0.36 3.72 -0.41 3.68 -0.46 3.65 -0.52 3.63 -0.56 3.61 -0.61 3.56 -0.66 3.53 -0.72 3.53 -0.76 3.49 -0.82 3.44 -0.87 3.41 -0.92 3.4 -0.97 3.36 -1.03 3.33 -1.08 3.29 -1.13 3.28 -1.18 3.24 -1.25 3.2 -1.28 3.16 -1.35 3.14 -1.4 3.1 -1.45 3.07 -1.5 3.03 -1.56 3.02 -1.62 3.02 -1.71 2.98 -1.77 2.94 -1.82 2.92 -1.9 2.89 -1.96 2.86 -2.03 2.83 -2.09 2.81 -2.15 2.76 -2.22 2.74 -2.27 2.7 -2.34 2.67 -2.39 2.64 -2.46 2.61 -2.51 2.57 -2.57 2.56 -2.63 2.53 -2.7 2.48 -2.74 2.45 -2.8 2.43 -2.86 2.4 -2.91 2.37 -2.96 2.34 -3.02 2.32 -3.08 2.28 -3.14 2.26 -3.19 2.22 -3.23 2.2 -3.29 2.17 -3.35 2.14 -3.39 2.11 -3.44 2.09 -3.49 1.37 -2.35 1.32 -2.32 1.32 -2.32 1.3 -2.32 1.28 -2.34 1.27 -2.33 1.25 -2.35 1.24 -2.35 1.22 -2.37 1.19 -2.36 1.18 -2.35 1.16 -2.37 1.15 -2.39 1.12 -2.37 1.11 -2.38 1.1 -2.4 1.07 -2.42 1.05 -2.4 1.02 -2.4 1.02 -2.43 0.99 -2.43 0.97 -2.41 0.95 -2.43 0.94 -2.45 0.91 -2.46 0.89 -2.44 0.86 -2.44 0.85 -2.47 0.83 -2.48 0.8 -2.47 0.79 -2.48 0.73 -2.4 1.29 -4.2 1.13 -3.59 1.03 -3.18 0.95 -2.91 0.88 -2.76 0.83 -2.72 0.77 -2.76 0.72 -2.91 0.61 -3.04 0.5 -3.12 0.25 -2.13 393.48 -1.25 -0.41 3.91 -0.77 6.55 -0.83 6.51 -0.9 6.47 -0.96 6.44 -1.03 6.39 -1.1 6.37 -1.17 6.32 -1.24 6.3 -1.32 6.26 -1.38 6.24 -1.46 6.21 -1.53 6.17 -1.6 6.14 -1.69 6.12 -1.76 6.1 -1.83 6.06 -1.92 6.04 -1.99 6.03 -2.08 5.99 -2.16 5.98 -2.24 5.95 -2.32 5.94 -2.42 5.92 -2.49 5.9 -2.59 5.88 -2.67 5.87 -2.76 5.86 -2.86 5.85 -2.93 5.81 -3.02 5.78 -3.08 5.75 -3.15 5.7 -3.22 5.65 -3.29 5.61 -3.36 5.56 -3.42 5.52 -3.49 5.48 -3.57 5.44 -3.63 5.38 -3.69 5.35 -3.77 5.29 -3.83 5.26 -3.9 5.22 -3.97 5.16 -4.03 5.12 -4.11 5.08 -4.17 5.04 -4.23 4.99 -4.31 4.94 -4.37 4.91 -4.44 4.86 -4.49 4.81 -4.57 4.77 -4.64 4.72 -4.71 4.69 -4.76 4.64 -4.84 4.59 -4.9 4.55 -4.97 4.5 -5.01 4.46 -5.77 4.98 -5.8 4.9 -5.86 4.82 -5.91 4.73 -5.95 4.65 -6.01 4.56 -6.05 4.48 -6.1 4.4 -6.15 4.31 -6.21 4.24 -6.25 4.14 -6.3 4.06 -6.36 3.98 -6.4 3.89 -6.46 3.82 -6.5 3.72 -6.55 3.64 -6.61 3.55 -6.66 3.48 -6.7 3.38 -6.77 3.3 -6.81 3.22 -6.87 3.13 -6.91 3.05 -6.96 2.96 -7.02 2.87 -7.09 2.8 -7.12 2.7 -7.18 2.61 -7.23 2.54 -7.29 2.45 -7.33 2.36 -7.45 2.29 -7.49 2.22 -7.53 2.15 -7.56 2.08 -7.61 2 -7.65 1.93 -7.68 1.85 -7.72 1.79 -7.76 1.7 -7.8 1.63 -7.84 1.57 -7.88 1.49 -7.91 1.41 -7.96 1.34 -7.99 1.27 -8.03 1.2 -8.06 1.12 -8.11 1.05 -8.15 0.97 -8.17 0.91 -8.23 0.82 -8.26 0.76 -8.3 0.69 -8.32 0.61 -8.38 0.54 -8.41 0.47 -8.45 0.4 -8.48 0.32 -8.52 0.25 -8.56 0.18 -8.6 0.11 -8.6 0.04 -14.22 -0.09 -14.04 -0.25 -13.9 -0.43 -13.75 -0.6 -13.6 -0.76 -13.46 -0.94 -13.31 -1.1 -13.15 -1.27 -13.01 -1.45 -12.86 -1.62 -12.72 -1.78 -12.56 -1.94 -12.43 -2.12 -12.27 -2.28 -12.12 -2.46 -11.97 -2.62 -11.83 -2.79 -11.68 -2.96 -11.53 -3.12 -11.39 -3.29 -11.24 -3.45 -11.09 -3.63 -10.95 -3.78 -10.8 -3.96 -10.65 -4.12 -10.51 -4.29 -10.37 -4.45 -10.21 -4.61 -10.08 -4.79 -9.93 -4.95 -9.79 -5.11 -9.66 -5.29 -9.58 -5.47 -9.45 -5.59 -9.31 -5.72 -9.16 -5.83 -9.02 -5.95 -8.87 -6.07 -8.73 -6.18 -8.59 -6.31 -8.45 -6.42 -8.31 -6.55 -8.17 -6.66 -8.02 -6.78 -7.9 -6.89 -7.75 -7.02 -7.62 -7.14 -7.47 -7.25 -7.35 -7.38 -7.21 -7.49 -7.08 -7.62 -6.93 -7.73 -6.81 -7.86 -6.68 -7.97 -6.53 -8.1 -6.41 -8.21 -6.29 -8.35 -6.14 -8.46 -6.02 -8.58 -5.89 -8.7 -5.76 -8.83 -5.62 -8.95 -5.5 -9.07 -5.39 -9.23 -2.69 -4.73 -2.66 -4.8 -2.63 -4.82 -2.58 -4.86 -2.54 -4.88 -2.51 -4.92 -2.46 -4.95 -2.42 -4.99 -2.39 -5.01 -2.34 -5.05 -2.31 -5.07 -2.26 -5.11 -2.22 -5.14 -2.18 -5.17 -2.14 -5.2 -2.09 -5.23 -2.06 -5.27 -2.01 -5.29 -1.97 -5.33 -1.92 -5.36 -1.89 -5.39 -1.84 -5.43 -1.8 -5.45 -1.75 -5.48 -1.72 -5.52 -1.66 -5.54 -1.63 -5.59 -1.57 -5.6 -1.54 -5.64 -1.49 -5.67 -1.44 -5.71 -1.4 -5.73 -1.37 -5.82 -1.32 -5.84 -1.28 -5.87 -1.23 -5.92 -1.19 -5.97 -1.15 -6 -1.11 -6.04 -1.06 -6.08 -1.02 -6.12 -0.97 -6.15 -0.93 -6.2 -0.89 -6.24 -0.85 -6.27 -0.8 -6.32 -0.76 -6.35 -0.72 -6.39 -0.67 -6.43 -0.63 -6.47 -0.59 -6.51 -0.54 -6.55 -0.5 -6.58 -0.45 -6.62 -0.42 -6.66 -0.36 -6.7 -0.33 -6.74 -0.28 -6.78 -0.24 -6.81 -0.2 -6.85 -0.15 -6.89 -0.11 -6.93 -0.06 -6.95 -0.02 -6.99 0.06 -12.48 0.19 -12.34 0.31 -12.21 0.44 -12.09 0.56 -11.97 0.7 -11.86 0.81 -11.73 0.94 -11.61 1.07 -11.5 1.19 -11.37 1.32 -11.25 1.44 -11.13 1.57 -11.02 1.69 -10.9 1.82 -10.77 1.95 -10.66 2.06 -10.54 2.2 -10.41 2.32 -10.3 2.44 -10.19 2.57 -10.06 2.69 -9.94 2.82 -9.83 2.95 -9.71 3.07 -9.6 3.19 -9.47 3.31 -9.36 3.45 -9.24 3.56 -9.12 3.69 -9.01 3.82 -8.9 3.95 -8.79 4.06 -8.71 4.18 -8.62 4.28 -8.52 4.39 -8.42 4.49 -8.34 4.6 -8.24 4.71 -8.15 4.81 -8.05 4.92 -7.97 5.01 -7.87 5.13 -7.78 5.23 -7.68 5.33 -7.6 5.44 -7.5 5.55 -7.41 5.65 -7.32 5.76 -7.24 5.86 -7.13 5.97 -7.05 6.07 -6.96 6.18 -6.88 6.28 -6.77 6.39 -6.69 6.5 -6.6 6.6 -6.52 6.71 -6.42 6.81 -6.33 6.92 -6.25 7.03 -6.16 7.14 -6.06 7.23 -5.98 7.37 -5.91 5.96 -4.67 6.01 -4.59 6.03 -4.52 6.07 -4.44 6.09 -4.36 6.12 -4.28 6.15 -4.2 6.2 -4.13 6.21 -4.05 6.24 -3.97 6.28 -3.89 6.32 -3.81 6.34 -3.74 6.37 -3.66 6.4 -3.58 6.45 -3.5 6.47 -3.43 6.51 -3.34 6.53 -3.27 6.58 -3.19 6.61 -3.12 6.64 -3.03 6.67 -2.95 6.72 -2.88 6.74 -2.81 6.79 -2.72 6.81 -2.64 6.86 -2.57 6.89 -2.49 6.93 -2.41 6.96 -2.34 7.02 -2.25 7.03 -2.19 7.09 -2.11 7.14 -2.04 7.2 -1.98 7.26 -1.91 7.32 -1.84 7.37 -1.77 7.43 -1.71 7.49 -1.64 7.54 -1.57 7.6 -1.5 7.66 -1.44 7.73 -1.36 7.77 -1.3 7.83 -1.23 7.9 -1.15 7.95 -1.1 8.01 -1.02 8.06 -0.95 8.13 -0.88 8.19 -0.81 8.24 -0.74 8.3 -0.67 8.37 -0.6 8.43 -0.54 8.47 -0.46 8.54 -0.39 8.61 -0.32 8.66 -0.25 8.72 -0.17 8.78 -0.11 8.84 -0.03 9.12 0.03 9.06 0.12 9.02 0.2 8.97 0.28 8.92 0.35 8.88 0.44 8.82 0.51 8.78 0.59 8.73 0.66 8.68 0.75 8.63 0.83 8.57 0.9 8.54 0.98 8.48 1.06 8.43 1.13 8.39 1.22 8.33 1.28 8.29 1.37 8.24 1.44 8.19 1.52 8.14 1.6 8.09 1.67 8.04 1.75 8 1.83 7.94 1.9 7.9 1.97 7.84 2.06 7.8 2.13 7.75 2.2 7.7 2.28 7.65 2.36 7.6 2.43 7.55 2.51 7.5 2.59 7.43 2.68 7.36 2.75 7.31 2.84 7.24 2.92 7.18 3 7.12 3.08 7.05 3.16 6.99 3.25 6.93 3.33 6.87 3.41 6.81 3.5 6.74 3.58 6.69 3.66 6.63 3.75 6.55 3.83 6.49 3.91 6.43 4 6.38 4.08 6.3 4.17 6.25 4.25 6.19 4.34 6.13 4.43 6.05 4.51 6 4.6 5.94 4.68 5.88 4.77 5.81 4.86 5.76 4.94 5.68 5.03 5.64 5.13 4.88 4.56 4.81 4.61 4.75 4.66 4.68 4.71 4.61 4.75 4.54 4.8 4.47 4.85 4.41 4.9 4.34 4.95 4.27 4.99 4.2 5.03 4.14 5.1 4.06 5.13 4.01 5.18 3.93 5.23 3.88 5.28 3.8 5.32 3.74 5.38 3.68 5.42 3.61 5.46 3.54 5.52 3.48 5.56 3.41 5.61 3.36 5.66 3.28 5.7 3.22 5.76 3.16 5.8 3.1 5.85 3.03 5.9 2.97 5.95 2.9 5.98 2.85 6.05 2.78 6.1 2.71 6.08 2.62 6.04 2.53 6.02 2.43 6 2.36 5.98 2.27 5.97 2.18 5.96 2.09 5.95 2.01 5.94 1.92 5.95 1.84 5.95 1.75 5.95 1.67 5.98 1.59 5.98 1.5 6 1.42 6.02 1.33 6.06 1.26 6.09 1.16 6.12 1.09 6.16 1 6.2 0.93 6.25 0.84 6.31 0.75 6.35 0.68 6.41 0.59 6.48 0.51 6.55 0.35 5.46 -403.72 0.44 -0.02 -0.15 -0.39 -3.35 -0.47 -3.17 -0.53 -3.02 -0.58 -2.92 -0.6 -2.86 -0.64 -2.89 -0.67 -3.06 -0.71 -3.35 -0.76 -3.75 -0.83 -4.26 -0.9 -5.01 -0.51 -2.79 -0.53 -2.84 -0.55 -2.83 -0.57 -2.81 -0.6 -2.77 -0.6 -2.73 -0.62 -2.7 -0.64 -2.68 -0.66 -2.66 -0.66 -2.61 -0.69 -2.6 -0.7 -2.56zm-2256.32 -416.11l437.16 0 0 383.84 288.11 -383.84 482.27 0 -424.53 552.75 569.6 818.41 -489.98 0 -335.26 -483.28 -90.21 118.08 0 365.2 -437.16 0 0 -1371.16zm-1144.83 0l0 550.69 -0.01 3.63 -0.01 3.61 -0.02 3.59 -0.02 3.55 -0.03 3.54 -0.03 3.53 -0.05 3.51 -0.05 3.47 -0.05 3.46 -0.07 3.44 -0.07 3.43 -0.07 3.4 -0.08 3.38 -0.09 3.36 -0.1 3.36 -0.1 3.32 -0.11 3.29 -0.11 3.28 -0.12 3.27 -0.13 3.25 -0.14 3.22 -0.14 3.21 -0.15 3.19 -0.15 3.16 -0.16 3.14 -0.17 3.14 -0.17 3.12 -0.18 3.08 -0.19 3.07 -0.19 3.06 -0.2 3.04 -7.08 104.76 391.69 -758.55 444.28 0 0 1371.16 -436.03 0 0 -551.39 0.01 -3.64 0.01 -3.6 0.01 -3.59 0.03 -3.56 0.02 -3.54 0.04 -3.52 0.04 -3.57 0.11 -6.88 0.06 -3.44 0.07 -3.42 0.07 -3.4 0.08 -3.38 0.1 -3.35 0.09 -3.34 0.11 -3.34 0.1 -3.3 0.12 -3.28 0.12 -3.27 0.13 -3.25 0.13 -3.22 0.15 -3.21 0.14 -3.17 0.16 -3.17 0.16 -3.16 0.17 -3.13 0.17 -3.1 0.18 -3.09 0.19 -3.08 0.19 -3.05 0.2 -3.03 7.35 -105.38 -391.97 759.85 -445.41 0 0 -1371.16 437.17 0z"/>
  <path class="fil4" d="M4620.77 1332.2l872.73 -5.02 -416.08 -127.09 418.56 -123.85 -794.58 -4.12 -16.92 -145.12 -593.52 0.12c-9.36,126.75 3.7,253.1 -4.36,368.99 -10.69,152.89 -124.5,70.04 -54.83,264.74 179.35,54.56 218.82,-108.01 99.78,-186.95l7.41 -177.62 446.27 5.01c5.09,65.19 -18.05,125.24 35.54,130.91zm-1515.45 2036.33c190.53,-251.41 595.1,-512.32 873.93,-840.17 44.56,-56.88 94.58,-153.24 138.77,-204.85 52.41,65.25 88.24,138.89 143.05,210.85 49.49,64.89 107.65,125.65 178.93,188.36 430.98,379.07 1003.55,545.28 746.59,1201.11l201.24 -0.1c71.8,-206.44 44.72,-456.06 -108.75,-693.11 -107.77,-166.43 -489.52,-471.1 -672.44,-609.44l200.24 -284.65c67.01,83.73 101.43,155.87 169.53,237.83 183.6,221.1 421.37,365.54 646.64,557.72 293.84,250.71 402.25,521.75 270.28,791.76l177.55 -0.02c163.64,-461.32 -76.07,-701.29 -426.32,-998.13l-331.81 -283.81c40.88,-68.23 73.72,-90.9 124.24,-165.56 37.65,-55.69 55.41,-101.64 98.1,-153.42 208.33,393.17 488.15,526.16 795.49,794.52 319.86,279.34 430.25,500.71 286.94,806.41l182.52 -0.01c57.74,-187.57 51.82,-329.03 -31.83,-529.37 -106.26,-254.44 -267.62,-359.39 -448.64,-511.11 -618.44,-518.17 -554.74,-425.31 -765.57,-1048.3l-25.82 -61.4c-1.13,-8.3 -4.81,-10.3 -7.83,-15.11 -42.72,269.28 -184.05,622.53 -346.2,747.37 -208.35,-91.55 -308.84,-559.15 -372.03,-739.96 -48.24,90.46 -80.1,273.3 -128.41,395.84 -61.56,156.31 -116.41,213.34 -188.79,321.03 -204.52,-107.97 -255.17,-431.45 -341.91,-652.98l-2.69 -52.01c-16.39,-32.68 -4.54,-18.84 -29.23,-37.67l-20.39 105.87c-116.57,347.51 -169.09,518.96 -393.23,727.24 -231.51,215.14 -639.98,488.73 -805.74,796.08l213.59 -0.81zm715.45 255.52c59.94,-66.25 155.97,32.86 204.69,-173.93 33.58,-159.7 -88.77,-182.06 -141.28,-255.64 145.33,-31.35 338.37,-37.34 488.17,5.98 -70.69,58.85 -171.92,109.77 -141.19,254.96 37.02,175.29 190.5,133.02 240.18,172.79l5.92 295.61c4.1,0.04 21.19,0 25.62,0l158.83 0.04c-2.1,-122.39 13.55,-232 -8.91,-332.91 -37.42,-167.81 -113.76,-127.73 -233.39,-191.77 86.29,-40.54 233.41,-176.73 132.14,-318.54 -99.73,-139.71 -753.88,-130.99 -843.89,-7.88 -104.93,143.57 35.6,280.34 125.65,320.61 -47.58,18.06 -121.99,44.36 -169.57,62.42 36.17,16.58 63.32,32.34 87.89,56.16 19.33,19.13 24.48,26.48 39.04,47.29 5.47,9.66 10.13,15.82 19.76,37.95l10.34 26.86z"/>
 </g>
</svg>
