<?xml version="1.0" encoding="UTF-8"?>
<!DOCTYPE svg PUBLIC "-//W3C//DTD SVG 1.1//EN" "http://www.w3.org/Graphics/SVG/1.1/DTD/svg11.dtd">
<!-- Creator: CorelDRAW 2021.5 -->
<svg xmlns="http://www.w3.org/2000/svg" xml:space="preserve" width="50mm" height="50mm" version="1.1" style="shape-rendering:geometricPrecision; text-rendering:geometricPrecision; image-rendering:optimizeQuality; fill-rule:evenodd; clip-rule:evenodd"
viewBox="0 0 5000 5000"
 xmlns:xlink="http://www.w3.org/1999/xlink"
 xmlns:xodm="http://www.corel.com/coreldraw/odm/2003">
 <defs>
  <style type="text/css">
   <![CDATA[
    .fil6 {fill:none}
    .fil2 {fill:#C5C6C6}
    .fil1 {fill:#9D9E9E}
    .fil0 {fill:#9D9E9E}
    .fil5 {fill:#D5A473}
    .fil3 {fill:#9F6934}
    .fil4 {fill:#AE7C49}
   ]]>
  </style>
   <clipPath id="id0">
    <path d="M2864.55 2978.05c-11.27,-11.26 -23.69,-17.59 -43.33,-4.74l-219.73 152.35c-15.68,9.05 -9.28,43.29 -3.62,53.09 281.92,531.07 603.88,1023.47 1011.07,1575.82 79.97,138.52 462.53,-138.63 401.01,-245.18 -357.84,-538.13 -717.85,-1040.25 -1145.4,-1531.34z"/>
   </clipPath>
 </defs>
 <g id="Слой_x0020_1">
  <metadata id="CorelCorpID_0Corel-Layer"/>
  <path class="fil0" d="M2513.87 2811.87c-601.25,416.87 -1426.59,267.4 -1843.46,-333.85 -416.86,-601.25 -267.39,-1426.6 333.86,-1843.46 601.25,-416.87 1426.59,-267.4 1843.46,333.85 416.86,601.25 267.39,1426.6 -333.86,1843.46zm-49.16 -70.91c-562.09,389.71 -1333.67,249.98 -1723.38,-312.11 -389.72,-562.08 -249.98,-1333.67 312.1,-1723.38 562.09,-389.71 1333.67,-249.98 1723.39,312.11 389.71,562.08 249.97,1333.67 -312.11,1723.38z"/>
  <polygon class="fil1" points="2616.22,2669.72 2396.48,2822.07 2601.49,3125.66 2821.22,2973.31 "/>
  <polygon class="fil2" points="2604.57,2683.91 2446.12,2793.76 2650.54,3096.01 2808.98,2986.15 "/>
  <path class="fil2" d="M2510.84 2760.27c-601.25,416.87 -1426.6,267.4 -1843.46,-333.85 -416.87,-601.25 -267.4,-1426.59 333.85,-1843.46 601.25,-416.86 1426.6,-267.39 1843.46,333.86 416.87,601.24 267.4,1426.59 -333.85,1843.45zm-49.17 -70.91c-562.08,389.72 -1333.67,249.98 -1723.38,-312.11 -389.71,-562.08 -249.98,-1333.66 312.11,-1723.38 562.08,-389.71 1333.67,-249.97 1723.38,312.11 389.71,562.09 249.98,1333.67 -312.11,1723.38z"/>
  <path class="fil3" d="M2864.55 2978.05c-11.27,-11.26 -23.69,-17.59 -43.33,-4.74l-219.73 152.35c-15.68,9.05 -9.28,43.29 -3.62,53.09 281.92,531.07 603.88,1023.47 1011.07,1575.82 79.97,138.52 462.53,-138.63 401.01,-245.18 -357.84,-538.13 -717.85,-1040.25 -1145.4,-1531.34z"/>
  <g style="clip-path:url(#id0)">
   <g id="_2345805944656">
    <path id="_1" class="fil4" d="M2873.01 2848.69l-268.68 186.28c281.92,531.08 638.28,1083.05 1045.47,1635.4 104.79,139.29 452.72,-155.61 372.5,-294.56 -357.84,-538.12 -721.74,-1036.03 -1149.29,-1527.12z"/>
    <path class="fil5" d="M3789.62 4520.04c61.87,82.23 148.84,4.94 101.48,-77.09 -442.92,-666.06 -887.31,-1202.68 -850.94,-1118.99 31.17,71.69 234.31,497.27 749.46,1196.08z"/>
   </g>
  </g>
  <path class="fil6" d="M2864.55 2978.05c-11.27,-11.26 -23.69,-17.59 -43.33,-4.74l-219.73 152.35c-15.68,9.05 -9.28,43.29 -3.62,53.09 281.92,531.07 603.88,1023.47 1011.07,1575.82 79.97,138.52 462.53,-138.63 401.01,-245.18 -357.84,-538.13 -717.85,-1040.25 -1145.4,-1531.34z"/>
 </g>
</svg>
